#include <cstdlib>
#include <signal.h>
#include <iostream>

extern unsigned int instru_mid_len;
extern unsigned char instru_mid[];

extern void begin_music();
extern void end_music();

void signal_callback_handler(int signum) {
    end_music();
    exit(signum);
}

void begin_music() {
    FILE *midiFile;
    midiFile = fopen("/tmp/instru.mid", "wb");
    fwrite(instru_mid, 1, instru_mid_len, midiFile);
    fclose(midiFile);

    std::system("/usr/bin/vlc --intf dummy --daemon --start-time 3 /tmp/instru.mid --synth-gain 2 &>/dev/null");

    // Listen on Ctr+C to kill VLC.
    signal(SIGINT, signal_callback_handler);
}

void end_music() {
    std::system("kill $(pgrep --full 'vlc .* --daemon .* /tmp/instru.mid')");
}

unsigned int instru_mid_len = 22729;
unsigned char instru_mid[] = {
        0x4d, 0x54, 0x68, 0x64, 0x00, 0x00, 0x00, 0x06, 0x00, 0x01, 0x00, 0x08,
        0x00, 0xc0, 0x4d, 0x54, 0x72, 0x6b, 0x00, 0x00, 0x00, 0x4f, 0x00, 0xff,
        0x51, 0x03, 0x0b, 0xbc, 0xcf, 0x00, 0xff, 0x58, 0x04, 0x04, 0x02, 0x18,
        0x08, 0x00, 0xff, 0x59, 0x02, 0x00, 0x00, 0x86, 0x00, 0xff, 0x51, 0x03,
        0x15, 0xcc, 0x5b, 0x30, 0xff, 0x51, 0x03, 0x0c, 0x8a, 0x9d, 0x82, 0xc3,
        0x50, 0xff, 0x51, 0x03, 0x0c, 0x8a, 0x9e, 0x83, 0x00, 0xff, 0x51, 0x03,
        0x0d, 0xaa, 0x22, 0x81, 0x40, 0xff, 0x51, 0x03, 0x0e, 0x88, 0x3d, 0x60,
        0xff, 0x51, 0x03, 0x0f, 0xc8, 0xf3, 0x60, 0xff, 0x51, 0x03, 0x10, 0xf4,
        0x47, 0x00, 0xff, 0x2f, 0x00, 0x4d, 0x54, 0x72, 0x6b, 0x00, 0x00, 0x1d,
        0x14, 0x00, 0xff, 0x03, 0x03, 0x74, 0x6b, 0x31, 0x00, 0xff, 0x20, 0x01,
        0x00, 0x00, 0xb0, 0x07, 0x64, 0x00, 0xc0, 0x05, 0x81, 0x44, 0xb0, 0x00,
        0x00, 0x00, 0xb0, 0x20, 0x00, 0x00, 0xc0, 0x00, 0x02, 0xb0, 0x07, 0x64,
        0x00, 0xb0, 0x0a, 0x40, 0x00, 0xb0, 0x0b, 0x7f, 0x02, 0xb0, 0x5b, 0x46,
        0x00, 0xb0, 0x5d, 0x14, 0x81, 0x3a, 0xb0, 0x63, 0x01, 0x02, 0xb0, 0x62,
        0x20, 0x02, 0xb0, 0x06, 0x2c, 0x02, 0xb0, 0x65, 0x7f, 0x02, 0xb0, 0x64,
        0x7f, 0x82, 0x76, 0x90, 0x34, 0x50, 0x00, 0x90, 0x37, 0x50, 0x00, 0x90,
        0x24, 0x50, 0x30, 0xb0, 0x40, 0x7f, 0x30, 0x90, 0x30, 0x5c, 0x04, 0x80,
        0x37, 0x00, 0x00, 0x80, 0x34, 0x00, 0x5c, 0x80, 0x30, 0x00, 0x00, 0x90,
        0x34, 0x64, 0x00, 0x90, 0x37, 0x68, 0x60, 0x80, 0x37, 0x00, 0x00, 0x80,
        0x34, 0x00, 0x00, 0x90, 0x30, 0x5d, 0x60, 0x90, 0x34, 0x62, 0x00, 0x90,
        0x37, 0x64, 0x04, 0x80, 0x30, 0x00, 0x54, 0x80, 0x34, 0x00, 0x04, 0x80,
        0x37, 0x00, 0x04, 0x90, 0x30, 0x62, 0x60, 0x90, 0x3b, 0x5b, 0x00, 0x90,
        0x34, 0x5c, 0x00, 0x90, 0x37, 0x5f, 0x08, 0x80, 0x30, 0x00, 0x48, 0x80,
        0x34, 0x00, 0x04, 0x80, 0x3b, 0x00, 0x04, 0x80, 0x37, 0x00, 0x08, 0x80,
        0x24, 0x00, 0x00, 0x90, 0x30, 0x65, 0x60, 0x90, 0x3c, 0x61, 0x00, 0x90,
        0x29, 0x60, 0x00, 0x90, 0x35, 0x5f, 0x00, 0x90, 0x39, 0x62, 0x00, 0xb0,
        0x40, 0x00, 0x04, 0x80, 0x30, 0x00, 0x2c, 0xb0, 0x40, 0x7f, 0x30, 0x80,
        0x35, 0x00, 0x00, 0x90, 0x30, 0x5f, 0x04, 0x80, 0x3c, 0x00, 0x00, 0x80,
        0x39, 0x00, 0x58, 0x80, 0x30, 0x00, 0x04, 0x90, 0x39, 0x60, 0x00, 0x90,
        0x35, 0x5d, 0x00, 0x90, 0x3c, 0x5d, 0x5c, 0x80, 0x35, 0x00, 0x04, 0x80,
        0x39, 0x00, 0x00, 0x80, 0x3c, 0x00, 0x00, 0x90, 0x30, 0x5d, 0x60, 0x90,
        0x3c, 0x5b, 0x00, 0x90, 0x39, 0x5e, 0x00, 0x90, 0x35, 0x59, 0x08, 0x80,
        0x30, 0x00, 0x44, 0x80, 0x35, 0x00, 0x0c, 0x80, 0x3c, 0x00, 0x04, 0x80,
        0x39, 0x00, 0x04, 0x90, 0x30, 0x5d, 0x60, 0x90, 0x35, 0x5c, 0x00, 0x90,
        0x39, 0x5d, 0x18, 0x80, 0x29, 0x00, 0x00, 0x80, 0x30, 0x00, 0x18, 0x90,
        0x3a, 0x59, 0x08, 0x80, 0x39, 0x00, 0x18, 0x80, 0x35, 0x00, 0x10, 0x90,
        0x3b, 0x60, 0x10, 0x80, 0x3a, 0x00, 0x50, 0x90, 0x34, 0x50, 0x00, 0x90,
        0x3e, 0x64, 0x00, 0x90, 0x24, 0x62, 0x00, 0xb0, 0x40, 0x00, 0x00, 0x90,
        0x37, 0x57, 0x04, 0x80, 0x3b, 0x00, 0x2c, 0xb0, 0x40, 0x7f, 0x28, 0x80,
        0x37, 0x00, 0x04, 0x80, 0x34, 0x00, 0x04, 0x80, 0x3e, 0x00, 0x00, 0x90,
        0x30, 0x5c, 0x60, 0x90, 0x34, 0x60, 0x00, 0x90, 0x37, 0x60, 0x08, 0x80,
        0x30, 0x00, 0x54, 0x80, 0x34, 0x00, 0x00, 0x80, 0x37, 0x00, 0x04, 0x90,
        0x30, 0x5c, 0x60, 0x80, 0x30, 0x00, 0x00, 0x90, 0x37, 0x5f, 0x00, 0x90,
        0x34, 0x5f, 0x60, 0x80, 0x34, 0x00, 0x00, 0x80, 0x37, 0x00, 0x00, 0x90,
        0x30, 0x60, 0x60, 0x80, 0x30, 0x00, 0x00, 0x90, 0x3b, 0x5b, 0x00, 0x90,
        0x34, 0x5a, 0x00, 0x90, 0x37, 0x58, 0x58, 0x80, 0x24, 0x00, 0x08, 0x80,
        0x34, 0x00, 0x00, 0x80, 0x37, 0x00, 0x00, 0x90, 0x30, 0x5b, 0x04, 0x80,
        0x3b, 0x00, 0x5c, 0x90, 0x39, 0x5a, 0x00, 0xb0, 0x40, 0x00, 0x00, 0x90,
        0x3c, 0x5d, 0x00, 0x90, 0x35, 0x5d, 0x00, 0x90, 0x29, 0x60, 0x04, 0x80,
        0x30, 0x00, 0x2c, 0xb0, 0x40, 0x7f, 0x28, 0x80, 0x3c, 0x00, 0x04, 0x80,
        0x39, 0x00, 0x00, 0x80, 0x35, 0x00, 0x04, 0x90, 0x30, 0x5d, 0x60, 0x80,
        0x30, 0x00, 0x00, 0x90, 0x3c, 0x61, 0x00, 0x90, 0x35, 0x5d, 0x00, 0x90,
        0x39, 0x5d, 0x58, 0x80, 0x3c, 0x00, 0x04, 0x80, 0x39, 0x00, 0x04, 0x80,
        0x35, 0x00, 0x00, 0x90, 0x30, 0x5b, 0x60, 0x90, 0x39, 0x5c, 0x00, 0x90,
        0x3c, 0x5e, 0x00, 0x90, 0x35, 0x5b, 0x04, 0x80, 0x30, 0x00, 0x58, 0x80,
        0x35, 0x00, 0x04, 0x80, 0x3c, 0x00, 0x00, 0x90, 0x30, 0x5d, 0x08, 0x80,
        0x39, 0x00, 0x58, 0x90, 0x39, 0x5e, 0x00, 0x90, 0x35, 0x5d, 0x30, 0x90,
        0x3a, 0x5c, 0x08, 0x80, 0x35, 0x00, 0x04, 0x80, 0x39, 0x00, 0x08, 0x80,
        0x29, 0x00, 0x10, 0x80, 0x30, 0x00, 0x0c, 0x90, 0x3b, 0x64, 0x0c, 0x80,
        0x3a, 0x00, 0x24, 0xb0, 0x40, 0x00, 0x30, 0x90, 0x24, 0x63, 0x00, 0x90,
        0x3e, 0x60, 0x00, 0x90, 0x37, 0x5d, 0x00, 0x90, 0x34, 0x55, 0x08, 0x80,
        0x3b, 0x00, 0x28, 0xb0, 0x40, 0x7f, 0x20, 0x80, 0x37, 0x00, 0x08, 0x80,
        0x3e, 0x00, 0x00, 0x80, 0x34, 0x00, 0x08, 0x90, 0x30, 0x5c, 0x60, 0x90,
        0x34, 0x64, 0x00, 0x90, 0x37, 0x64, 0x08, 0x80, 0x30, 0x00, 0x54, 0x80,
        0x37, 0x00, 0x04, 0x80, 0x34, 0x00, 0x00, 0x90, 0x30, 0x5f, 0x60, 0x80,
        0x30, 0x00, 0x00, 0x90, 0x34, 0x5d, 0x00, 0x90, 0x37, 0x5f, 0x5c, 0x80,
        0x37, 0x00, 0x00, 0x80, 0x34, 0x00, 0x04, 0x90, 0x30, 0x5e, 0x60, 0x90,
        0x37, 0x5d, 0x00, 0x90, 0x34, 0x5c, 0x00, 0x90, 0x3b, 0x5d, 0x04, 0x80,
        0x30, 0x00, 0x50, 0x80, 0x34, 0x00, 0x04, 0x80, 0x24, 0x00, 0x00, 0x80,
        0x37, 0x00, 0x08, 0x80, 0x3b, 0x00, 0x00, 0x90, 0x30, 0x5c, 0x60, 0x90,
        0x29, 0x60, 0x00, 0xb0, 0x40, 0x00, 0x00, 0x90, 0x3c, 0x5e, 0x00, 0x90,
        0x39, 0x63, 0x00, 0x90, 0x35, 0x62, 0x08, 0x80, 0x30, 0x00, 0x50, 0x80,
        0x35, 0x00, 0x04, 0x80, 0x3c, 0x00, 0x00, 0x80, 0x39, 0x00, 0x04, 0x90,
        0x30, 0x5e, 0x00, 0xb0, 0x40, 0x7f, 0x60, 0x90, 0x35, 0x5f, 0x00, 0x90,
        0x39, 0x61, 0x00, 0x90, 0x3c, 0x5f, 0x04, 0x80, 0x30, 0x00, 0x5c, 0x90,
        0x30, 0x5d, 0x04, 0x80, 0x35, 0x00, 0x00, 0x80, 0x39, 0x00, 0x00, 0x80,
        0x3c, 0x00, 0x5c, 0x90, 0x39, 0x5f, 0x00, 0x90, 0x35, 0x5c, 0x00, 0x90,
        0x3c, 0x60, 0x04, 0x80, 0x30, 0x00, 0x5c, 0x80, 0x35, 0x00, 0x00, 0x90,
        0x30, 0x62, 0x04, 0x80, 0x3c, 0x00, 0x04, 0x80, 0x39, 0x00, 0x58, 0x90,
        0x39, 0x64, 0x00, 0x90, 0x35, 0x62, 0x30, 0x90, 0x3a, 0x5b, 0x04, 0x80,
        0x39, 0x00, 0x08, 0x80, 0x35, 0x00, 0x14, 0x80, 0x29, 0x00, 0x0c, 0x80,
        0x30, 0x00, 0x04, 0x90, 0x3b, 0x62, 0x0c, 0x80, 0x3a, 0x00, 0x54, 0x80,
        0x3b, 0x00, 0x00, 0x90, 0x34, 0x4f, 0x00, 0x90, 0x37, 0x58, 0x00, 0xb0,
        0x40, 0x00, 0x00, 0x90, 0x24, 0x64, 0x00, 0x90, 0x3e, 0x60, 0x30, 0xb0,
        0x40, 0x7f, 0x28, 0x80, 0x37, 0x00, 0x08, 0x80, 0x34, 0x00, 0x00, 0x80,
        0x3e, 0x00, 0x00, 0x90, 0x30, 0x63, 0x60, 0x90, 0x37, 0x5d, 0x00, 0x90,
        0x34, 0x5f, 0x04, 0x80, 0x30, 0x00, 0x5c, 0x80, 0x37, 0x00, 0x00, 0x80,
        0x34, 0x00, 0x00, 0x90, 0x30, 0x5f, 0x60, 0x90, 0x37, 0x5f, 0x00, 0x90,
        0x34, 0x5f, 0x08, 0x80, 0x30, 0x00, 0x58, 0x80, 0x34, 0x00, 0x00, 0x90,
        0x30, 0x5d, 0x04, 0x80, 0x37, 0x00, 0x5c, 0x90, 0x3b, 0x5f, 0x00, 0x90,
        0x37, 0x62, 0x00, 0x90, 0x34, 0x5f, 0x08, 0x80, 0x30, 0x00, 0x58, 0x80,
        0x24, 0x00, 0x00, 0x80, 0x34, 0x00, 0x00, 0x90, 0x30, 0x5d, 0x04, 0x80,
        0x3b, 0x00, 0x00, 0x80, 0x37, 0x00, 0x5c, 0x90, 0x29, 0x64, 0x00, 0x90,
        0x3c, 0x5b, 0x00, 0x90, 0x39, 0x5a, 0x00, 0xb0, 0x40, 0x00, 0x00, 0x90,
        0x35, 0x5d, 0x04, 0x80, 0x30, 0x00, 0x54, 0x80, 0x35, 0x00, 0x04, 0x80,
        0x3c, 0x00, 0x00, 0x80, 0x39, 0x00, 0x04, 0x90, 0x30, 0x60, 0x00, 0xb0,
        0x40, 0x7f, 0x60, 0x90, 0x35, 0x5d, 0x00, 0x90, 0x39, 0x5c, 0x00, 0x90,
        0x3c, 0x5f, 0x04, 0x80, 0x30, 0x00, 0x5c, 0x80, 0x3c, 0x00, 0x00, 0x90,
        0x30, 0x5d, 0x04, 0x80, 0x35, 0x00, 0x00, 0x80, 0x39, 0x00, 0x5c, 0x90,
        0x39, 0x59, 0x00, 0x90, 0x3c, 0x60, 0x00, 0x90, 0x35, 0x5a, 0x08, 0x80,
        0x30, 0x00, 0x54, 0x80, 0x35, 0x00, 0x04, 0x90, 0x30, 0x5f, 0x04, 0x80,
        0x39, 0x00, 0x04, 0x80, 0x3c, 0x00, 0x58, 0x90, 0x35, 0x67, 0x00, 0x90,
        0x39, 0x67, 0x30, 0x90, 0x3a, 0x5f, 0x08, 0x80, 0x39, 0x00, 0x04, 0x80,
        0x35, 0x00, 0x04, 0x80, 0x29, 0x00, 0x00, 0x80, 0x30, 0x00, 0x20, 0x90,
        0x3b, 0x63, 0x10, 0x80, 0x3a, 0x00, 0x20, 0xb0, 0x40, 0x00, 0x30, 0x90,
        0x24, 0x68, 0x00, 0x90, 0x34, 0x5b, 0x00, 0x90, 0x3e, 0x62, 0x00, 0x90,
        0x37, 0x5f, 0x04, 0x80, 0x3b, 0x00, 0x2c, 0xb0, 0x40, 0x7f, 0x2c, 0x80,
        0x37, 0x00, 0x04, 0x80, 0x3e, 0x00, 0x00, 0x90, 0x30, 0x62, 0x04, 0x80,
        0x34, 0x00, 0x5c, 0x90, 0x37, 0x5c, 0x00, 0x90, 0x34, 0x5e, 0x04, 0x80,
        0x30, 0x00, 0x58, 0x80, 0x37, 0x00, 0x00, 0x80, 0x34, 0x00, 0x04, 0x90,
        0x30, 0x62, 0x60, 0x90, 0x37, 0x60, 0x00, 0x90, 0x34, 0x5d, 0x08, 0x80,
        0x30, 0x00, 0x58, 0x90, 0x30, 0x5b, 0x08, 0x80, 0x37, 0x00, 0x00, 0x80,
        0x34, 0x00, 0x58, 0x90, 0x34, 0x5e, 0x00, 0x90, 0x37, 0x5c, 0x00, 0x90,
        0x3b, 0x65, 0x0c, 0x80, 0x30, 0x00, 0x50, 0x80, 0x24, 0x00, 0x00, 0x80,
        0x34, 0x00, 0x00, 0x80, 0x37, 0x00, 0x04, 0x90, 0x30, 0x5b, 0x04, 0x80,
        0x3b, 0x00, 0x5c, 0x90, 0x3c, 0x5e, 0x00, 0x90, 0x39, 0x58, 0x00, 0x90,
        0x35, 0x5c, 0x00, 0xb0, 0x40, 0x00, 0x00, 0x90, 0x29, 0x65, 0x08, 0x80,
        0x30, 0x00, 0x58, 0x80, 0x3c, 0x00, 0x00, 0x80, 0x39, 0x00, 0x00, 0x80,
        0x35, 0x00, 0x00, 0x90, 0x30, 0x5f, 0x00, 0xb0, 0x40, 0x7f, 0x60, 0x90,
        0x35, 0x5d, 0x00, 0x90, 0x3c, 0x5d, 0x00, 0x90, 0x39, 0x59, 0x04, 0x80,
        0x30, 0x00, 0x54, 0x80, 0x35, 0x00, 0x00, 0x80, 0x3c, 0x00, 0x04, 0x80,
        0x39, 0x00, 0x04, 0x90, 0x30, 0x62, 0x60, 0x90, 0x39, 0x5f, 0x00, 0x90,
        0x3c, 0x60, 0x00, 0x90, 0x35, 0x60, 0x0c, 0x80, 0x30, 0x00, 0x4c, 0x80,
        0x35, 0x00, 0x08, 0x80, 0x39, 0x00, 0x00, 0x80, 0x3c, 0x00, 0x00, 0x90,
        0x30, 0x64, 0x60, 0x90, 0x39, 0x5f, 0x00, 0x90, 0x35, 0x60, 0x30, 0x80,
        0x39, 0x00, 0x00, 0x90, 0x3a, 0x64, 0x0c, 0x80, 0x35, 0x00, 0x18, 0x80,
        0x29, 0x00, 0x0c, 0x90, 0x3b, 0x5f, 0x04, 0x80, 0x30, 0x00, 0x10, 0x80,
        0x3a, 0x00, 0x4c, 0x90, 0x24, 0x63, 0x00, 0x90, 0x37, 0x5d, 0x00, 0x90,
        0x3e, 0x61, 0x00, 0xb0, 0x40, 0x00, 0x00, 0x90, 0x34, 0x51, 0x04, 0x80,
        0x3b, 0x00, 0x2c, 0xb0, 0x40, 0x7f, 0x2c, 0x80, 0x37, 0x00, 0x04, 0x80,
        0x3e, 0x00, 0x00, 0x90, 0x30, 0x64, 0x04, 0x80, 0x34, 0x00, 0x5c, 0x90,
        0x34, 0x5d, 0x00, 0x90, 0x37, 0x5d, 0x0c, 0x80, 0x30, 0x00, 0x54, 0x80,
        0x37, 0x00, 0x00, 0x90, 0x30, 0x5c, 0x04, 0x80, 0x34, 0x00, 0x5c, 0x90,
        0x37, 0x5f, 0x00, 0x90, 0x34, 0x5c, 0x08, 0x80, 0x30, 0x00, 0x58, 0x80,
        0x34, 0x00, 0x00, 0x90, 0x30, 0x60, 0x04, 0x80, 0x37, 0x00, 0x5c, 0x90,
        0x34, 0x5d, 0x00, 0x90, 0x37, 0x57, 0x00, 0x90, 0x3b, 0x5c, 0x04, 0x80,
        0x30, 0x00, 0x54, 0x80, 0x24, 0x00, 0x08, 0x80, 0x34, 0x00, 0x00, 0x80,
        0x37, 0x00, 0x00, 0x90, 0x30, 0x5e, 0x08, 0x80, 0x3b, 0x00, 0x58, 0xb0,
        0x40, 0x00, 0x00, 0x90, 0x3c, 0x55, 0x00, 0x90, 0x35, 0x5b, 0x00, 0x90,
        0x39, 0x53, 0x00, 0x90, 0x29, 0x64, 0x04, 0x80, 0x30, 0x00, 0x54, 0x80,
        0x3c, 0x00, 0x00, 0x80, 0x35, 0x00, 0x04, 0x80, 0x39, 0x00, 0x04, 0x90,
        0x30, 0x60, 0x00, 0xb0, 0x40, 0x7f, 0x60, 0x90, 0x39, 0x56, 0x00, 0x90,
        0x3c, 0x5b, 0x00, 0x90, 0x35, 0x5c, 0x08, 0x80, 0x30, 0x00, 0x54, 0x80,
        0x39, 0x00, 0x00, 0x80, 0x3c, 0x00, 0x00, 0x80, 0x35, 0x00, 0x04, 0x90,
        0x30, 0x5f, 0x60, 0x90, 0x35, 0x5d, 0x00, 0x90, 0x39, 0x56, 0x00, 0x90,
        0x3c, 0x5d, 0x0c, 0x80, 0x30, 0x00, 0x4c, 0x80, 0x35, 0x00, 0x04, 0x80,
        0x3c, 0x00, 0x04, 0x80, 0x39, 0x00, 0x00, 0x90, 0x30, 0x5d, 0x60, 0x90,
        0x3c, 0x55, 0x00, 0x90, 0x39, 0x59, 0x00, 0x90, 0x35, 0x5c, 0x08, 0x80,
        0x30, 0x00, 0x58, 0x80, 0x35, 0x00, 0x00, 0x90, 0x30, 0x5e, 0x04, 0x80,
        0x29, 0x00, 0x00, 0x80, 0x3c, 0x00, 0x00, 0x80, 0x39, 0x00, 0x5c, 0x90,
        0x29, 0x64, 0x00, 0xb0, 0x40, 0x00, 0x00, 0x90, 0x39, 0x5b, 0x00, 0x90,
        0x3c, 0x5c, 0x00, 0x90, 0x35, 0x5c, 0x08, 0x80, 0x30, 0x00, 0x28, 0x80,
        0x35, 0x00, 0x00, 0xb0, 0x40, 0x7f, 0x24, 0x80, 0x39, 0x00, 0x04, 0x80,
        0x3c, 0x00, 0x08, 0x90, 0x35, 0x62, 0x60, 0x90, 0x3c, 0x60, 0x00, 0x90,
        0x39, 0x60, 0x04, 0x80, 0x35, 0x00, 0x58, 0x80, 0x39, 0x00, 0x04, 0x90,
        0x35, 0x64, 0x04, 0x80, 0x3c, 0x00, 0x04, 0x80, 0x29, 0x00, 0x58, 0x90,
        0x3c, 0x5f, 0x00, 0xb0, 0x40, 0x00, 0x00, 0x90, 0x28, 0x61, 0x00, 0x90,
        0x39, 0x62, 0x04, 0x80, 0x35, 0x00, 0x2c, 0xb0, 0x40, 0x7f, 0x30, 0x80,
        0x39, 0x00, 0x00, 0x90, 0x34, 0x64, 0x08, 0x80, 0x3c, 0x00, 0x58, 0x80,
        0x34, 0x00, 0x00, 0x90, 0x3c, 0x5d, 0x00, 0x90, 0x39, 0x5f, 0x5c, 0x80,
        0x39, 0x00, 0x00, 0x80, 0x3c, 0x00, 0x04, 0x90, 0x34, 0x63, 0x04, 0x80,
        0x28, 0x00, 0x58, 0x80, 0x34, 0x00, 0x04, 0xb0, 0x40, 0x00, 0x00, 0x90,
        0x35, 0x64, 0x00, 0x90, 0x26, 0x5e, 0x00, 0x90, 0x39, 0x5d, 0x00, 0x90,
        0x3c, 0x68, 0x60, 0x80, 0x35, 0x00, 0x00, 0xb0, 0x40, 0x7f, 0x00, 0x90,
        0x32, 0x5a, 0x04, 0x80, 0x39, 0x00, 0x00, 0x80, 0x3c, 0x00, 0x5c, 0x80,
        0x32, 0x00, 0x00, 0x90, 0x35, 0x5e, 0x00, 0x90, 0x39, 0x5d, 0x00, 0x90,
        0x3c, 0x61, 0x58, 0x80, 0x35, 0x00, 0x04, 0x80, 0x26, 0x00, 0x00, 0x80,
        0x3c, 0x00, 0x04, 0x80, 0x39, 0x00, 0x00, 0x90, 0x32, 0x5d, 0x58, 0x80,
        0x32, 0x00, 0x08, 0x90, 0x39, 0x62, 0x00, 0x90, 0x24, 0x6a, 0x00, 0x90,
        0x35, 0x60, 0x00, 0xb0, 0x40, 0x00, 0x60, 0xb0, 0x40, 0x7f, 0x00, 0x90,
        0x30, 0x5e, 0x04, 0x80, 0x35, 0x00, 0x08, 0x80, 0x39, 0x00, 0x54, 0x90,
        0x35, 0x5d, 0x00, 0x90, 0x39, 0x5d, 0x00, 0x90, 0x3c, 0x5c, 0x04, 0x80,
        0x30, 0x00, 0x50, 0x80, 0x24, 0x00, 0x00, 0x80, 0x35, 0x00, 0x04, 0x80,
        0x39, 0x00, 0x08, 0x80, 0x3c, 0x00, 0x00, 0x90, 0x30, 0x5a, 0x60, 0x90,
        0x3e, 0x63, 0x00, 0x90, 0x3b, 0x58, 0x00, 0xb0, 0x40, 0x00, 0x00, 0x90,
        0x2b, 0x60, 0x04, 0x80, 0x30, 0x00, 0x5c, 0x80, 0x3e, 0x00, 0x00, 0xb0,
        0x40, 0x7f, 0x00, 0x90, 0x37, 0x62, 0x04, 0x80, 0x3b, 0x00, 0x5c, 0x80,
        0x37, 0x00, 0x00, 0x90, 0x3e, 0x5e, 0x00, 0x90, 0x3b, 0x57, 0x60, 0x80,
        0x3b, 0x00, 0x00, 0x90, 0x37, 0x62, 0x04, 0x80, 0x3e, 0x00, 0x5c, 0x80,
        0x37, 0x00, 0x00, 0x90, 0x3b, 0x60, 0x00, 0x90, 0x3e, 0x5e, 0x60, 0x90,
        0x37, 0x58, 0x04, 0x80, 0x3b, 0x00, 0x04, 0x80, 0x3e, 0x00, 0x58, 0x90,
        0x3c, 0x5e, 0x00, 0x90, 0x40, 0x62, 0x00, 0xb0, 0x40, 0x00, 0x08, 0x80,
        0x37, 0x00, 0x28, 0xb0, 0x40, 0x7f, 0x28, 0x80, 0x40, 0x00, 0x04, 0x80,
        0x3c, 0x00, 0x04, 0x90, 0x37, 0x60, 0x10, 0x80, 0x2b, 0x00, 0x08, 0x80,
        0x37, 0x00, 0x48, 0x90, 0x32, 0x62, 0x00, 0x90, 0x41, 0x61, 0x00, 0x90,
        0x37, 0x5d, 0x00, 0x90, 0x2b, 0x5f, 0x00, 0x90, 0x3e, 0x62, 0x30, 0xb0,
        0x40, 0x00, 0x81, 0x40, 0xb0, 0x40, 0x7f, 0x54, 0x80, 0x37, 0x00, 0x08,
        0x80, 0x3e, 0x00, 0x04, 0x80, 0x41, 0x00, 0x54, 0x80, 0x32, 0x00, 0x08,
        0x80, 0x2b, 0x00, 0x81, 0x74, 0xb0, 0x40, 0x00, 0x60, 0x90, 0x37, 0x63,
        0x00, 0xb0, 0x40, 0x7f, 0x00, 0x90, 0x34, 0x62, 0x00, 0x90, 0x24, 0x68,
        0x60, 0x80, 0x34, 0x00, 0x00, 0x80, 0x37, 0x00, 0x00, 0x90, 0x30, 0x5d,
        0x60, 0x90, 0x34, 0x60, 0x00, 0x90, 0x37, 0x63, 0x0c, 0x80, 0x30, 0x00,
        0x54, 0x80, 0x34, 0x00, 0x00, 0x90, 0x30, 0x63, 0x04, 0x80, 0x37, 0x00,
        0x5c, 0x90, 0x37, 0x60, 0x00, 0x90, 0x34, 0x5d, 0x04, 0x80, 0x30, 0x00,
        0x58, 0x80, 0x37, 0x00, 0x00, 0x80, 0x34, 0x00, 0x04, 0x90, 0x30, 0x5f,
        0x60, 0x90, 0x34, 0x59, 0x00, 0x90, 0x37, 0x5a, 0x00, 0x90, 0x3b, 0x5b,
        0x08, 0x80, 0x30, 0x00, 0x50, 0x80, 0x34, 0x00, 0x00, 0x80, 0x37, 0x00,
        0x04, 0x80, 0x3b, 0x00, 0x04, 0x80, 0x24, 0x00, 0x00, 0x90, 0x30, 0x5e,
        0x60, 0xb0, 0x40, 0x00, 0x00, 0x90, 0x35, 0x5d, 0x00, 0x90, 0x29, 0x61,
        0x00, 0x90, 0x39, 0x58, 0x00, 0x90, 0x3c, 0x5d, 0x04, 0x80, 0x30, 0x00,
        0x58, 0x80, 0x35, 0x00, 0x04, 0x80, 0x39, 0x00, 0x00, 0x80, 0x3c, 0x00,
        0x00, 0x90, 0x30, 0x5f, 0x00, 0xb0, 0x40, 0x7f, 0x60, 0x90, 0x35, 0x5d,
        0x00, 0x90, 0x39, 0x5a, 0x00, 0x90, 0x3c, 0x5f, 0x04, 0x80, 0x30, 0x00,
        0x54, 0x80, 0x3c, 0x00, 0x04, 0x80, 0x35, 0x00, 0x00, 0x80, 0x39, 0x00,
        0x04, 0x90, 0x30, 0x5d, 0x60, 0x90, 0x3c, 0x5f, 0x00, 0x90, 0x35, 0x5d,
        0x00, 0x90, 0x39, 0x59, 0x08, 0x80, 0x30, 0x00, 0x54, 0x80, 0x35, 0x00,
        0x04, 0x80, 0x39, 0x00, 0x00, 0x90, 0x30, 0x5c, 0x08, 0x80, 0x3c, 0x00,
        0x58, 0x90, 0x35, 0x67, 0x00, 0x90, 0x39, 0x6a, 0x30, 0x90, 0x3a, 0x5e,
        0x08, 0x80, 0x39, 0x00, 0x0c, 0x80, 0x35, 0x00, 0x04, 0x80, 0x29, 0x00,
        0x10, 0x80, 0x30, 0x00, 0x08, 0x90, 0x3b, 0x64, 0x08, 0x80, 0x3a, 0x00,
        0x28, 0xb0, 0x40, 0x00, 0x30, 0x90, 0x37, 0x64, 0x00, 0x90, 0x24, 0x64,
        0x00, 0x90, 0x34, 0x57, 0x00, 0x90, 0x3e, 0x6a, 0x04, 0x80, 0x3b, 0x00,
        0x2c, 0xb0, 0x40, 0x7f, 0x2c, 0x80, 0x37, 0x00, 0x04, 0x90, 0x30, 0x5f,
        0x08, 0x80, 0x34, 0x00, 0x00, 0x80, 0x3e, 0x00, 0x58, 0x90, 0x37, 0x60,
        0x00, 0x90, 0x34, 0x60, 0x08, 0x80, 0x30, 0x00, 0x4c, 0x80, 0x37, 0x00,
        0x00, 0x80, 0x34, 0x00, 0x0c, 0x90, 0x30, 0x60, 0x60, 0x90, 0x34, 0x5f,
        0x00, 0x90, 0x37, 0x62, 0x04, 0x80, 0x30, 0x00, 0x58, 0x80, 0x37, 0x00,
        0x04, 0x80, 0x34, 0x00, 0x00, 0x90, 0x30, 0x61, 0x60, 0x90, 0x3b, 0x5b,
        0x00, 0x90, 0x34, 0x59, 0x00, 0x90, 0x37, 0x59, 0x04, 0x80, 0x30, 0x00,
        0x58, 0x80, 0x24, 0x00, 0x00, 0x80, 0x34, 0x00, 0x04, 0x80, 0x37, 0x00,
        0x00, 0x90, 0x30, 0x5d, 0x04, 0x80, 0x3b, 0x00, 0x5c, 0x90, 0x29, 0x65,
        0x00, 0x90, 0x3c, 0x58, 0x00, 0x90, 0x39, 0x53, 0x00, 0x90, 0x35, 0x5b,
        0x00, 0xb0, 0x40, 0x00, 0x04, 0x80, 0x30, 0x00, 0x5c, 0xb0, 0x40, 0x7f,
        0x00, 0x90, 0x30, 0x62, 0x04, 0x80, 0x3c, 0x00, 0x00, 0x80, 0x39, 0x00,
        0x00, 0x80, 0x35, 0x00, 0x5c, 0x80, 0x30, 0x00, 0x00, 0x90, 0x35, 0x59,
        0x00, 0x90, 0x3c, 0x58, 0x00, 0x90, 0x39, 0x57, 0x5c, 0x80, 0x35, 0x00,
        0x04, 0x80, 0x3c, 0x00, 0x00, 0x80, 0x39, 0x00, 0x00, 0x90, 0x30, 0x63,
        0x60, 0x90, 0x35, 0x59, 0x00, 0x90, 0x39, 0x55, 0x00, 0x90, 0x3c, 0x5c,
        0x08, 0x80, 0x30, 0x00, 0x54, 0x80, 0x35, 0x00, 0x04, 0x90, 0x30, 0x5d,
        0x04, 0x80, 0x3c, 0x00, 0x04, 0x80, 0x39, 0x00, 0x58, 0x90, 0x39, 0x5f,
        0x00, 0x90, 0x35, 0x68, 0x30, 0x90, 0x3a, 0x59, 0x08, 0x80, 0x39, 0x00,
        0x04, 0x80, 0x29, 0x00, 0x00, 0x80, 0x35, 0x00, 0x10, 0x80, 0x30, 0x00,
        0x14, 0x90, 0x3b, 0x63, 0x10, 0x80, 0x3a, 0x00, 0x20, 0xb0, 0x40, 0x00,
        0x30, 0x90, 0x37, 0x5d, 0x00, 0x90, 0x34, 0x53, 0x00, 0x90, 0x3e, 0x62,
        0x00, 0x90, 0x24, 0x68, 0x08, 0x80, 0x3b, 0x00, 0x28, 0xb0, 0x40, 0x7f,
        0x28, 0x80, 0x37, 0x00, 0x08, 0x80, 0x34, 0x00, 0x00, 0x90, 0x30, 0x64,
        0x08, 0x80, 0x3e, 0x00, 0x58, 0x80, 0x30, 0x00, 0x00, 0x90, 0x37, 0x5d,
        0x00, 0x90, 0x34, 0x5f, 0x5c, 0x80, 0x34, 0x00, 0x00, 0x80, 0x37, 0x00,
        0x04, 0x90, 0x30, 0x5b, 0x60, 0x90, 0x37, 0x62, 0x00, 0x90, 0x34, 0x62,
        0x04, 0x80, 0x30, 0x00, 0x5c, 0x80, 0x37, 0x00, 0x00, 0x90, 0x30, 0x5f,
        0x04, 0x80, 0x34, 0x00, 0x5c, 0x90, 0x37, 0x5a, 0x00, 0x90, 0x3b, 0x5a,
        0x00, 0x90, 0x34, 0x5a, 0x08, 0x80, 0x30, 0x00, 0x58, 0x80, 0x24, 0x00,
        0x00, 0x80, 0x37, 0x00, 0x00, 0x80, 0x34, 0x00, 0x00, 0x90, 0x30, 0x5c,
        0x04, 0x80, 0x3b, 0x00, 0x5c, 0xb0, 0x40, 0x00, 0x00, 0x90, 0x3c, 0x68,
        0x00, 0x90, 0x39, 0x57, 0x00, 0x90, 0x29, 0x5f, 0x00, 0x90, 0x35, 0x64,
        0x04, 0x80, 0x30, 0x00, 0x58, 0x80, 0x35, 0x00, 0x04, 0xb0, 0x40, 0x7f,
        0x00, 0x90, 0x30, 0x5a, 0x04, 0x80, 0x3c, 0x00, 0x00, 0x80, 0x39, 0x00,
        0x54, 0x80, 0x30, 0x00, 0x08, 0x90, 0x3c, 0x5d, 0x00, 0x90, 0x39, 0x58,
        0x00, 0x90, 0x35, 0x59, 0x58, 0x80, 0x35, 0x00, 0x00, 0x80, 0x39, 0x00,
        0x04, 0x80, 0x3c, 0x00, 0x04, 0x90, 0x30, 0x66, 0x60, 0x90, 0x35, 0x5b,
        0x00, 0x90, 0x3c, 0x5f, 0x00, 0x90, 0x39, 0x5b, 0x04, 0x80, 0x30, 0x00,
        0x50, 0x80, 0x35, 0x00, 0x08, 0x80, 0x3c, 0x00, 0x04, 0x90, 0x30, 0x5d,
        0x04, 0x80, 0x39, 0x00, 0x5c, 0x90, 0x35, 0x66, 0x00, 0x90, 0x39, 0x62,
        0x20, 0x80, 0x29, 0x00, 0x10, 0x80, 0x30, 0x00, 0x00, 0x90, 0x3a, 0x62,
        0x0c, 0x80, 0x35, 0x00, 0x00, 0x80, 0x39, 0x00, 0x24, 0xb0, 0x40, 0x00,
        0x00, 0x90, 0x3b, 0x64, 0x10, 0x80, 0x3a, 0x00, 0x50, 0x90, 0x37, 0x5f,
        0x00, 0x90, 0x3e, 0x68, 0x00, 0x90, 0x24, 0x68, 0x00, 0x90, 0x34, 0x56,
        0x08, 0x80, 0x3b, 0x00, 0x28, 0xb0, 0x40, 0x7f, 0x28, 0x80, 0x37, 0x00,
        0x08, 0x80, 0x3e, 0x00, 0x00, 0x80, 0x34, 0x00, 0x00, 0x90, 0x30, 0x60,
        0x60, 0x90, 0x34, 0x5f, 0x00, 0x90, 0x37, 0x5e, 0x08, 0x80, 0x30, 0x00,
        0x54, 0x80, 0x37, 0x00, 0x04, 0x80, 0x34, 0x00, 0x00, 0x90, 0x30, 0x64,
        0x60, 0x90, 0x34, 0x5f, 0x00, 0x90, 0x37, 0x5e, 0x04, 0x80, 0x30, 0x00,
        0x5c, 0x90, 0x30, 0x5f, 0x08, 0x80, 0x34, 0x00, 0x00, 0x80, 0x37, 0x00,
        0x58, 0x90, 0x34, 0x5b, 0x00, 0x90, 0x37, 0x57, 0x00, 0x90, 0x3b, 0x58,
        0x04, 0x80, 0x30, 0x00, 0x5c, 0x80, 0x24, 0x00, 0x00, 0x80, 0x34, 0x00,
        0x00, 0x80, 0x37, 0x00, 0x00, 0x90, 0x30, 0x5c, 0x08, 0x80, 0x3b, 0x00,
        0x58, 0x90, 0x39, 0x57, 0x00, 0x90, 0x35, 0x5d, 0x00, 0xb0, 0x40, 0x00,
        0x00, 0x90, 0x3c, 0x59, 0x00, 0x90, 0x29, 0x65, 0x04, 0x80, 0x30, 0x00,
        0x5c, 0x80, 0x35, 0x00, 0x00, 0xb0, 0x40, 0x7f, 0x00, 0x90, 0x30, 0x62,
        0x04, 0x80, 0x39, 0x00, 0x00, 0x80, 0x3c, 0x00, 0x5c, 0x80, 0x30, 0x00,
        0x00, 0x90, 0x35, 0x5c, 0x00, 0x90, 0x39, 0x57, 0x00, 0x90, 0x3c, 0x58,
        0x60, 0x90, 0x30, 0x5f, 0x04, 0x80, 0x3c, 0x00, 0x00, 0x80, 0x39, 0x00,
        0x00, 0x80, 0x35, 0x00, 0x5c, 0x90, 0x39, 0x57, 0x00, 0x90, 0x3c, 0x5a,
        0x00, 0x90, 0x35, 0x5d, 0x04, 0x80, 0x30, 0x00, 0x5c, 0x80, 0x39, 0x00,
        0x00, 0x80, 0x3c, 0x00, 0x00, 0x80, 0x35, 0x00, 0x00, 0x90, 0x30, 0x60,
        0x60, 0x90, 0x35, 0x5d, 0x00, 0x90, 0x39, 0x56, 0x00, 0x90, 0x3c, 0x5b,
        0x0c, 0x80, 0x30, 0x00, 0x54, 0x80, 0x35, 0x00, 0x00, 0x90, 0x30, 0x60,
        0x08, 0x80, 0x39, 0x00, 0x00, 0x80, 0x3c, 0x00, 0x04, 0x80, 0x29, 0x00,
        0x54, 0x90, 0x39, 0x59, 0x00, 0xb0, 0x40, 0x00, 0x00, 0x90, 0x29, 0x67,
        0x00, 0x90, 0x35, 0x55, 0x00, 0x90, 0x3c, 0x5f, 0x08, 0x80, 0x30, 0x00,
        0x08, 0x80, 0x35, 0x00, 0x20, 0xb0, 0x40, 0x7f, 0x14, 0x80, 0x39, 0x00,
        0x0c, 0x80, 0x3c, 0x00, 0x10, 0x90, 0x35, 0x5f, 0x58, 0x80, 0x35, 0x00,
        0x08, 0x90, 0x39, 0x5d, 0x00, 0x90, 0x3c, 0x63, 0x60, 0x80, 0x29, 0x00,
        0x00, 0x90, 0x35, 0x60, 0x04, 0x80, 0x39, 0x00, 0x04, 0x80, 0x3c, 0x00,
        0x58, 0x80, 0x35, 0x00, 0x00, 0x90, 0x28, 0x68, 0x00, 0x90, 0x39, 0x5f,
        0x00, 0xb0, 0x40, 0x00, 0x00, 0x90, 0x3c, 0x5e, 0x60, 0x90, 0x34, 0x5b,
        0x00, 0xb0, 0x40, 0x7f, 0x08, 0x80, 0x39, 0x00, 0x04, 0x80, 0x3c, 0x00,
        0x54, 0x90, 0x3c, 0x63, 0x00, 0x90, 0x39, 0x5a, 0x04, 0x80, 0x34, 0x00,
        0x5c, 0x80, 0x39, 0x00, 0x00, 0x90, 0x34, 0x62, 0x04, 0x80, 0x28, 0x00,
        0x00, 0x80, 0x3c, 0x00, 0x5c, 0x90, 0x35, 0x60, 0x00, 0xb0, 0x40, 0x00,
        0x00, 0x90, 0x26, 0x60, 0x00, 0x90, 0x3c, 0x61, 0x00, 0x90, 0x39, 0x5f,
        0x04, 0x80, 0x34, 0x00, 0x5c, 0x90, 0x32, 0x5d, 0x00, 0xb0, 0x40, 0x7f,
        0x04, 0x80, 0x35, 0x00, 0x00, 0x80, 0x3c, 0x00, 0x00, 0x80, 0x39, 0x00,
        0x5c, 0x90, 0x39, 0x5a, 0x00, 0x90, 0x35, 0x5c, 0x00, 0x90, 0x3c, 0x63,
        0x04, 0x80, 0x32, 0x00, 0x54, 0x80, 0x26, 0x00, 0x04, 0x80, 0x35, 0x00,
        0x04, 0x90, 0x32, 0x5c, 0x04, 0x80, 0x39, 0x00, 0x04, 0x80, 0x3c, 0x00,
        0x58, 0x80, 0x32, 0x00, 0x00, 0x90, 0x24, 0x63, 0x00, 0x90, 0x35, 0x5b,
        0x00, 0x90, 0x39, 0x5b, 0x00, 0x90, 0x3c, 0x62, 0x00, 0xb0, 0x40, 0x00,
        0x60, 0xb0, 0x40, 0x7f, 0x00, 0x90, 0x30, 0x64, 0x08, 0x80, 0x3c, 0x00,
        0x00, 0x80, 0x39, 0x00, 0x00, 0x80, 0x35, 0x00, 0x58, 0x90, 0x39, 0x5e,
        0x00, 0x90, 0x35, 0x5c, 0x00, 0x90, 0x3c, 0x5f, 0x04, 0x80, 0x30, 0x00,
        0x5c, 0x90, 0x30, 0x5e, 0x04, 0x80, 0x39, 0x00, 0x00, 0x80, 0x35, 0x00,
        0x04, 0x80, 0x24, 0x00, 0x00, 0x80, 0x3c, 0x00, 0x58, 0x80, 0x30, 0x00,
        0x00, 0xb0, 0x40, 0x00, 0x00, 0x90, 0x3e, 0x5f, 0x00, 0x90, 0x3b, 0x5c,
        0x00, 0x90, 0x2b, 0x5b, 0x60, 0x80, 0x3b, 0x00, 0x00, 0x80, 0x3e, 0x00,
        0x00, 0x90, 0x37, 0x5f, 0x00, 0xb0, 0x40, 0x7f, 0x60, 0x80, 0x37, 0x00,
        0x00, 0x90, 0x3e, 0x61, 0x00, 0x90, 0x3b, 0x5c, 0x60, 0x80, 0x3b, 0x00,
        0x00, 0x90, 0x37, 0x60, 0x0c, 0x80, 0x3e, 0x00, 0x54, 0x90, 0x3e, 0x63,
        0x00, 0x90, 0x3b, 0x62, 0x04, 0x80, 0x37, 0x00, 0x5c, 0x90, 0x37, 0x5d,
        0x04, 0x80, 0x3e, 0x00, 0x08, 0x80, 0x3b, 0x00, 0x54, 0x90, 0x3c, 0x62,
        0x00, 0x90, 0x40, 0x62, 0x00, 0xb0, 0x40, 0x00, 0x08, 0x80, 0x37, 0x00,
        0x28, 0xb0, 0x40, 0x7f, 0x20, 0x80, 0x40, 0x00, 0x08, 0x80, 0x3c, 0x00,
        0x08, 0x90, 0x37, 0x58, 0x10, 0x80, 0x2b, 0x00, 0x08, 0x80, 0x37, 0x00,
        0x48, 0x90, 0x37, 0x60, 0x00, 0x90, 0x3e, 0x67, 0x00, 0x90, 0x2b, 0x60,
        0x00, 0x90, 0x41, 0x64, 0x00, 0x90, 0x32, 0x64, 0x00, 0xb0, 0x40, 0x00,
        0x30, 0x80, 0x37, 0x00, 0x00, 0xb0, 0x40, 0x7f, 0x04, 0x80, 0x3e, 0x00,
        0x08, 0x80, 0x41, 0x00, 0x82, 0x2c, 0x80, 0x32, 0x00, 0x10, 0x80, 0x2b,
        0x00, 0x82, 0x58, 0xb0, 0x40, 0x00, 0x30, 0x90, 0x29, 0x6b, 0x00, 0x90,
        0x39, 0x5f, 0x00, 0x90, 0x3c, 0x60, 0x00, 0xb0, 0x40, 0x7f, 0x00, 0x90,
        0x35, 0x6a, 0x2c, 0x80, 0x35, 0x00, 0x00, 0x80, 0x3c, 0x00, 0x00, 0x80,
        0x39, 0x00, 0x0c, 0x80, 0x29, 0x00, 0x28, 0x90, 0x35, 0x62, 0x28, 0x80,
        0x35, 0x00, 0x38, 0x90, 0x39, 0x64, 0x00, 0x90, 0x3c, 0x63, 0x28, 0x80,
        0x39, 0x00, 0x04, 0x80, 0x3c, 0x00, 0x34, 0x90, 0x35, 0x68, 0x1c, 0x80,
        0x35, 0x00, 0x44, 0x90, 0x3b, 0x68, 0x00, 0x90, 0x37, 0x60, 0x00, 0xb0,
        0x40, 0x00, 0x00, 0x90, 0x3e, 0x64, 0x00, 0x90, 0x2b, 0x62, 0x2c, 0x80,
        0x3e, 0x00, 0x04, 0xb0, 0x40, 0x7f, 0x0c, 0x80, 0x3b, 0x00, 0x04, 0x80,
        0x37, 0x00, 0x00, 0x80, 0x2b, 0x00, 0x20, 0x90, 0x37, 0x64, 0x24, 0x80,
        0x37, 0x00, 0x3c, 0x90, 0x3b, 0x62, 0x00, 0x90, 0x3e, 0x66, 0x28, 0x80,
        0x3e, 0x00, 0x00, 0x80, 0x3b, 0x00, 0x38, 0x90, 0x37, 0x5c, 0x14, 0x80,
        0x37, 0x00, 0x4c, 0x90, 0x2b, 0x5e, 0x00, 0xb0, 0x40, 0x00, 0x00, 0x90,
        0x24, 0x56, 0x00, 0x90, 0x37, 0x61, 0x00, 0x90, 0x34, 0x64, 0x30, 0xb0,
        0x40, 0x7f, 0x20, 0x80, 0x37, 0x00, 0x0c, 0x80, 0x34, 0x00, 0x04, 0x90,
        0x30, 0x64, 0x2c, 0x80, 0x30, 0x00, 0x34, 0x90, 0x3b, 0x6b, 0x00, 0x90,
        0x37, 0x64, 0x24, 0x80, 0x37, 0x00, 0x00, 0x80, 0x24, 0x00, 0x04, 0x80,
        0x2b, 0x00, 0x00, 0x80, 0x3b, 0x00, 0x38, 0x90, 0x3c, 0x62, 0x00, 0x90,
        0x30, 0x64, 0x18, 0x80, 0x30, 0x00, 0x00, 0x80, 0x3c, 0x00, 0x48, 0x90,
        0x40, 0x6a, 0x00, 0x90, 0x28, 0x5e, 0x00, 0x90, 0x2f, 0x61, 0x00, 0x90,
        0x38, 0x5d, 0x00, 0xb0, 0x40, 0x00, 0x30, 0xb0, 0x40, 0x7f, 0x2c, 0x80,
        0x40, 0x00, 0x04, 0x90, 0x34, 0x62, 0x04, 0x80, 0x38, 0x00, 0x20, 0x80,
        0x34, 0x00, 0x3c, 0x90, 0x38, 0x5b, 0x00, 0x90, 0x3e, 0x6c, 0x20, 0x80,
        0x28, 0x00, 0x04, 0x80, 0x38, 0x00, 0x04, 0x80, 0x2f, 0x00, 0x08, 0x80,
        0x3e, 0x00, 0x30, 0x90, 0x34, 0x62, 0x18, 0x80, 0x34, 0x00, 0x48, 0x90,
        0x29, 0x67, 0x00, 0xb0, 0x40, 0x00, 0x00, 0x90, 0x3c, 0x67, 0x00, 0x90,
        0x39, 0x69, 0x00, 0x90, 0x35, 0x68, 0x2c, 0x80, 0x3c, 0x00, 0x04, 0xb0,
        0x40, 0x7f, 0x04, 0x80, 0x39, 0x00, 0x00, 0x80, 0x35, 0x00, 0x04, 0x80,
        0x29, 0x00, 0x28, 0x90, 0x35, 0x68, 0x2c, 0x80, 0x35, 0x00, 0x34, 0x90,
        0x39, 0x62, 0x00, 0x90, 0x3c, 0x6e, 0x20, 0x80, 0x3c, 0x00, 0x08, 0x80,
        0x39, 0x00, 0x38, 0x90, 0x35, 0x69, 0x18, 0x80, 0x35, 0x00, 0x48, 0x90,
        0x3b, 0x64, 0x00, 0x90, 0x37, 0x63, 0x00, 0xb0, 0x40, 0x00, 0x00, 0x90,
        0x2b, 0x68, 0x00, 0x90, 0x3e, 0x60, 0x24, 0x80, 0x3e, 0x00, 0x0c, 0x80,
        0x3b, 0x00, 0x00, 0xb0, 0x40, 0x7f, 0x08, 0x80, 0x37, 0x00, 0x04, 0x80,
        0x2b, 0x00, 0x24, 0x90, 0x37, 0x60, 0x28, 0x80, 0x37, 0x00, 0x38, 0x90,
        0x3e, 0x61, 0x00, 0x90, 0x3b, 0x60, 0x24, 0x80, 0x3b, 0x00, 0x00, 0x80,
        0x3e, 0x00, 0x3c, 0x90, 0x37, 0x63, 0x18, 0x80, 0x37, 0x00, 0x48, 0x90,
        0x37, 0x63, 0x00, 0x90, 0x34, 0x62, 0x00, 0x90, 0x24, 0x5d, 0x00, 0xb0,
        0x40, 0x00, 0x00, 0x90, 0x2b, 0x5f, 0x30, 0xb0, 0x40, 0x7f, 0x04, 0x80,
        0x37, 0x00, 0x08, 0x80, 0x34, 0x00, 0x24, 0x90, 0x30, 0x68, 0x18, 0x80,
        0x24, 0x00, 0x08, 0x80, 0x2b, 0x00, 0x04, 0x80, 0x30, 0x00, 0x3c, 0x90,
        0x3b, 0x63, 0x00, 0x90, 0x37, 0x60, 0x24, 0x80, 0x37, 0x00, 0x00, 0x80,
        0x3b, 0x00, 0x3c, 0x90, 0x30, 0x5d, 0x00, 0x90, 0x3c, 0x62, 0x1c, 0x80,
        0x3c, 0x00, 0x00, 0x80, 0x30, 0x00, 0x44, 0xb0, 0x40, 0x00, 0x00, 0x90,
        0x38, 0x5c, 0x00, 0x90, 0x2f, 0x67, 0x00, 0x90, 0x28, 0x61, 0x00, 0x90,
        0x40, 0x68, 0x30, 0xb0, 0x40, 0x7f, 0x04, 0x80, 0x40, 0x00, 0x0c, 0x80,
        0x38, 0x00, 0x20, 0x90, 0x34, 0x64, 0x28, 0x80, 0x28, 0x00, 0x08, 0x80,
        0x34, 0x00, 0x04, 0x80, 0x2f, 0x00, 0x2c, 0x90, 0x38, 0x5d, 0x00, 0x90,
        0x3e, 0x60, 0x24, 0x80, 0x38, 0x00, 0x04, 0x80, 0x3e, 0x00, 0x38, 0x90,
        0x34, 0x64, 0x20, 0x80, 0x34, 0x00, 0x40, 0x90, 0x3c, 0x68, 0x00, 0x90,
        0x39, 0x62, 0x00, 0x90, 0x35, 0x6c, 0x00, 0xb0, 0x40, 0x00, 0x00, 0x90,
        0x29, 0x6a, 0x30, 0x80, 0x3c, 0x00, 0x00, 0xb0, 0x40, 0x7f, 0x04, 0x80,
        0x39, 0x00, 0x00, 0x80, 0x35, 0x00, 0x10, 0x80, 0x29, 0x00, 0x1c, 0x90,
        0x35, 0x64, 0x2c, 0x80, 0x35, 0x00, 0x34, 0x90, 0x3c, 0x68, 0x00, 0x90,
        0x39, 0x64, 0x28, 0x80, 0x39, 0x00, 0x00, 0x80, 0x3c, 0x00, 0x38, 0x90,
        0x35, 0x62, 0x1c, 0x80, 0x35, 0x00, 0x44, 0x90, 0x37, 0x60, 0x00, 0x90,
        0x2b, 0x5f, 0x00, 0xb0, 0x40, 0x00, 0x00, 0x90, 0x3b, 0x62, 0x00, 0x90,
        0x3e, 0x68, 0x28, 0x80, 0x3e, 0x00, 0x08, 0xb0, 0x40, 0x7f, 0x0c, 0x80,
        0x3b, 0x00, 0x04, 0x80, 0x2b, 0x00, 0x00, 0x80, 0x37, 0x00, 0x20, 0x90,
        0x37, 0x60, 0x2c, 0x80, 0x37, 0x00, 0x34, 0x90, 0x3e, 0x64, 0x00, 0x90,
        0x3b, 0x64, 0x24, 0x80, 0x3e, 0x00, 0x04, 0x80, 0x3b, 0x00, 0x38, 0x90,
        0x37, 0x62, 0x1c, 0x80, 0x37, 0x00, 0x44, 0x90, 0x2b, 0x6b, 0x00, 0xb0,
        0x40, 0x00, 0x00, 0x90, 0x34, 0x62, 0x00, 0x90, 0x24, 0x65, 0x00, 0x90,
        0x37, 0x64, 0x2c, 0x80, 0x37, 0x00, 0x04, 0x80, 0x34, 0x00, 0x00, 0xb0,
        0x40, 0x7f, 0x14, 0x80, 0x2b, 0x00, 0x00, 0x80, 0x24, 0x00, 0x1c, 0x90,
        0x30, 0x60, 0x20, 0x80, 0x30, 0x00, 0x40, 0x90, 0x3b, 0x6b, 0x00, 0x90,
        0x37, 0x62, 0x24, 0x80, 0x3b, 0x00, 0x04, 0x80, 0x37, 0x00, 0x38, 0x90,
        0x3c, 0x64, 0x00, 0x90, 0x30, 0x5c, 0x18, 0x80, 0x30, 0x00, 0x0c, 0x80,
        0x3c, 0x00, 0x3c, 0x90, 0x38, 0x56, 0x00, 0x90, 0x28, 0x64, 0x00, 0x90,
        0x2f, 0x61, 0x00, 0x90, 0x40, 0x62, 0x00, 0xb0, 0x40, 0x00, 0x30, 0xb0,
        0x40, 0x7f, 0x04, 0x80, 0x40, 0x00, 0x14, 0x80, 0x38, 0x00, 0x04, 0x80,
        0x28, 0x00, 0x00, 0x80, 0x2f, 0x00, 0x14, 0x90, 0x34, 0x5f, 0x28, 0x80,
        0x34, 0x00, 0x38, 0x90, 0x38, 0x59, 0x00, 0x90, 0x3e, 0x60, 0x24, 0x80,
        0x3e, 0x00, 0x0c, 0x80, 0x38, 0x00, 0x30, 0x90, 0x34, 0x63, 0x24, 0x80,
        0x34, 0x00, 0x3c, 0x90, 0x30, 0x68, 0x00, 0x90, 0x39, 0x61, 0x00, 0x90,
        0x3c, 0x6b, 0x00, 0x90, 0x29, 0x6a, 0x00, 0xb0, 0x40, 0x00, 0x30, 0x80,
        0x3c, 0x00, 0x00, 0xb0, 0x40, 0x7f, 0x04, 0x80, 0x29, 0x00, 0x04, 0x80,
        0x39, 0x00, 0x0c, 0x80, 0x30, 0x00, 0x1c, 0x90, 0x35, 0x62, 0x2c, 0x80,
        0x35, 0x00, 0x34, 0x90, 0x39, 0x62, 0x00, 0x90, 0x3c, 0x63, 0x24, 0x80,
        0x3c, 0x00, 0x04, 0x80, 0x39, 0x00, 0x38, 0x90, 0x35, 0x62, 0x20, 0x80,
        0x35, 0x00, 0x40, 0x90, 0x3b, 0x64, 0x00, 0xb0, 0x40, 0x00, 0x00, 0x90,
        0x32, 0x64, 0x00, 0x90, 0x2b, 0x64, 0x00, 0x90, 0x3e, 0x5d, 0x28, 0x80,
        0x3e, 0x00, 0x08, 0xb0, 0x40, 0x7f, 0x08, 0x80, 0x3b, 0x00, 0x04, 0x80,
        0x32, 0x00, 0x00, 0x80, 0x2b, 0x00, 0x24, 0x90, 0x37, 0x5c, 0x20, 0x80,
        0x37, 0x00, 0x40, 0x90, 0x3b, 0x62, 0x00, 0x90, 0x3e, 0x60, 0x20, 0x80,
        0x3b, 0x00, 0x04, 0x80, 0x3e, 0x00, 0x3c, 0x90, 0x37, 0x5d, 0x18, 0x80,
        0x37, 0x00, 0x48, 0x90, 0x34, 0x5f, 0x00, 0x90, 0x37, 0x5f, 0x00, 0x90,
        0x2b, 0x62, 0x00, 0xb0, 0x40, 0x00, 0x00, 0x90, 0x24, 0x60, 0x30, 0xb0,
        0x40, 0x7f, 0x20, 0x80, 0x24, 0x00, 0x10, 0x80, 0x2b, 0x00, 0x00, 0x90,
        0x30, 0x5b, 0x60, 0x80, 0x30, 0x00, 0x00, 0x90, 0x1f, 0x68, 0x00, 0xb0,
        0x40, 0x00, 0x60, 0x90, 0x30, 0x61, 0x08, 0x80, 0x1f, 0x00, 0x58, 0x80,
        0x30, 0x00, 0x00, 0x90, 0x21, 0x5f, 0x60, 0x90, 0x30, 0x5d, 0x10, 0x80,
        0x21, 0x00, 0x50, 0x90, 0x23, 0x5c, 0x04, 0x80, 0x30, 0x00, 0x5c, 0x90,
        0x30, 0x5a, 0x0c, 0x80, 0x23, 0x00, 0x3c, 0x80, 0x37, 0x00, 0x00, 0x80,
        0x34, 0x00, 0x10, 0x80, 0x30, 0x00, 0x08, 0x90, 0x37, 0x63, 0x00, 0x90,
        0x34, 0x62, 0x00, 0x90, 0x24, 0x68, 0x00, 0xb0, 0x40, 0x7f, 0x60, 0x80,
        0x34, 0x00, 0x00, 0x80, 0x37, 0x00, 0x00, 0x90, 0x30, 0x5d, 0x60, 0x90,
        0x34, 0x60, 0x00, 0x90, 0x37, 0x63, 0x0c, 0x80, 0x30, 0x00, 0x54, 0x80,
        0x34, 0x00, 0x00, 0x90, 0x30, 0x63, 0x04, 0x80, 0x37, 0x00, 0x5c, 0x90,
        0x37, 0x60, 0x00, 0x90, 0x34, 0x5d, 0x04, 0x80, 0x30, 0x00, 0x58, 0x80,
        0x37, 0x00, 0x00, 0x80, 0x34, 0x00, 0x04, 0x90, 0x30, 0x5f, 0x60, 0x90,
        0x37, 0x5a, 0x00, 0x90, 0x34, 0x59, 0x00, 0x90, 0x3b, 0x5b, 0x08, 0x80,
        0x30, 0x00, 0x50, 0x80, 0x37, 0x00, 0x00, 0x80, 0x34, 0x00, 0x04, 0x80,
        0x3b, 0x00, 0x04, 0x80, 0x24, 0x00, 0x00, 0x90, 0x30, 0x5e, 0x60, 0x90,
        0x3c, 0x5d, 0x00, 0x90, 0x29, 0x61, 0x00, 0x90, 0x39, 0x58, 0x00, 0x90,
        0x35, 0x5d, 0x00, 0xb0, 0x40, 0x00, 0x04, 0x80, 0x30, 0x00, 0x58, 0x80,
        0x35, 0x00, 0x04, 0x80, 0x3c, 0x00, 0x00, 0x80, 0x39, 0x00, 0x00, 0xb0,
        0x40, 0x7f, 0x00, 0x90, 0x30, 0x5f, 0x60, 0x90, 0x35, 0x5d, 0x00, 0x90,
        0x39, 0x5a, 0x00, 0x90, 0x3c, 0x5f, 0x04, 0x80, 0x30, 0x00, 0x54, 0x80,
        0x3c, 0x00, 0x04, 0x80, 0x35, 0x00, 0x00, 0x80, 0x39, 0x00, 0x04, 0x90,
        0x30, 0x5d, 0x60, 0x90, 0x35, 0x5d, 0x00, 0x90, 0x39, 0x59, 0x00, 0x90,
        0x3c, 0x5f, 0x08, 0x80, 0x30, 0x00, 0x54, 0x80, 0x35, 0x00, 0x04, 0x80,
        0x39, 0x00, 0x00, 0x90, 0x30, 0x5c, 0x08, 0x80, 0x3c, 0x00, 0x58, 0x90,
        0x35, 0x67, 0x00, 0x90, 0x39, 0x6a, 0x30, 0x90, 0x3a, 0x5e, 0x08, 0x80,
        0x39, 0x00, 0x0c, 0x80, 0x35, 0x00, 0x04, 0x80, 0x29, 0x00, 0x10, 0x80,
        0x30, 0x00, 0x08, 0x90, 0x3b, 0x64, 0x08, 0x80, 0x3a, 0x00, 0x28, 0xb0,
        0x40, 0x00, 0x30, 0x90, 0x24, 0x64, 0x00, 0x90, 0x3e, 0x6a, 0x00, 0x90,
        0x34, 0x57, 0x00, 0x90, 0x37, 0x64, 0x04, 0x80, 0x3b, 0x00, 0x2c, 0xb0,
        0x40, 0x7f, 0x2c, 0x80, 0x37, 0x00, 0x04, 0x90, 0x30, 0x5f, 0x08, 0x80,
        0x3e, 0x00, 0x00, 0x80, 0x34, 0x00, 0x58, 0x90, 0x34, 0x60, 0x00, 0x90,
        0x37, 0x60, 0x08, 0x80, 0x30, 0x00, 0x4c, 0x80, 0x34, 0x00, 0x00, 0x80,
        0x37, 0x00, 0x0c, 0x90, 0x30, 0x60, 0x60, 0x90, 0x37, 0x62, 0x00, 0x90,
        0x34, 0x5f, 0x04, 0x80, 0x30, 0x00, 0x58, 0x80, 0x37, 0x00, 0x04, 0x80,
        0x34, 0x00, 0x00, 0x90, 0x30, 0x61, 0x60, 0x90, 0x3b, 0x5b, 0x00, 0x90,
        0x34, 0x59, 0x00, 0x90, 0x37, 0x59, 0x04, 0x80, 0x30, 0x00, 0x58, 0x80,
        0x24, 0x00, 0x00, 0x80, 0x34, 0x00, 0x04, 0x80, 0x37, 0x00, 0x00, 0x90,
        0x30, 0x5d, 0x04, 0x80, 0x3b, 0x00, 0x5c, 0x90, 0x39, 0x53, 0x00, 0x90,
        0x29, 0x65, 0x00, 0x90, 0x3c, 0x58, 0x00, 0xb0, 0x40, 0x00, 0x00, 0x90,
        0x35, 0x5b, 0x04, 0x80, 0x30, 0x00, 0x5c, 0x90, 0x30, 0x62, 0x00, 0xb0,
        0x40, 0x7f, 0x04, 0x80, 0x39, 0x00, 0x00, 0x80, 0x3c, 0x00, 0x00, 0x80,
        0x35, 0x00, 0x5c, 0x80, 0x30, 0x00, 0x00, 0x90, 0x35, 0x59, 0x00, 0x90,
        0x39, 0x57, 0x00, 0x90, 0x3c, 0x58, 0x5c, 0x80, 0x35, 0x00, 0x04, 0x80,
        0x39, 0x00, 0x00, 0x80, 0x3c, 0x00, 0x00, 0x90, 0x30, 0x63, 0x60, 0x90,
        0x39, 0x55, 0x00, 0x90, 0x3c, 0x5c, 0x00, 0x90, 0x35, 0x59, 0x08, 0x80,
        0x30, 0x00, 0x54, 0x80, 0x35, 0x00, 0x04, 0x90, 0x30, 0x5d, 0x04, 0x80,
        0x3c, 0x00, 0x04, 0x80, 0x39, 0x00, 0x58, 0x90, 0x39, 0x5f, 0x00, 0x90,
        0x35, 0x68, 0x30, 0x90, 0x3a, 0x59, 0x08, 0x80, 0x39, 0x00, 0x04, 0x80,
        0x29, 0x00, 0x00, 0x80, 0x35, 0x00, 0x10, 0x80, 0x30, 0x00, 0x14, 0x90,
        0x3b, 0x63, 0x10, 0x80, 0x3a, 0x00, 0x20, 0xb0, 0x40, 0x00, 0x30, 0x90,
        0x3e, 0x62, 0x00, 0x90, 0x24, 0x68, 0x00, 0x90, 0x37, 0x5d, 0x00, 0x90,
        0x34, 0x53, 0x08, 0x80, 0x3b, 0x00, 0x28, 0xb0, 0x40, 0x7f, 0x28, 0x80,
        0x37, 0x00, 0x08, 0x80, 0x34, 0x00, 0x00, 0x90, 0x30, 0x64, 0x08, 0x80,
        0x3e, 0x00, 0x58, 0x80, 0x30, 0x00, 0x00, 0x90, 0x34, 0x5f, 0x00, 0x90,
        0x37, 0x5d, 0x5c, 0x80, 0x37, 0x00, 0x00, 0x80, 0x34, 0x00, 0x04, 0x90,
        0x30, 0x5b, 0x60, 0x90, 0x37, 0x62, 0x00, 0x90, 0x34, 0x62, 0x04, 0x80,
        0x30, 0x00, 0x5c, 0x80, 0x37, 0x00, 0x00, 0x90, 0x30, 0x5f, 0x04, 0x80,
        0x34, 0x00, 0x5c, 0x90, 0x37, 0x5a, 0x00, 0x90, 0x3b, 0x5a, 0x00, 0x90,
        0x34, 0x5a, 0x08, 0x80, 0x30, 0x00, 0x58, 0x80, 0x24, 0x00, 0x00, 0x80,
        0x37, 0x00, 0x00, 0x80, 0x34, 0x00, 0x00, 0x90, 0x30, 0x5c, 0x04, 0x80,
        0x3b, 0x00, 0x5c, 0x90, 0x35, 0x64, 0x00, 0x90, 0x3c, 0x68, 0x00, 0x90,
        0x39, 0x57, 0x00, 0x90, 0x29, 0x5f, 0x00, 0xb0, 0x40, 0x00, 0x04, 0x80,
        0x30, 0x00, 0x58, 0x80, 0x35, 0x00, 0x04, 0xb0, 0x40, 0x7f, 0x00, 0x90,
        0x30, 0x5a, 0x04, 0x80, 0x3c, 0x00, 0x00, 0x80, 0x39, 0x00, 0x54, 0x80,
        0x30, 0x00, 0x08, 0x90, 0x35, 0x59, 0x00, 0x90, 0x39, 0x58, 0x00, 0x90,
        0x3c, 0x5d, 0x58, 0x80, 0x39, 0x00, 0x00, 0x80, 0x35, 0x00, 0x04, 0x80,
        0x3c, 0x00, 0x04, 0x90, 0x30, 0x66, 0x60, 0x90, 0x35, 0x5b, 0x00, 0x90,
        0x39, 0x5b, 0x00, 0x90, 0x3c, 0x5f, 0x04, 0x80, 0x30, 0x00, 0x50, 0x80,
        0x35, 0x00, 0x08, 0x80, 0x3c, 0x00, 0x04, 0x90, 0x30, 0x5d, 0x04, 0x80,
        0x39, 0x00, 0x5c, 0x90, 0x39, 0x62, 0x00, 0x90, 0x35, 0x66, 0x20, 0x80,
        0x29, 0x00, 0x10, 0x80, 0x30, 0x00, 0x00, 0x90, 0x3a, 0x62, 0x0c, 0x80,
        0x39, 0x00, 0x00, 0x80, 0x35, 0x00, 0x24, 0x90, 0x3b, 0x64, 0x00, 0xb0,
        0x40, 0x00, 0x10, 0x80, 0x3a, 0x00, 0x50, 0x90, 0x37, 0x5f, 0x00, 0x90,
        0x24, 0x68, 0x00, 0x90, 0x34, 0x56, 0x00, 0x90, 0x3e, 0x68, 0x08, 0x80,
        0x3b, 0x00, 0x28, 0xb0, 0x40, 0x7f, 0x28, 0x80, 0x37, 0x00, 0x08, 0x80,
        0x34, 0x00, 0x00, 0x80, 0x3e, 0x00, 0x00, 0x90, 0x30, 0x60, 0x60, 0x90,
        0x37, 0x5e, 0x00, 0x90, 0x34, 0x5f, 0x08, 0x80, 0x30, 0x00, 0x54, 0x80,
        0x37, 0x00, 0x04, 0x80, 0x34, 0x00, 0x00, 0x90, 0x30, 0x64, 0x60, 0x90,
        0x34, 0x5f, 0x00, 0x90, 0x37, 0x5e, 0x04, 0x80, 0x30, 0x00, 0x5c, 0x90,
        0x30, 0x5f, 0x08, 0x80, 0x34, 0x00, 0x00, 0x80, 0x37, 0x00, 0x58, 0x90,
        0x37, 0x57, 0x00, 0x90, 0x34, 0x5b, 0x00, 0x90, 0x3b, 0x58, 0x04, 0x80,
        0x30, 0x00, 0x5c, 0x80, 0x24, 0x00, 0x00, 0x80, 0x37, 0x00, 0x00, 0x80,
        0x34, 0x00, 0x00, 0x90, 0x30, 0x5c, 0x08, 0x80, 0x3b, 0x00, 0x58, 0x90,
        0x35, 0x5d, 0x00, 0x90, 0x3c, 0x59, 0x00, 0x90, 0x39, 0x57, 0x00, 0x90,
        0x29, 0x65, 0x00, 0xb0, 0x40, 0x00, 0x04, 0x80, 0x30, 0x00, 0x5c, 0x80,
        0x35, 0x00, 0x00, 0xb0, 0x40, 0x7f, 0x00, 0x90, 0x30, 0x62, 0x04, 0x80,
        0x3c, 0x00, 0x00, 0x80, 0x39, 0x00, 0x5c, 0x80, 0x30, 0x00, 0x00, 0x90,
        0x39, 0x57, 0x00, 0x90, 0x35, 0x5c, 0x00, 0x90, 0x3c, 0x58, 0x60, 0x90,
        0x30, 0x5f, 0x04, 0x80, 0x3c, 0x00, 0x00, 0x80, 0x35, 0x00, 0x00, 0x80,
        0x39, 0x00, 0x5c, 0x90, 0x39, 0x57, 0x00, 0x90, 0x35, 0x5d, 0x00, 0x90,
        0x3c, 0x5a, 0x04, 0x80, 0x30, 0x00, 0x5c, 0x80, 0x39, 0x00, 0x00, 0x80,
        0x35, 0x00, 0x00, 0x80, 0x3c, 0x00, 0x00, 0x90, 0x30, 0x60, 0x60, 0x90,
        0x3c, 0x5b, 0x00, 0x90, 0x39, 0x56, 0x00, 0x90, 0x35, 0x5d, 0x0c, 0x80,
        0x30, 0x00, 0x54, 0x80, 0x35, 0x00, 0x00, 0x90, 0x30, 0x60, 0x08, 0x80,
        0x3c, 0x00, 0x00, 0x80, 0x39, 0x00, 0x04, 0x80, 0x29, 0x00, 0x54, 0x90,
        0x39, 0x59, 0x00, 0x90, 0x29, 0x67, 0x00, 0xb0, 0x40, 0x00, 0x00, 0x90,
        0x3c, 0x5f, 0x00, 0x90, 0x35, 0x55, 0x08, 0x80, 0x30, 0x00, 0x08, 0x80,
        0x35, 0x00, 0x20, 0xb0, 0x40, 0x7f, 0x14, 0x80, 0x39, 0x00, 0x0c, 0x80,
        0x3c, 0x00, 0x10, 0x90, 0x35, 0x5f, 0x58, 0x80, 0x35, 0x00, 0x08, 0x90,
        0x3c, 0x63, 0x00, 0x90, 0x39, 0x5d, 0x60, 0x80, 0x29, 0x00, 0x00, 0x90,
        0x35, 0x60, 0x04, 0x80, 0x39, 0x00, 0x04, 0x80, 0x3c, 0x00, 0x58, 0x80,
        0x35, 0x00, 0x00, 0x90, 0x3c, 0x5e, 0x00, 0x90, 0x28, 0x68, 0x00, 0xb0,
        0x40, 0x00, 0x00, 0x90, 0x39, 0x5f, 0x60, 0xb0, 0x40, 0x7f, 0x00, 0x90,
        0x34, 0x5b, 0x08, 0x80, 0x39, 0x00, 0x04, 0x80, 0x3c, 0x00, 0x54, 0x90,
        0x39, 0x5a, 0x00, 0x90, 0x3c, 0x63, 0x04, 0x80, 0x34, 0x00, 0x5c, 0x80,
        0x39, 0x00, 0x00, 0x90, 0x34, 0x62, 0x04, 0x80, 0x28, 0x00, 0x00, 0x80,
        0x3c, 0x00, 0x5c, 0x90, 0x26, 0x60, 0x00, 0x90, 0x39, 0x5f, 0x00, 0x90,
        0x3c, 0x61, 0x00, 0xb0, 0x40, 0x00, 0x00, 0x90, 0x35, 0x60, 0x04, 0x80,
        0x34, 0x00, 0x5c, 0xb0, 0x40, 0x7f, 0x00, 0x90, 0x32, 0x5d, 0x04, 0x80,
        0x39, 0x00, 0x00, 0x80, 0x3c, 0x00, 0x00, 0x80, 0x35, 0x00, 0x5c, 0x90,
        0x35, 0x5c, 0x00, 0x90, 0x3c, 0x63, 0x00, 0x90, 0x39, 0x5a, 0x04, 0x80,
        0x32, 0x00, 0x54, 0x80, 0x26, 0x00, 0x04, 0x80, 0x35, 0x00, 0x04, 0x90,
        0x32, 0x5c, 0x04, 0x80, 0x39, 0x00, 0x04, 0x80, 0x3c, 0x00, 0x58, 0x80,
        0x32, 0x00, 0x00, 0x90, 0x3c, 0x62, 0x00, 0x90, 0x24, 0x63, 0x00, 0x90,
        0x39, 0x5b, 0x00, 0x90, 0x35, 0x5b, 0x00, 0xb0, 0x40, 0x00, 0x60, 0x90,
        0x30, 0x64, 0x00, 0xb0, 0x40, 0x7f, 0x08, 0x80, 0x35, 0x00, 0x00, 0x80,
        0x39, 0x00, 0x00, 0x80, 0x3c, 0x00, 0x58, 0x90, 0x35, 0x5c, 0x00, 0x90,
        0x3c, 0x5f, 0x00, 0x90, 0x39, 0x5e, 0x04, 0x80, 0x30, 0x00, 0x5c, 0x90,
        0x30, 0x5e, 0x04, 0x80, 0x35, 0x00, 0x00, 0x80, 0x39, 0x00, 0x04, 0x80,
        0x24, 0x00, 0x00, 0x80, 0x3c, 0x00, 0x58, 0x80, 0x30, 0x00, 0x00, 0xb0,
        0x40, 0x00, 0x00, 0x90, 0x2b, 0x5b, 0x00, 0x90, 0x3b, 0x5c, 0x00, 0x90,
        0x3e, 0x5f, 0x60, 0x80, 0x3e, 0x00, 0x00, 0x80, 0x3b, 0x00, 0x00, 0x90,
        0x37, 0x5f, 0x00, 0xb0, 0x40, 0x7f, 0x60, 0x80, 0x37, 0x00, 0x00, 0x90,
        0x3e, 0x61, 0x00, 0x90, 0x3b, 0x5c, 0x60, 0x80, 0x3b, 0x00, 0x00, 0x90,
        0x37, 0x60, 0x0c, 0x80, 0x3e, 0x00, 0x54, 0x90, 0x3e, 0x63, 0x00, 0x90,
        0x3b, 0x62, 0x04, 0x80, 0x37, 0x00, 0x5c, 0x90, 0x37, 0x5d, 0x04, 0x80,
        0x3e, 0x00, 0x08, 0x80, 0x3b, 0x00, 0x54, 0x90, 0x3c, 0x62, 0x00, 0xb0,
        0x40, 0x00, 0x00, 0x90, 0x40, 0x62, 0x08, 0x80, 0x37, 0x00, 0x28, 0xb0,
        0x40, 0x7f, 0x20, 0x80, 0x40, 0x00, 0x08, 0x80, 0x3c, 0x00, 0x08, 0x90,
        0x37, 0x58, 0x10, 0x80, 0x2b, 0x00, 0x08, 0x80, 0x37, 0x00, 0x48, 0x90,
        0x41, 0x64, 0x00, 0x90, 0x3e, 0x67, 0x00, 0x90, 0x32, 0x64, 0x00, 0xb0,
        0x40, 0x00, 0x00, 0x90, 0x37, 0x60, 0x00, 0x90, 0x2b, 0x60, 0x30, 0x80,
        0x37, 0x00, 0x00, 0xb0, 0x40, 0x7f, 0x04, 0x80, 0x3e, 0x00, 0x08, 0x80,
        0x41, 0x00, 0x82, 0x2c, 0x80, 0x32, 0x00, 0x10, 0x80, 0x2b, 0x00, 0x82,
        0x58, 0xb0, 0x40, 0x00, 0x30, 0x90, 0x35, 0x6a, 0x00, 0x90, 0x29, 0x6b,
        0x00, 0x90, 0x39, 0x5f, 0x00, 0x90, 0x3c, 0x60, 0x00, 0xb0, 0x40, 0x7f,
        0x2c, 0x80, 0x3c, 0x00, 0x00, 0x80, 0x39, 0x00, 0x00, 0x80, 0x35, 0x00,
        0x0c, 0x80, 0x29, 0x00, 0x28, 0x90, 0x35, 0x62, 0x28, 0x80, 0x35, 0x00,
        0x38, 0x90, 0x39, 0x64, 0x00, 0x90, 0x3c, 0x63, 0x28, 0x80, 0x39, 0x00,
        0x04, 0x80, 0x3c, 0x00, 0x34, 0x90, 0x35, 0x68, 0x1c, 0x80, 0x35, 0x00,
        0x44, 0x90, 0x2b, 0x62, 0x00, 0x90, 0x3e, 0x64, 0x00, 0x90, 0x3b, 0x68,
        0x00, 0x90, 0x37, 0x60, 0x00, 0xb0, 0x40, 0x00, 0x2c, 0x80, 0x3e, 0x00,
        0x04, 0xb0, 0x40, 0x7f, 0x0c, 0x80, 0x3b, 0x00, 0x04, 0x80, 0x2b, 0x00,
        0x00, 0x80, 0x37, 0x00, 0x20, 0x90, 0x37, 0x64, 0x24, 0x80, 0x37, 0x00,
        0x3c, 0x90, 0x3b, 0x62, 0x00, 0x90, 0x3e, 0x66, 0x28, 0x80, 0x3e, 0x00,
        0x00, 0x80, 0x3b, 0x00, 0x38, 0x90, 0x37, 0x5c, 0x14, 0x80, 0x37, 0x00,
        0x4c, 0x90, 0x34, 0x64, 0x00, 0x90, 0x37, 0x61, 0x00, 0x90, 0x2b, 0x5e,
        0x00, 0xb0, 0x40, 0x00, 0x00, 0x90, 0x24, 0x56, 0x30, 0xb0, 0x40, 0x7f,
        0x20, 0x80, 0x37, 0x00, 0x0c, 0x80, 0x34, 0x00, 0x04, 0x90, 0x30, 0x64,
        0x2c, 0x80, 0x30, 0x00, 0x34, 0x90, 0x37, 0x64, 0x00, 0x90, 0x3b, 0x6b,
        0x24, 0x80, 0x24, 0x00, 0x00, 0x80, 0x37, 0x00, 0x04, 0x80, 0x2b, 0x00,
        0x00, 0x80, 0x3b, 0x00, 0x38, 0x90, 0x3c, 0x62, 0x00, 0x90, 0x30, 0x64,
        0x18, 0x80, 0x30, 0x00, 0x00, 0x80, 0x3c, 0x00, 0x48, 0x90, 0x28, 0x5e,
        0x00, 0xb0, 0x40, 0x00, 0x00, 0x90, 0x2f, 0x61, 0x00, 0x90, 0x40, 0x6a,
        0x00, 0x90, 0x38, 0x5d, 0x30, 0xb0, 0x40, 0x7f, 0x2c, 0x80, 0x40, 0x00,
        0x04, 0x90, 0x34, 0x62, 0x04, 0x80, 0x38, 0x00, 0x20, 0x80, 0x34, 0x00,
        0x3c, 0x90, 0x3e, 0x6c, 0x00, 0x90, 0x38, 0x5b, 0x20, 0x80, 0x28, 0x00,
        0x04, 0x80, 0x38, 0x00, 0x04, 0x80, 0x2f, 0x00, 0x08, 0x80, 0x3e, 0x00,
        0x30, 0x90, 0x34, 0x62, 0x18, 0x80, 0x34, 0x00, 0x48, 0x90, 0x35, 0x68,
        0x00, 0x90, 0x3c, 0x67, 0x00, 0x90, 0x39, 0x69, 0x00, 0x90, 0x29, 0x67,
        0x00, 0xb0, 0x40, 0x00, 0x2c, 0x80, 0x3c, 0x00, 0x04, 0xb0, 0x40, 0x7f,
        0x04, 0x80, 0x35, 0x00, 0x00, 0x80, 0x39, 0x00, 0x04, 0x80, 0x29, 0x00,
        0x28, 0x90, 0x35, 0x68, 0x2c, 0x80, 0x35, 0x00, 0x34, 0x90, 0x39, 0x62,
        0x00, 0x90, 0x3c, 0x6e, 0x20, 0x80, 0x3c, 0x00, 0x08, 0x80, 0x39, 0x00,
        0x38, 0x90, 0x35, 0x69, 0x18, 0x80, 0x35, 0x00, 0x48, 0x90, 0x2b, 0x68,
        0x00, 0xb0, 0x40, 0x00, 0x00, 0x90, 0x37, 0x63, 0x00, 0x90, 0x3b, 0x64,
        0x00, 0x90, 0x3e, 0x60, 0x24, 0x80, 0x3e, 0x00, 0x0c, 0x80, 0x3b, 0x00,
        0x00, 0xb0, 0x40, 0x7f, 0x08, 0x80, 0x37, 0x00, 0x04, 0x80, 0x2b, 0x00,
        0x24, 0x90, 0x37, 0x60, 0x28, 0x80, 0x37, 0x00, 0x38, 0x90, 0x3b, 0x60,
        0x00, 0x90, 0x3e, 0x61, 0x24, 0x80, 0x3e, 0x00, 0x00, 0x80, 0x3b, 0x00,
        0x3c, 0x90, 0x37, 0x63, 0x18, 0x80, 0x37, 0x00, 0x48, 0x90, 0x2b, 0x5f,
        0x00, 0x90, 0x34, 0x62, 0x00, 0x90, 0x24, 0x5d, 0x00, 0x90, 0x37, 0x63,
        0x00, 0xb0, 0x40, 0x00, 0x30, 0xb0, 0x40, 0x7f, 0x04, 0x80, 0x37, 0x00,
        0x08, 0x80, 0x34, 0x00, 0x24, 0x90, 0x30, 0x68, 0x18, 0x80, 0x24, 0x00,
        0x08, 0x80, 0x2b, 0x00, 0x04, 0x80, 0x30, 0x00, 0x3c, 0x90, 0x37, 0x60,
        0x00, 0x90, 0x3b, 0x63, 0x24, 0x80, 0x3b, 0x00, 0x00, 0x80, 0x37, 0x00,
        0x3c, 0x90, 0x3c, 0x62, 0x00, 0x90, 0x30, 0x5d, 0x1c, 0x80, 0x30, 0x00,
        0x00, 0x80, 0x3c, 0x00, 0x44, 0xb0, 0x40, 0x00, 0x00, 0x90, 0x2f, 0x67,
        0x00, 0x90, 0x28, 0x61, 0x00, 0x90, 0x40, 0x68, 0x00, 0x90, 0x38, 0x5c,
        0x30, 0xb0, 0x40, 0x7f, 0x04, 0x80, 0x40, 0x00, 0x0c, 0x80, 0x38, 0x00,
        0x20, 0x90, 0x34, 0x64, 0x28, 0x80, 0x28, 0x00, 0x08, 0x80, 0x34, 0x00,
        0x04, 0x80, 0x2f, 0x00, 0x2c, 0x90, 0x38, 0x5d, 0x00, 0x90, 0x3e, 0x60,
        0x24, 0x80, 0x38, 0x00, 0x04, 0x80, 0x3e, 0x00, 0x38, 0x90, 0x34, 0x64,
        0x20, 0x80, 0x34, 0x00, 0x40, 0x90, 0x3c, 0x68, 0x00, 0x90, 0x29, 0x6a,
        0x00, 0xb0, 0x40, 0x00, 0x00, 0x90, 0x35, 0x6c, 0x00, 0x90, 0x39, 0x62,
        0x30, 0x80, 0x3c, 0x00, 0x00, 0xb0, 0x40, 0x7f, 0x04, 0x80, 0x35, 0x00,
        0x00, 0x80, 0x39, 0x00, 0x10, 0x80, 0x29, 0x00, 0x1c, 0x90, 0x35, 0x64,
        0x2c, 0x80, 0x35, 0x00, 0x34, 0x90, 0x39, 0x64, 0x00, 0x90, 0x3c, 0x68,
        0x28, 0x80, 0x3c, 0x00, 0x00, 0x80, 0x39, 0x00, 0x38, 0x90, 0x35, 0x62,
        0x1c, 0x80, 0x35, 0x00, 0x44, 0x90, 0x37, 0x60, 0x00, 0x90, 0x3b, 0x62,
        0x00, 0xb0, 0x40, 0x00, 0x00, 0x90, 0x3e, 0x68, 0x00, 0x90, 0x2b, 0x5f,
        0x28, 0x80, 0x3e, 0x00, 0x08, 0xb0, 0x40, 0x7f, 0x0c, 0x80, 0x3b, 0x00,
        0x04, 0x80, 0x37, 0x00, 0x00, 0x80, 0x2b, 0x00, 0x20, 0x90, 0x37, 0x60,
        0x2c, 0x80, 0x37, 0x00, 0x34, 0x90, 0x3b, 0x64, 0x00, 0x90, 0x3e, 0x64,
        0x24, 0x80, 0x3e, 0x00, 0x04, 0x80, 0x3b, 0x00, 0x38, 0x90, 0x37, 0x62,
        0x1c, 0x80, 0x37, 0x00, 0x44, 0xb0, 0x40, 0x00, 0x00, 0x90, 0x34, 0x62,
        0x00, 0x90, 0x37, 0x64, 0x00, 0x90, 0x2b, 0x6b, 0x00, 0x90, 0x24, 0x65,
        0x2c, 0x80, 0x37, 0x00, 0x04, 0x80, 0x34, 0x00, 0x00, 0xb0, 0x40, 0x7f,
        0x14, 0x80, 0x2b, 0x00, 0x00, 0x80, 0x24, 0x00, 0x1c, 0x90, 0x30, 0x60,
        0x20, 0x80, 0x30, 0x00, 0x40, 0x90, 0x37, 0x62, 0x00, 0x90, 0x3b, 0x6b,
        0x24, 0x80, 0x3b, 0x00, 0x04, 0x80, 0x37, 0x00, 0x38, 0x90, 0x3c, 0x64,
        0x00, 0x90, 0x30, 0x5c, 0x18, 0x80, 0x30, 0x00, 0x0c, 0x80, 0x3c, 0x00,
        0x3c, 0x90, 0x2f, 0x61, 0x00, 0x90, 0x28, 0x64, 0x00, 0x90, 0x40, 0x62,
        0x00, 0x90, 0x38, 0x56, 0x00, 0xb0, 0x40, 0x00, 0x30, 0xb0, 0x40, 0x7f,
        0x04, 0x80, 0x40, 0x00, 0x14, 0x80, 0x38, 0x00, 0x04, 0x80, 0x28, 0x00,
        0x00, 0x80, 0x2f, 0x00, 0x14, 0x90, 0x34, 0x5f, 0x28, 0x80, 0x34, 0x00,
        0x38, 0x90, 0x38, 0x59, 0x00, 0x90, 0x3e, 0x60, 0x24, 0x80, 0x3e, 0x00,
        0x0c, 0x80, 0x38, 0x00, 0x30, 0x90, 0x34, 0x63, 0x24, 0x80, 0x34, 0x00,
        0x3c, 0x90, 0x39, 0x61, 0x00, 0x90, 0x3c, 0x6b, 0x00, 0xb0, 0x40, 0x00,
        0x00, 0x90, 0x29, 0x6a, 0x00, 0x90, 0x30, 0x68, 0x30, 0x80, 0x3c, 0x00,
        0x00, 0xb0, 0x40, 0x7f, 0x04, 0x80, 0x29, 0x00, 0x04, 0x80, 0x39, 0x00,
        0x0c, 0x80, 0x30, 0x00, 0x1c, 0x90, 0x35, 0x62, 0x2c, 0x80, 0x35, 0x00,
        0x34, 0x90, 0x39, 0x62, 0x00, 0x90, 0x3c, 0x63, 0x24, 0x80, 0x3c, 0x00,
        0x04, 0x80, 0x39, 0x00, 0x38, 0x90, 0x35, 0x62, 0x20, 0x80, 0x35, 0x00,
        0x40, 0x90, 0x2b, 0x64, 0x00, 0x90, 0x3b, 0x64, 0x00, 0x90, 0x3e, 0x5d,
        0x00, 0x90, 0x32, 0x64, 0x00, 0xb0, 0x40, 0x00, 0x28, 0x80, 0x3e, 0x00,
        0x08, 0xb0, 0x40, 0x7f, 0x08, 0x80, 0x3b, 0x00, 0x04, 0x80, 0x2b, 0x00,
        0x00, 0x80, 0x32, 0x00, 0x24, 0x90, 0x37, 0x5c, 0x20, 0x80, 0x37, 0x00,
        0x40, 0x90, 0x3b, 0x62, 0x00, 0x90, 0x3e, 0x60, 0x20, 0x80, 0x3b, 0x00,
        0x04, 0x80, 0x3e, 0x00, 0x3c, 0x90, 0x37, 0x5d, 0x18, 0x80, 0x37, 0x00,
        0x48, 0x90, 0x24, 0x60, 0x00, 0x90, 0x37, 0x5f, 0x00, 0x90, 0x34, 0x5f,
        0x00, 0xb0, 0x40, 0x00, 0x00, 0x90, 0x2b, 0x62, 0x85, 0x68, 0x80, 0x34,
        0x00, 0x00, 0x80, 0x37, 0x00, 0x10, 0x80, 0x24, 0x00, 0x00, 0x80, 0x2b,
        0x00, 0x00, 0xff, 0x2f, 0x00, 0x4d, 0x54, 0x72, 0x6b, 0x00, 0x00, 0x03,
        0x12, 0x00, 0xff, 0x03, 0x03, 0x74, 0x6b, 0x32, 0x00, 0xff, 0x20, 0x01,
        0x01, 0x00, 0xb1, 0x07, 0x64, 0x00, 0xc1, 0x00, 0x81, 0x4e, 0xb1, 0x00,
        0x00, 0x00, 0xb1, 0x20, 0x00, 0x00, 0xc1, 0x21, 0x02, 0xb1, 0x0a, 0x46,
        0x00, 0xb1, 0x0b, 0x7f, 0x00, 0xb1, 0x07, 0x64, 0x02, 0xb1, 0x5d, 0x00,
        0x00, 0xb1, 0x5b, 0x14, 0x81, 0x3a, 0xb1, 0x63, 0x01, 0x02, 0xb1, 0x62,
        0x20, 0x02, 0xb1, 0x06, 0x28, 0x02, 0xb1, 0x65, 0x00, 0x02, 0xb1, 0x64,
        0x00, 0x02, 0xb1, 0x06, 0x0c, 0x02, 0xb1, 0x65, 0x7f, 0x02, 0xb1, 0x64,
        0x7f, 0xca, 0x66, 0x91, 0x29, 0x6e, 0x82, 0x68, 0x81, 0x29, 0x00, 0x18,
        0x91, 0x28, 0x64, 0x82, 0x68, 0x81, 0x28, 0x00, 0x18, 0x91, 0x26, 0x6e,
        0x82, 0x68, 0x81, 0x26, 0x00, 0x18, 0x91, 0x24, 0x64, 0x82, 0x68, 0x81,
        0x24, 0x00, 0x18, 0x91, 0x1f, 0x64, 0x86, 0x00, 0x81, 0x1f, 0x00, 0x00,
        0xe1, 0x00, 0x30, 0x00, 0x91, 0x2b, 0x64, 0x04, 0xe1, 0x00, 0x34, 0x04,
        0xe1, 0x00, 0x37, 0x04, 0xe1, 0x00, 0x39, 0x04, 0xe1, 0x00, 0x3a, 0x04,
        0xe1, 0x00, 0x3c, 0x04, 0xe1, 0x00, 0x3d, 0x04, 0xe1, 0x00, 0x3e, 0x08,
        0xe1, 0x00, 0x3f, 0x0c, 0xe1, 0x00, 0x40, 0x85, 0x08, 0x81, 0x2b, 0x00,
        0x48, 0x91, 0x24, 0x6e, 0x85, 0x50, 0x81, 0x24, 0x00, 0x30, 0x91, 0x29,
        0x64, 0x85, 0x50, 0x81, 0x29, 0x00, 0x30, 0x91, 0x24, 0x6e, 0x85, 0x50,
        0x81, 0x24, 0x00, 0x30, 0x91, 0x29, 0x64, 0x85, 0x50, 0x81, 0x29, 0x00,
        0x30, 0x91, 0x24, 0x6e, 0x85, 0x50, 0x81, 0x24, 0x00, 0x30, 0x91, 0x29,
        0x64, 0x85, 0x50, 0x81, 0x29, 0x00, 0x30, 0x91, 0x24, 0x6e, 0x85, 0x50,
        0x81, 0x24, 0x00, 0x30, 0x91, 0x29, 0x64, 0x85, 0x50, 0x81, 0x29, 0x00,
        0x30, 0x91, 0x29, 0x6e, 0x82, 0x68, 0x81, 0x29, 0x00, 0x18, 0x91, 0x28,
        0x64, 0x82, 0x68, 0x81, 0x28, 0x00, 0x18, 0x91, 0x26, 0x6e, 0x82, 0x68,
        0x81, 0x26, 0x00, 0x18, 0x91, 0x24, 0x64, 0x82, 0x68, 0x81, 0x24, 0x00,
        0x18, 0x91, 0x1f, 0x64, 0x86, 0x00, 0x81, 0x1f, 0x00, 0x00, 0xe1, 0x00,
        0x30, 0x00, 0x91, 0x2b, 0x64, 0x04, 0xe1, 0x00, 0x34, 0x04, 0xe1, 0x00,
        0x37, 0x04, 0xe1, 0x00, 0x39, 0x04, 0xe1, 0x00, 0x3a, 0x04, 0xe1, 0x00,
        0x3c, 0x04, 0xe1, 0x00, 0x3d, 0x04, 0xe1, 0x00, 0x3e, 0x08, 0xe1, 0x00,
        0x3f, 0x0c, 0xe1, 0x00, 0x40, 0x85, 0x08, 0x81, 0x2b, 0x00, 0x48, 0x91,
        0x29, 0x6e, 0x82, 0x68, 0x81, 0x29, 0x00, 0x18, 0x91, 0x2b, 0x64, 0x82,
        0x68, 0x81, 0x2b, 0x00, 0x18, 0x91, 0x24, 0x6e, 0x82, 0x68, 0x81, 0x24,
        0x00, 0x18, 0x91, 0x28, 0x64, 0x82, 0x68, 0x81, 0x28, 0x00, 0x18, 0x91,
        0x29, 0x6e, 0x82, 0x68, 0x81, 0x29, 0x00, 0x18, 0x91, 0x2b, 0x64, 0x82,
        0x68, 0x81, 0x2b, 0x00, 0x18, 0x91, 0x24, 0x6e, 0x82, 0x68, 0x81, 0x24,
        0x00, 0x18, 0x91, 0x28, 0x64, 0x82, 0x68, 0x81, 0x28, 0x00, 0x18, 0x91,
        0x29, 0x6e, 0x82, 0x68, 0x81, 0x29, 0x00, 0x18, 0x91, 0x2b, 0x64, 0x82,
        0x68, 0x81, 0x2b, 0x00, 0x18, 0x91, 0x24, 0x6e, 0x82, 0x68, 0x81, 0x24,
        0x00, 0x18, 0x91, 0x28, 0x64, 0x82, 0x68, 0x81, 0x28, 0x00, 0x18, 0x91,
        0x29, 0x6e, 0x82, 0x68, 0x81, 0x29, 0x00, 0x18, 0x91, 0x2b, 0x64, 0x82,
        0x68, 0x81, 0x2b, 0x00, 0x18, 0x91, 0x24, 0x6e, 0x83, 0x00, 0x81, 0x24,
        0x00, 0x83, 0x00, 0x91, 0x24, 0x6e, 0x85, 0x50, 0x81, 0x24, 0x00, 0x30,
        0x91, 0x29, 0x64, 0x85, 0x50, 0x81, 0x29, 0x00, 0x30, 0x91, 0x24, 0x6e,
        0x85, 0x50, 0x81, 0x24, 0x00, 0x30, 0x91, 0x29, 0x64, 0x85, 0x50, 0x81,
        0x29, 0x00, 0x30, 0x91, 0x24, 0x6e, 0x85, 0x50, 0x81, 0x24, 0x00, 0x30,
        0x91, 0x29, 0x64, 0x85, 0x50, 0x81, 0x29, 0x00, 0x30, 0x91, 0x24, 0x6e,
        0x85, 0x50, 0x81, 0x24, 0x00, 0x30, 0x91, 0x29, 0x64, 0x85, 0x50, 0x81,
        0x29, 0x00, 0x30, 0x91, 0x29, 0x6e, 0x82, 0x68, 0x81, 0x29, 0x00, 0x18,
        0x91, 0x28, 0x64, 0x82, 0x68, 0x81, 0x28, 0x00, 0x18, 0x91, 0x26, 0x6e,
        0x82, 0x68, 0x81, 0x26, 0x00, 0x18, 0x91, 0x24, 0x64, 0x82, 0x68, 0x81,
        0x24, 0x00, 0x18, 0x91, 0x1f, 0x64, 0x86, 0x00, 0x81, 0x1f, 0x00, 0x00,
        0xe1, 0x00, 0x30, 0x00, 0x91, 0x2b, 0x64, 0x04, 0xe1, 0x00, 0x34, 0x04,
        0xe1, 0x00, 0x37, 0x04, 0xe1, 0x00, 0x39, 0x04, 0xe1, 0x00, 0x3a, 0x04,
        0xe1, 0x00, 0x3c, 0x04, 0xe1, 0x00, 0x3d, 0x04, 0xe1, 0x00, 0x3e, 0x08,
        0xe1, 0x00, 0x3f, 0x0c, 0xe1, 0x00, 0x40, 0x85, 0x08, 0x81, 0x2b, 0x00,
        0x48, 0x91, 0x29, 0x6e, 0x82, 0x68, 0x81, 0x29, 0x00, 0x18, 0x91, 0x2b,
        0x64, 0x82, 0x68, 0x81, 0x2b, 0x00, 0x18, 0x91, 0x24, 0x6e, 0x82, 0x68,
        0x81, 0x24, 0x00, 0x18, 0x91, 0x28, 0x64, 0x82, 0x68, 0x81, 0x28, 0x00,
        0x18, 0x91, 0x29, 0x6e, 0x82, 0x68, 0x81, 0x29, 0x00, 0x18, 0x91, 0x2b,
        0x64, 0x82, 0x68, 0x81, 0x2b, 0x00, 0x18, 0x91, 0x24, 0x6e, 0x82, 0x68,
        0x81, 0x24, 0x00, 0x18, 0x91, 0x28, 0x64, 0x82, 0x68, 0x81, 0x28, 0x00,
        0x18, 0x91, 0x29, 0x6e, 0x82, 0x68, 0x81, 0x29, 0x00, 0x18, 0x91, 0x2b,
        0x64, 0x82, 0x68, 0x81, 0x2b, 0x00, 0x18, 0x91, 0x24, 0x6e, 0x82, 0x68,
        0x81, 0x24, 0x00, 0x18, 0x91, 0x28, 0x64, 0x82, 0x68, 0x81, 0x28, 0x00,
        0x18, 0x91, 0x29, 0x6e, 0x82, 0x68, 0x81, 0x29, 0x00, 0x18, 0x91, 0x2b,
        0x64, 0x82, 0x68, 0x81, 0x2b, 0x00, 0x18, 0x91, 0x24, 0x6e, 0x86, 0x00,
        0x81, 0x24, 0x00, 0x00, 0xff, 0x2f, 0x00, 0x4d, 0x54, 0x72, 0x6b, 0x00,
        0x00, 0x0a, 0x36, 0x00, 0xff, 0x03, 0x03, 0x74, 0x6b, 0x33, 0x00, 0xff,
        0x20, 0x01, 0x02, 0x00, 0xb2, 0x07, 0x64, 0x00, 0xc2, 0x00, 0x81, 0x58,
        0xb2, 0x00, 0x08, 0x00, 0xb2, 0x20, 0x00, 0x00, 0xc2, 0x31, 0x02, 0xb2,
        0x0a, 0x2d, 0x00, 0xb2, 0x0b, 0x64, 0x00, 0xb2, 0x07, 0x64, 0x02, 0xb2,
        0x5d, 0x3c, 0x00, 0xb2, 0x5b, 0x6e, 0xe4, 0x24, 0x92, 0x40, 0x46, 0x00,
        0x92, 0x43, 0x46, 0x86, 0x00, 0x82, 0x43, 0x00, 0x00, 0x82, 0x40, 0x00,
        0x00, 0x92, 0x45, 0x46, 0x00, 0x92, 0x41, 0x46, 0x86, 0x00, 0x82, 0x41,
        0x00, 0x00, 0x82, 0x45, 0x00, 0x00, 0x92, 0x43, 0x46, 0x00, 0x92, 0x40,
        0x46, 0x86, 0x00, 0x82, 0x40, 0x00, 0x00, 0x82, 0x43, 0x00, 0x00, 0x92,
        0x45, 0x46, 0x00, 0x92, 0x41, 0x46, 0x86, 0x00, 0x82, 0x41, 0x00, 0x00,
        0x82, 0x45, 0x00, 0x00, 0x92, 0x43, 0x46, 0x00, 0x92, 0x40, 0x46, 0x86,
        0x00, 0x82, 0x40, 0x00, 0x00, 0x82, 0x43, 0x00, 0x00, 0x92, 0x45, 0x46,
        0x00, 0x92, 0x41, 0x46, 0x86, 0x00, 0x82, 0x41, 0x00, 0x00, 0x82, 0x45,
        0x00, 0x00, 0x92, 0x40, 0x46, 0x00, 0x92, 0x43, 0x46, 0x86, 0x00, 0x92,
        0x41, 0x46, 0x00, 0x92, 0x45, 0x46, 0x04, 0x82, 0x43, 0x00, 0x00, 0x82,
        0x40, 0x00, 0x82, 0x7c, 0x82, 0x41, 0x00, 0x00, 0x82, 0x45, 0x00, 0x60,
        0x92, 0x41, 0x50, 0x00, 0x92, 0x45, 0x50, 0x50, 0x82, 0x45, 0x00, 0x00,
        0x82, 0x41, 0x00, 0x10, 0x92, 0x45, 0x4b, 0x00, 0x92, 0x48, 0x4b, 0x81,
        0x40, 0x82, 0x48, 0x00, 0x00, 0x82, 0x45, 0x00, 0x00, 0x92, 0x48, 0x46,
        0x00, 0x92, 0x45, 0x46, 0x00, 0x92, 0x4d, 0x46, 0x86, 0x00, 0x82, 0x4d,
        0x00, 0x00, 0x82, 0x45, 0x00, 0x00, 0x82, 0x48, 0x00, 0x00, 0x92, 0x4d,
        0x46, 0x00, 0x92, 0x4a, 0x46, 0x00, 0x92, 0x45, 0x46, 0x86, 0x00, 0x82,
        0x45, 0x00, 0x00, 0x82, 0x4a, 0x00, 0x00, 0x82, 0x4d, 0x00, 0x00, 0x92,
        0x4a, 0x46, 0x00, 0x92, 0x47, 0x46, 0x00, 0x92, 0x3e, 0x46, 0x84, 0x40,
        0x82, 0x3e, 0x00, 0x00, 0x82, 0x47, 0x00, 0x00, 0x82, 0x4a, 0x00, 0x00,
        0x92, 0x4c, 0x46, 0x00, 0x92, 0x40, 0x46, 0x00, 0x92, 0x48, 0x46, 0x81,
        0x40, 0x82, 0x48, 0x00, 0x00, 0x82, 0x40, 0x00, 0x00, 0x82, 0x4c, 0x00,
        0x00, 0x92, 0x4d, 0x46, 0x00, 0x92, 0x41, 0x46, 0x00, 0x92, 0x4a, 0x46,
        0x84, 0x30, 0x82, 0x4a, 0x00, 0x00, 0x82, 0x41, 0x00, 0x00, 0x82, 0x4d,
        0x00, 0x83, 0x10, 0x92, 0x51, 0x4b, 0x00, 0x92, 0x4d, 0x4b, 0x81, 0x3c,
        0x82, 0x4d, 0x00, 0x00, 0x82, 0x51, 0x00, 0x04, 0x92, 0x4f, 0x49, 0x00,
        0x92, 0x53, 0x4b, 0x82, 0x20, 0x92, 0x56, 0x51, 0x08, 0x82, 0x53, 0x00,
        0x34, 0x82, 0x4f, 0x00, 0x24, 0x92, 0x4c, 0x4e, 0x00, 0x92, 0x54, 0x4a,
        0x00, 0x92, 0x4f, 0x4b, 0x04, 0x82, 0x56, 0x00, 0x82, 0x3c, 0x82, 0x4c,
        0x00, 0x40, 0x92, 0x53, 0x51, 0x00, 0x92, 0x50, 0x4c, 0x00, 0x92, 0x4c,
        0x50, 0x04, 0x82, 0x54, 0x00, 0x00, 0x82, 0x4f, 0x00, 0x82, 0x50, 0x82,
        0x50, 0x00, 0x08, 0x82, 0x4c, 0x00, 0x24, 0x82, 0x53, 0x00, 0x00, 0x92,
        0x4d, 0x53, 0x00, 0x92, 0x51, 0x50, 0x00, 0x92, 0x48, 0x53, 0x81, 0x1c,
        0x82, 0x51, 0x00, 0x24, 0x82, 0x4d, 0x00, 0x00, 0x92, 0x54, 0x53, 0x00,
        0x92, 0x51, 0x55, 0x81, 0x30, 0x82, 0x51, 0x00, 0x08, 0x82, 0x48, 0x00,
        0x08, 0x92, 0x4f, 0x4a, 0x00, 0x92, 0x53, 0x5a, 0x00, 0x92, 0x4a, 0x4a,
        0x04, 0x82, 0x54, 0x00, 0x81, 0x78, 0x82, 0x53, 0x00, 0x18, 0x82, 0x4f,
        0x00, 0x0c, 0x92, 0x56, 0x4e, 0x00, 0x92, 0x53, 0x4d, 0x60, 0x82, 0x53,
        0x00, 0x00, 0x82, 0x4a, 0x00, 0x00, 0x92, 0x4c, 0x4d, 0x00, 0x92, 0x54,
        0x58, 0x00, 0x92, 0x4f, 0x48, 0x04, 0x82, 0x56, 0x00, 0x82, 0x54, 0x82,
        0x4c, 0x00, 0x00, 0x82, 0x4f, 0x00, 0x24, 0x82, 0x54, 0x00, 0x04, 0x92,
        0x50, 0x4b, 0x00, 0x92, 0x4c, 0x50, 0x00, 0x92, 0x53, 0x54, 0x82, 0x60,
        0x82, 0x4c, 0x00, 0x00, 0x82, 0x50, 0x00, 0x08, 0x82, 0x53, 0x00, 0x18,
        0x92, 0x48, 0x4a, 0x00, 0x92, 0x4d, 0x4f, 0x00, 0x92, 0x51, 0x51, 0x81,
        0x20, 0x82, 0x51, 0x00, 0x20, 0x92, 0x54, 0x50, 0x00, 0x92, 0x51, 0x50,
        0x04, 0x82, 0x4d, 0x00, 0x81, 0x18, 0x82, 0x51, 0x00, 0x10, 0x82, 0x54,
        0x00, 0x08, 0x82, 0x48, 0x00, 0x0c, 0x92, 0x4f, 0x50, 0x00, 0x92, 0x53,
        0x59, 0x00, 0x92, 0x4a, 0x4d, 0x81, 0x78, 0x82, 0x53, 0x00, 0x24, 0x82,
        0x4f, 0x00, 0x04, 0x92, 0x56, 0x51, 0x00, 0x92, 0x53, 0x51, 0x44, 0x82,
        0x53, 0x00, 0x0c, 0x82, 0x56, 0x00, 0x0c, 0x82, 0x4a, 0x00, 0x04, 0x92,
        0x4c, 0x51, 0x00, 0x92, 0x54, 0x55, 0x00, 0x92, 0x4f, 0x4b, 0x82, 0x5c,
        0x82, 0x54, 0x00, 0x18, 0x82, 0x4f, 0x00, 0x04, 0x82, 0x4c, 0x00, 0x08,
        0x92, 0x53, 0x53, 0x00, 0x92, 0x58, 0x4e, 0x00, 0x92, 0x50, 0x49, 0x82,
        0x64, 0x82, 0x53, 0x00, 0x04, 0x82, 0x58, 0x00, 0x00, 0x82, 0x50, 0x00,
        0x18, 0x92, 0x48, 0x50, 0x00, 0x92, 0x51, 0x51, 0x00, 0x92, 0x54, 0x50,
        0x82, 0x78, 0x82, 0x48, 0x00, 0x04, 0x82, 0x51, 0x00, 0x00, 0x82, 0x54,
        0x00, 0x04, 0x92, 0x4a, 0x59, 0x00, 0x92, 0x53, 0x55, 0x00, 0x92, 0x4f,
        0x59, 0x82, 0x7c, 0x82, 0x4f, 0x00, 0x00, 0x82, 0x53, 0x00, 0x00, 0x82,
        0x4a, 0x00, 0x04, 0x92, 0x4c, 0x48, 0x00, 0x92, 0x4f, 0x46, 0x00, 0x92,
        0x54, 0x54, 0x00, 0xb2, 0x0b, 0x64, 0x08, 0xb2, 0x0b, 0x63, 0x08, 0xb2,
        0x0b, 0x62, 0x08, 0xb2, 0x0b, 0x61, 0x08, 0xb2, 0x0b, 0x60, 0x08, 0xb2,
        0x0b, 0x5f, 0x08, 0xb2, 0x0b, 0x5e, 0x08, 0xb2, 0x0b, 0x5d, 0x08, 0xb2,
        0x0b, 0x5c, 0x08, 0xb2, 0x0b, 0x5b, 0x08, 0xb2, 0x0b, 0x5a, 0x08, 0xb2,
        0x0b, 0x59, 0x08, 0xb2, 0x0b, 0x58, 0x04, 0xb2, 0x0b, 0x57, 0x08, 0xb2,
        0x0b, 0x56, 0x08, 0xb2, 0x0b, 0x55, 0x08, 0xb2, 0x0b, 0x54, 0x08, 0xb2,
        0x0b, 0x53, 0x08, 0xb2, 0x0b, 0x52, 0x08, 0xb2, 0x0b, 0x51, 0x08, 0xb2,
        0x0b, 0x50, 0x08, 0xb2, 0x0b, 0x4f, 0x08, 0xb2, 0x0b, 0x4e, 0x08, 0xb2,
        0x0b, 0x4d, 0x08, 0xb2, 0x0b, 0x4c, 0x04, 0xb2, 0x0b, 0x4b, 0x08, 0xb2,
        0x0b, 0x4a, 0x08, 0xb2, 0x0b, 0x49, 0x08, 0xb2, 0x0b, 0x48, 0x08, 0xb2,
        0x0b, 0x47, 0x08, 0xb2, 0x0b, 0x46, 0x08, 0xb2, 0x0b, 0x45, 0x08, 0xb2,
        0x0b, 0x44, 0x08, 0xb2, 0x0b, 0x43, 0x08, 0xb2, 0x0b, 0x42, 0x08, 0xb2,
        0x0b, 0x41, 0x08, 0xb2, 0x0b, 0x40, 0x08, 0xb2, 0x0b, 0x3f, 0x04, 0xb2,
        0x0b, 0x3e, 0x08, 0xb2, 0x0b, 0x3d, 0x08, 0xb2, 0x0b, 0x3c, 0x08, 0xb2,
        0x0b, 0x3b, 0x08, 0xb2, 0x0b, 0x3a, 0x08, 0xb2, 0x0b, 0x39, 0x08, 0xb2,
        0x0b, 0x38, 0x08, 0xb2, 0x0b, 0x37, 0x08, 0xb2, 0x0b, 0x36, 0x08, 0xb2,
        0x0b, 0x35, 0x08, 0xb2, 0x0b, 0x34, 0x08, 0xb2, 0x0b, 0x33, 0x04, 0xb2,
        0x0b, 0x32, 0x08, 0xb2, 0x0b, 0x31, 0x08, 0xb2, 0x0b, 0x30, 0x08, 0xb2,
        0x0b, 0x2f, 0x08, 0xb2, 0x0b, 0x2e, 0x08, 0xb2, 0x0b, 0x2d, 0x08, 0xb2,
        0x0b, 0x2c, 0x08, 0xb2, 0x0b, 0x2b, 0x08, 0xb2, 0x0b, 0x2a, 0x08, 0xb2,
        0x0b, 0x29, 0x08, 0xb2, 0x0b, 0x28, 0x08, 0xb2, 0x0b, 0x27, 0x08, 0xb2,
        0x0b, 0x26, 0x04, 0xb2, 0x0b, 0x25, 0x08, 0xb2, 0x0b, 0x24, 0x08, 0xb2,
        0x0b, 0x23, 0x08, 0xb2, 0x0b, 0x22, 0x08, 0xb2, 0x0b, 0x21, 0x08, 0xb2,
        0x0b, 0x20, 0x08, 0xb2, 0x0b, 0x1f, 0x08, 0xb2, 0x0b, 0x1e, 0x08, 0xb2,
        0x0b, 0x1d, 0x08, 0xb2, 0x0b, 0x1c, 0x08, 0xb2, 0x0b, 0x1b, 0x08, 0xb2,
        0x0b, 0x1a, 0x04, 0xb2, 0x0b, 0x19, 0x08, 0xb2, 0x0b, 0x18, 0x08, 0xb2,
        0x0b, 0x17, 0x08, 0xb2, 0x0b, 0x16, 0x08, 0xb2, 0x0b, 0x15, 0x08, 0xb2,
        0x0b, 0x14, 0x08, 0xb2, 0x0b, 0x13, 0x08, 0xb2, 0x0b, 0x12, 0x08, 0xb2,
        0x0b, 0x11, 0x08, 0xb2, 0x0b, 0x10, 0x08, 0xb2, 0x0b, 0x0f, 0x08, 0xb2,
        0x0b, 0x0e, 0x08, 0xb2, 0x0b, 0x0d, 0x04, 0xb2, 0x0b, 0x0c, 0x08, 0xb2,
        0x0b, 0x0b, 0x08, 0xb2, 0x0b, 0x0a, 0x08, 0xb2, 0x0b, 0x09, 0x08, 0xb2,
        0x0b, 0x08, 0x08, 0xb2, 0x0b, 0x07, 0x04, 0x82, 0x54, 0x00, 0x00, 0x82,
        0x4f, 0x00, 0x00, 0x82, 0x4c, 0x00, 0x04, 0xb2, 0x0b, 0x06, 0x08, 0xb2,
        0x0b, 0x05, 0x08, 0xb2, 0x0b, 0x04, 0x08, 0xb2, 0x0b, 0x03, 0x08, 0xb2,
        0x0b, 0x02, 0x08, 0xb2, 0x0b, 0x01, 0x04, 0xb2, 0x0b, 0x64, 0x00, 0x92,
        0x40, 0x4b, 0x00, 0x92, 0x3c, 0x4b, 0x00, 0x92, 0x37, 0x4b, 0x84, 0x40,
        0x82, 0x40, 0x00, 0x00, 0x92, 0x43, 0x4b, 0x81, 0x40, 0x82, 0x3c, 0x00,
        0x00, 0x82, 0x37, 0x00, 0x00, 0x82, 0x43, 0x00, 0x00, 0x92, 0x3c, 0x4b,
        0x00, 0x92, 0x41, 0x4b, 0x00, 0x92, 0x39, 0x4b, 0x84, 0x40, 0x82, 0x41,
        0x00, 0x00, 0x92, 0x43, 0x4b, 0x81, 0x40, 0x82, 0x3c, 0x00, 0x00, 0x82,
        0x39, 0x00, 0x00, 0x82, 0x43, 0x00, 0x00, 0x92, 0x37, 0x4b, 0x00, 0x92,
        0x40, 0x4b, 0x00, 0x92, 0x3c, 0x4b, 0x84, 0x40, 0x82, 0x40, 0x00, 0x00,
        0x92, 0x43, 0x4b, 0x81, 0x40, 0x82, 0x37, 0x00, 0x00, 0x82, 0x3c, 0x00,
        0x00, 0x82, 0x43, 0x00, 0x00, 0x92, 0x41, 0x4b, 0x00, 0x92, 0x3c, 0x4b,
        0x00, 0x92, 0x39, 0x4b, 0x84, 0x40, 0x82, 0x41, 0x00, 0x00, 0x92, 0x43,
        0x4b, 0x81, 0x40, 0x82, 0x3c, 0x00, 0x00, 0x82, 0x39, 0x00, 0x00, 0x82,
        0x43, 0x00, 0x00, 0x92, 0x40, 0x4b, 0x00, 0x92, 0x37, 0x4b, 0x00, 0x92,
        0x3c, 0x4b, 0x84, 0x40, 0x82, 0x40, 0x00, 0x00, 0x92, 0x43, 0x4b, 0x81,
        0x40, 0x82, 0x37, 0x00, 0x00, 0x82, 0x3c, 0x00, 0x00, 0x82, 0x43, 0x00,
        0x00, 0x92, 0x39, 0x4b, 0x00, 0x92, 0x3c, 0x4b, 0x00, 0x92, 0x41, 0x4b,
        0x84, 0x40, 0x82, 0x41, 0x00, 0x00, 0x92, 0x43, 0x4b, 0x81, 0x40, 0x82,
        0x3c, 0x00, 0x00, 0x82, 0x39, 0x00, 0x00, 0x82, 0x43, 0x00, 0x00, 0x92,
        0x40, 0x4b, 0x00, 0x92, 0x3c, 0x4b, 0x00, 0x92, 0x37, 0x4b, 0x84, 0x40,
        0x82, 0x40, 0x00, 0x00, 0x92, 0x43, 0x4b, 0x81, 0x40, 0x82, 0x3c, 0x00,
        0x00, 0x82, 0x37, 0x00, 0x00, 0x82, 0x43, 0x00, 0x00, 0x92, 0x3c, 0x4b,
        0x00, 0x92, 0x39, 0x4b, 0x00, 0x92, 0x41, 0x4b, 0x86, 0x00, 0x82, 0x41,
        0x00, 0x00, 0x82, 0x39, 0x00, 0x00, 0x82, 0x3c, 0x00, 0x00, 0x92, 0x45,
        0x46, 0x00, 0x92, 0x4d, 0x46, 0x00, 0x92, 0x48, 0x46, 0x86, 0x00, 0x82,
        0x48, 0x00, 0x00, 0x82, 0x4d, 0x00, 0x00, 0x82, 0x45, 0x00, 0x00, 0x92,
        0x45, 0x46, 0x00, 0x92, 0x4a, 0x46, 0x00, 0x92, 0x4d, 0x46, 0x86, 0x00,
        0x82, 0x4d, 0x00, 0x00, 0x82, 0x4a, 0x00, 0x00, 0x82, 0x45, 0x00, 0x00,
        0x92, 0x47, 0x46, 0x00, 0x92, 0x3e, 0x46, 0x00, 0x92, 0x4a, 0x46, 0x84,
        0x40, 0x82, 0x4a, 0x00, 0x00, 0x82, 0x3e, 0x00, 0x00, 0x82, 0x47, 0x00,
        0x00, 0x92, 0x48, 0x46, 0x00, 0x92, 0x40, 0x46, 0x00, 0x92, 0x4c, 0x46,
        0x81, 0x40, 0x82, 0x4c, 0x00, 0x00, 0x82, 0x40, 0x00, 0x00, 0x82, 0x48,
        0x00, 0x00, 0x92, 0x41, 0x46, 0x00, 0x92, 0x4a, 0x46, 0x00, 0xb2, 0x0b,
        0x64, 0x00, 0x92, 0x4d, 0x46, 0x74, 0xb2, 0x0b, 0x63, 0x44, 0xb2, 0x0b,
        0x62, 0x1c, 0xb2, 0x0b, 0x61, 0x24, 0xb2, 0x0b, 0x60, 0x10, 0xb2, 0x0b,
        0x5f, 0x14, 0xb2, 0x0b, 0x5e, 0x0c, 0xb2, 0x0b, 0x5d, 0x10, 0xb2, 0x0b,
        0x5c, 0x0c, 0xb2, 0x0b, 0x5b, 0x0c, 0xb2, 0x0b, 0x5a, 0x08, 0xb2, 0x0b,
        0x59, 0x08, 0xb2, 0x0b, 0x58, 0x08, 0xb2, 0x0b, 0x57, 0x08, 0xb2, 0x0b,
        0x56, 0x08, 0xb2, 0x0b, 0x55, 0x04, 0xb2, 0x0b, 0x54, 0x08, 0xb2, 0x0b,
        0x53, 0x08, 0xb2, 0x0b, 0x52, 0x04, 0xb2, 0x0b, 0x51, 0x04, 0xb2, 0x0b,
        0x50, 0x04, 0xb2, 0x0b, 0x4f, 0x04, 0xb2, 0x0b, 0x4e, 0x08, 0xb2, 0x0b,
        0x4d, 0x04, 0xb2, 0x0b, 0x4b, 0x08, 0xb2, 0x0b, 0x4a, 0x04, 0xb2, 0x0b,
        0x49, 0x04, 0xb2, 0x0b, 0x48, 0x04, 0xb2, 0x0b, 0x46, 0x04, 0xb2, 0x0b,
        0x45, 0x04, 0xb2, 0x0b, 0x44, 0x04, 0xb2, 0x0b, 0x43, 0x04, 0xb2, 0x0b,
        0x41, 0x04, 0xb2, 0x0b, 0x40, 0x04, 0xb2, 0x0b, 0x3e, 0x04, 0xb2, 0x0b,
        0x3c, 0x04, 0xb2, 0x0b, 0x3b, 0x04, 0xb2, 0x0b, 0x3a, 0x04, 0xb2, 0x0b,
        0x38, 0x04, 0xb2, 0x0b, 0x36, 0x04, 0xb2, 0x0b, 0x34, 0x04, 0xb2, 0x0b,
        0x32, 0x04, 0xb2, 0x0b, 0x31, 0x04, 0xb2, 0x0b, 0x2e, 0x04, 0xb2, 0x0b,
        0x2c, 0x04, 0xb2, 0x0b, 0x29, 0x04, 0xb2, 0x0b, 0x27, 0x04, 0xb2, 0x0b,
        0x24, 0x04, 0xb2, 0x0b, 0x22, 0x04, 0xb2, 0x0b, 0x1f, 0x04, 0xb2, 0x0b,
        0x1d, 0x04, 0xb2, 0x0b, 0x19, 0x04, 0xb2, 0x0b, 0x16, 0x04, 0xb2, 0x0b,
        0x14, 0x04, 0xb2, 0x0b, 0x11, 0x04, 0xb2, 0x0b, 0x0d, 0x04, 0xb2, 0x0b,
        0x09, 0x04, 0x82, 0x4d, 0x00, 0x00, 0x82, 0x4a, 0x00, 0x00, 0x82, 0x41,
        0x00, 0x00, 0xb2, 0x0b, 0x05, 0x04, 0xb2, 0x0b, 0x00, 0x81, 0x4c, 0xb2,
        0x0b, 0x64, 0x81, 0x40, 0x92, 0x4d, 0x4b, 0x00, 0x92, 0x51, 0x4b, 0x81,
        0x3c, 0x82, 0x51, 0x00, 0x00, 0x82, 0x4d, 0x00, 0x04, 0x92, 0x4f, 0x49,
        0x00, 0x92, 0x53, 0x4b, 0x81, 0x40, 0x82, 0x4f, 0x00, 0x00, 0x92, 0x56,
        0x51, 0x81, 0x14, 0x82, 0x53, 0x00, 0x2c, 0x82, 0x56, 0x00, 0x00, 0x92,
        0x54, 0x4a, 0x00, 0x92, 0x4f, 0x4b, 0x00, 0x92, 0x4c, 0x4e, 0x82, 0x40,
        0x82, 0x4c, 0x00, 0x40, 0x92, 0x50, 0x4c, 0x00, 0x92, 0x4c, 0x50, 0x00,
        0x92, 0x53, 0x51, 0x04, 0x82, 0x4f, 0x00, 0x00, 0x82, 0x54, 0x00, 0x82,
        0x50, 0x82, 0x50, 0x00, 0x08, 0x82, 0x4c, 0x00, 0x24, 0x82, 0x53, 0x00,
        0x00, 0x92, 0x48, 0x53, 0x00, 0x92, 0x51, 0x50, 0x00, 0x92, 0x4d, 0x53,
        0x81, 0x1c, 0x82, 0x51, 0x00, 0x24, 0x82, 0x4d, 0x00, 0x00, 0x92, 0x54,
        0x53, 0x00, 0x92, 0x51, 0x55, 0x81, 0x30, 0x82, 0x51, 0x00, 0x08, 0x82,
        0x48, 0x00, 0x08, 0x92, 0x4a, 0x4a, 0x00, 0x92, 0x4f, 0x4a, 0x00, 0x92,
        0x53, 0x5a, 0x04, 0x82, 0x54, 0x00, 0x81, 0x78, 0x82, 0x53, 0x00, 0x18,
        0x82, 0x4f, 0x00, 0x0c, 0x92, 0x56, 0x4e, 0x00, 0x92, 0x53, 0x4d, 0x60,
        0x82, 0x53, 0x00, 0x00, 0x82, 0x4a, 0x00, 0x00, 0x92, 0x4f, 0x48, 0x00,
        0x92, 0x54, 0x58, 0x00, 0x92, 0x4c, 0x4d, 0x04, 0x82, 0x56, 0x00, 0x82,
        0x54, 0x82, 0x4f, 0x00, 0x00, 0x82, 0x4c, 0x00, 0x24, 0x82, 0x54, 0x00,
        0x04, 0x92, 0x53, 0x54, 0x00, 0x92, 0x4c, 0x50, 0x00, 0x92, 0x50, 0x4b,
        0x82, 0x60, 0x82, 0x50, 0x00, 0x00, 0x82, 0x4c, 0x00, 0x08, 0x82, 0x53,
        0x00, 0x18, 0x92, 0x48, 0x4a, 0x00, 0x92, 0x4d, 0x4f, 0x00, 0x92, 0x51,
        0x51, 0x81, 0x20, 0x82, 0x51, 0x00, 0x20, 0x92, 0x51, 0x50, 0x00, 0x92,
        0x54, 0x50, 0x04, 0x82, 0x4d, 0x00, 0x81, 0x18, 0x82, 0x51, 0x00, 0x10,
        0x82, 0x54, 0x00, 0x08, 0x82, 0x48, 0x00, 0x0c, 0x92, 0x53, 0x59, 0x00,
        0x92, 0x4f, 0x50, 0x00, 0x92, 0x4a, 0x4d, 0x81, 0x78, 0x82, 0x53, 0x00,
        0x24, 0x82, 0x4f, 0x00, 0x04, 0x92, 0x56, 0x51, 0x00, 0x92, 0x53, 0x51,
        0x44, 0x82, 0x53, 0x00, 0x0c, 0x82, 0x56, 0x00, 0x0c, 0x82, 0x4a, 0x00,
        0x04, 0x92, 0x4f, 0x4b, 0x00, 0x92, 0x54, 0x55, 0x00, 0x92, 0x4c, 0x51,
        0x82, 0x5c, 0x82, 0x54, 0x00, 0x18, 0x82, 0x4f, 0x00, 0x04, 0x82, 0x4c,
        0x00, 0x08, 0x92, 0x58, 0x4e, 0x00, 0x92, 0x53, 0x53, 0x00, 0x92, 0x50,
        0x49, 0x82, 0x64, 0x82, 0x53, 0x00, 0x04, 0x82, 0x58, 0x00, 0x00, 0x82,
        0x50, 0x00, 0x18, 0x92, 0x54, 0x50, 0x00, 0x92, 0x51, 0x51, 0x00, 0x92,
        0x48, 0x50, 0x82, 0x78, 0x82, 0x48, 0x00, 0x04, 0x82, 0x51, 0x00, 0x00,
        0x82, 0x54, 0x00, 0x04, 0x92, 0x53, 0x55, 0x00, 0x92, 0x4a, 0x59, 0x00,
        0x92, 0x4f, 0x59, 0x82, 0x7c, 0x82, 0x4f, 0x00, 0x00, 0x82, 0x4a, 0x00,
        0x00, 0x82, 0x53, 0x00, 0x04, 0x92, 0x54, 0x54, 0x00, 0x92, 0x4f, 0x46,
        0x00, 0x92, 0x4c, 0x48, 0x83, 0x00, 0xb2, 0x0b, 0x64, 0x08, 0xb2, 0x0b,
        0x63, 0x04, 0xb2, 0x0b, 0x62, 0x04, 0xb2, 0x0b, 0x61, 0x04, 0xb2, 0x0b,
        0x60, 0x04, 0xb2, 0x0b, 0x5f, 0x04, 0xb2, 0x0b, 0x5e, 0x04, 0xb2, 0x0b,
        0x5d, 0x04, 0xb2, 0x0b, 0x5c, 0x04, 0xb2, 0x0b, 0x5b, 0x04, 0xb2, 0x0b,
        0x5a, 0x04, 0xb2, 0x0b, 0x59, 0x04, 0xb2, 0x0b, 0x58, 0x04, 0xb2, 0x0b,
        0x57, 0x04, 0xb2, 0x0b, 0x56, 0x04, 0xb2, 0x0b, 0x55, 0x04, 0xb2, 0x0b,
        0x54, 0x04, 0xb2, 0x0b, 0x53, 0x04, 0xb2, 0x0b, 0x52, 0x08, 0xb2, 0x0b,
        0x51, 0x04, 0xb2, 0x0b, 0x50, 0x04, 0xb2, 0x0b, 0x4f, 0x04, 0xb2, 0x0b,
        0x4e, 0x04, 0xb2, 0x0b, 0x4d, 0x04, 0xb2, 0x0b, 0x4c, 0x04, 0xb2, 0x0b,
        0x4b, 0x04, 0xb2, 0x0b, 0x4a, 0x04, 0xb2, 0x0b, 0x49, 0x04, 0xb2, 0x0b,
        0x48, 0x04, 0xb2, 0x0b, 0x47, 0x04, 0xb2, 0x0b, 0x46, 0x04, 0xb2, 0x0b,
        0x45, 0x04, 0xb2, 0x0b, 0x44, 0x04, 0xb2, 0x0b, 0x43, 0x04, 0xb2, 0x0b,
        0x42, 0x04, 0xb2, 0x0b, 0x41, 0x04, 0xb2, 0x0b, 0x40, 0x08, 0xb2, 0x0b,
        0x3f, 0x04, 0xb2, 0x0b, 0x3e, 0x04, 0xb2, 0x0b, 0x3d, 0x04, 0xb2, 0x0b,
        0x3c, 0x04, 0xb2, 0x0b, 0x3b, 0x04, 0xb2, 0x0b, 0x3a, 0x04, 0xb2, 0x0b,
        0x39, 0x04, 0xb2, 0x0b, 0x38, 0x04, 0xb2, 0x0b, 0x37, 0x04, 0xb2, 0x0b,
        0x36, 0x04, 0xb2, 0x0b, 0x35, 0x04, 0xb2, 0x0b, 0x34, 0x04, 0xb2, 0x0b,
        0x33, 0x04, 0xb2, 0x0b, 0x32, 0x04, 0xb2, 0x0b, 0x31, 0x04, 0xb2, 0x0b,
        0x30, 0x04, 0xb2, 0x0b, 0x2f, 0x04, 0xb2, 0x0b, 0x2e, 0x08, 0xb2, 0x0b,
        0x2d, 0x04, 0xb2, 0x0b, 0x2c, 0x04, 0xb2, 0x0b, 0x2b, 0x04, 0xb2, 0x0b,
        0x2a, 0x04, 0xb2, 0x0b, 0x29, 0x04, 0xb2, 0x0b, 0x28, 0x04, 0xb2, 0x0b,
        0x27, 0x04, 0xb2, 0x0b, 0x26, 0x04, 0xb2, 0x0b, 0x25, 0x04, 0xb2, 0x0b,
        0x24, 0x04, 0xb2, 0x0b, 0x23, 0x04, 0xb2, 0x0b, 0x22, 0x04, 0xb2, 0x0b,
        0x21, 0x04, 0xb2, 0x0b, 0x20, 0x04, 0xb2, 0x0b, 0x1f, 0x04, 0xb2, 0x0b,
        0x1e, 0x04, 0xb2, 0x0b, 0x1d, 0x04, 0xb2, 0x0b, 0x1c, 0x08, 0xb2, 0x0b,
        0x1b, 0x04, 0xb2, 0x0b, 0x1a, 0x04, 0xb2, 0x0b, 0x19, 0x04, 0xb2, 0x0b,
        0x18, 0x04, 0xb2, 0x0b, 0x17, 0x04, 0xb2, 0x0b, 0x16, 0x04, 0xb2, 0x0b,
        0x15, 0x04, 0xb2, 0x0b, 0x14, 0x04, 0xb2, 0x0b, 0x13, 0x04, 0xb2, 0x0b,
        0x12, 0x04, 0xb2, 0x0b, 0x11, 0x04, 0xb2, 0x0b, 0x10, 0x04, 0xb2, 0x0b,
        0x0f, 0x04, 0xb2, 0x0b, 0x0e, 0x04, 0xb2, 0x0b, 0x0d, 0x04, 0xb2, 0x0b,
        0x0c, 0x04, 0xb2, 0x0b, 0x0b, 0x04, 0xb2, 0x0b, 0x0a, 0x04, 0x82, 0x4c,
        0x00, 0x00, 0x82, 0x4f, 0x00, 0x00, 0x82, 0x54, 0x00, 0x00, 0xff, 0x2f,
        0x00, 0x4d, 0x54, 0x72, 0x6b, 0x00, 0x00, 0x1a, 0x66, 0x00, 0xff, 0x03,
        0x03, 0x74, 0x6b, 0x34, 0x00, 0xff, 0x20, 0x01, 0x03, 0x00, 0xb3, 0x07,
        0x64, 0x00, 0xc3, 0x02, 0x81, 0x62, 0xb3, 0x00, 0x00, 0x00, 0xb3, 0x20,
        0x00, 0x00, 0xc3, 0x16, 0x02, 0xb3, 0x07, 0x64, 0x00, 0xb3, 0x0a, 0x40,
        0x00, 0xb3, 0x0b, 0x7f, 0x02, 0xb3, 0x5b, 0x64, 0x00, 0xb3, 0x5d, 0x14,
        0x81, 0x36, 0xb3, 0x63, 0x01, 0x02, 0xb3, 0x62, 0x20, 0x02, 0xb3, 0x06,
        0x33, 0x02, 0xb3, 0x63, 0x01, 0x02, 0xb3, 0x62, 0x21, 0x02, 0xb3, 0x06,
        0x48, 0x02, 0xb3, 0x65, 0x00, 0x02, 0xb3, 0x64, 0x00, 0x02, 0xb3, 0x06,
        0x0c, 0x02, 0xb3, 0x65, 0x7f, 0x02, 0xb3, 0x64, 0x7f, 0x9b, 0x64, 0xe3,
        0x00, 0x3a, 0x00, 0x93, 0x43, 0x6e, 0x04, 0xe3, 0x00, 0x3d, 0x04, 0xe3,
        0x00, 0x3e, 0x04, 0xe3, 0x00, 0x3f, 0x04, 0xe3, 0x00, 0x40, 0x0c, 0x83,
        0x43, 0x00, 0x14, 0x93, 0x43, 0x66, 0x18, 0x83, 0x43, 0x00, 0x18, 0x93,
        0x43, 0x5e, 0x68, 0x83, 0x43, 0x00, 0x20, 0x93, 0x43, 0x69, 0x81, 0x20,
        0x83, 0x43, 0x00, 0x20, 0x93, 0x47, 0x6c, 0x00, 0xe3, 0x00, 0x35, 0x04,
        0xe3, 0x00, 0x38, 0x04, 0xe3, 0x00, 0x3a, 0x04, 0xe3, 0x00, 0x3b, 0x04,
        0xe3, 0x00, 0x3c, 0x04, 0xe3, 0x00, 0x3d, 0x04, 0xe3, 0x00, 0x3e, 0x08,
        0xe3, 0x00, 0x3f, 0x0c, 0xe3, 0x00, 0x40, 0x20, 0x83, 0x47, 0x00, 0x18,
        0x93, 0x47, 0x6c, 0x2c, 0x93, 0x45, 0x64, 0x04, 0x83, 0x47, 0x00, 0x30,
        0xb3, 0x01, 0x14, 0x00, 0xb3, 0x0b, 0x7f, 0x50, 0xb3, 0x0b, 0x7e, 0x30,
        0xb3, 0x0b, 0x7d, 0x10, 0xb3, 0x0b, 0x7c, 0x18, 0xb3, 0x0b, 0x7b, 0x10,
        0xb3, 0x0b, 0x7a, 0x08, 0xb3, 0x0b, 0x79, 0x0c, 0xb3, 0x0b, 0x78, 0x08,
        0xb3, 0x0b, 0x77, 0x0c, 0xb3, 0x0b, 0x76, 0x08, 0xb3, 0x0b, 0x75, 0x04,
        0xb3, 0x0b, 0x74, 0x04, 0xb3, 0x0b, 0x73, 0x08, 0xb3, 0x0b, 0x72, 0x04,
        0xb3, 0x0b, 0x71, 0x08, 0xb3, 0x0b, 0x6f, 0x04, 0xb3, 0x0b, 0x6e, 0x08,
        0xb3, 0x0b, 0x6c, 0x04, 0xb3, 0x0b, 0x6b, 0x04, 0xb3, 0x0b, 0x6a, 0x04,
        0xb3, 0x0b, 0x69, 0x04, 0xb3, 0x0b, 0x67, 0x04, 0xb3, 0x0b, 0x66, 0x04,
        0xb3, 0x0b, 0x64, 0x04, 0xb3, 0x0b, 0x62, 0x04, 0xb3, 0x0b, 0x61, 0x04,
        0xb3, 0x0b, 0x5f, 0x04, 0xb3, 0x0b, 0x5d, 0x04, 0xb3, 0x0b, 0x5c, 0x04,
        0xb3, 0x0b, 0x59, 0x04, 0xb3, 0x0b, 0x57, 0x04, 0xb3, 0x0b, 0x55, 0x04,
        0xb3, 0x0b, 0x52, 0x04, 0xb3, 0x0b, 0x4e, 0x04, 0xb3, 0x0b, 0x4d, 0x04,
        0xb3, 0x0b, 0x49, 0x04, 0xb3, 0x0b, 0x45, 0x04, 0xb3, 0x0b, 0x43, 0x04,
        0xb3, 0x0b, 0x3f, 0x04, 0xb3, 0x0b, 0x3a, 0x04, 0xb3, 0x0b, 0x37, 0x04,
        0xb3, 0x0b, 0x33, 0x04, 0xb3, 0x0b, 0x2d, 0x04, 0xb3, 0x0b, 0x2a, 0x04,
        0xb3, 0x0b, 0x24, 0x04, 0x83, 0x45, 0x00, 0x00, 0xb3, 0x0b, 0x1d, 0x83,
        0x00, 0xb3, 0x01, 0x00, 0x00, 0xb3, 0x0b, 0x7f, 0x81, 0x0c, 0x93, 0x43,
        0x69, 0x14, 0x83, 0x43, 0x00, 0x18, 0x93, 0x43, 0x67, 0x40, 0x83, 0x43,
        0x00, 0x24, 0x93, 0x43, 0x64, 0x81, 0x20, 0x83, 0x43, 0x00, 0x20, 0xe3,
        0x00, 0x3b, 0x00, 0x93, 0x47, 0x6a, 0x04, 0xe3, 0x00, 0x3c, 0x04, 0xe3,
        0x00, 0x3d, 0x0c, 0xe3, 0x00, 0x3e, 0x0c, 0xe3, 0x00, 0x3f, 0x18, 0xe3,
        0x00, 0x40, 0x74, 0x83, 0x47, 0x00, 0x14, 0x93, 0x47, 0x65, 0x34, 0x83,
        0x47, 0x00, 0x00, 0x93, 0x45, 0x63, 0x30, 0xb3, 0x0b, 0x7f, 0x00, 0xb3,
        0x01, 0x14, 0x50, 0xb3, 0x0b, 0x7e, 0x30, 0xb3, 0x0b, 0x7d, 0x10, 0xb3,
        0x0b, 0x7c, 0x18, 0xb3, 0x0b, 0x7b, 0x10, 0xb3, 0x0b, 0x7a, 0x08, 0xb3,
        0x0b, 0x79, 0x0c, 0xb3, 0x0b, 0x78, 0x0c, 0xb3, 0x0b, 0x77, 0x08, 0xb3,
        0x0b, 0x76, 0x08, 0xb3, 0x0b, 0x75, 0x08, 0xb3, 0x0b, 0x73, 0x08, 0xb3,
        0x0b, 0x72, 0x04, 0xb3, 0x0b, 0x71, 0x08, 0xb3, 0x0b, 0x70, 0x04, 0xb3,
        0x0b, 0x6f, 0x04, 0xb3, 0x0b, 0x6e, 0x04, 0xb3, 0x0b, 0x6d, 0x04, 0xb3,
        0x0b, 0x6c, 0x04, 0xb3, 0x0b, 0x6a, 0x04, 0xb3, 0x0b, 0x69, 0x04, 0xb3,
        0x0b, 0x67, 0x08, 0xb3, 0x0b, 0x65, 0x04, 0xb3, 0x0b, 0x63, 0x04, 0xb3,
        0x0b, 0x62, 0x04, 0xb3, 0x0b, 0x60, 0x04, 0xb3, 0x0b, 0x5e, 0x04, 0xb3,
        0x0b, 0x5c, 0x04, 0xb3, 0x0b, 0x5a, 0x04, 0xb3, 0x0b, 0x57, 0x04, 0xb3,
        0x0b, 0x55, 0x04, 0xb3, 0x0b, 0x53, 0x04, 0xb3, 0x0b, 0x4f, 0x04, 0xb3,
        0x0b, 0x4e, 0x04, 0xb3, 0x0b, 0x4a, 0x04, 0xb3, 0x0b, 0x46, 0x04, 0xb3,
        0x0b, 0x44, 0x04, 0xb3, 0x0b, 0x40, 0x04, 0xb3, 0x0b, 0x3c, 0x04, 0xb3,
        0x0b, 0x39, 0x04, 0xb3, 0x0b, 0x34, 0x04, 0xb3, 0x0b, 0x2f, 0x04, 0xb3,
        0x0b, 0x2b, 0x04, 0xb3, 0x0b, 0x26, 0x04, 0x83, 0x45, 0x00, 0x00, 0xb3,
        0x0b, 0x1f, 0x83, 0x00, 0xb3, 0x0b, 0x7f, 0x81, 0x40, 0x93, 0x43, 0x63,
        0x38, 0x83, 0x43, 0x00, 0x2c, 0x93, 0x43, 0x66, 0x82, 0x18, 0x83, 0x43,
        0x00, 0x00, 0x93, 0x47, 0x65, 0x00, 0xe3, 0x00, 0x3b, 0x04, 0xe3, 0x00,
        0x3d, 0x08, 0xe3, 0x00, 0x3e, 0x08, 0xe3, 0x00, 0x3f, 0x0c, 0xe3, 0x00,
        0x40, 0x28, 0x83, 0x47, 0x00, 0x20, 0x93, 0x47, 0x6a, 0x2c, 0x83, 0x47,
        0x00, 0x04, 0x93, 0x45, 0x66, 0x2c, 0xb3, 0x0b, 0x7f, 0x00, 0xb3, 0x01,
        0x14, 0x50, 0xb3, 0x0b, 0x7e, 0x24, 0xb3, 0x0b, 0x7d, 0x1c, 0xb3, 0x0b,
        0x7c, 0x14, 0xb3, 0x0b, 0x7b, 0x0c, 0xb3, 0x0b, 0x7a, 0x10, 0xb3, 0x0b,
        0x79, 0x08, 0xb3, 0x0b, 0x78, 0x0c, 0xb3, 0x0b, 0x77, 0x04, 0xb3, 0x0b,
        0x76, 0x08, 0xb3, 0x0b, 0x75, 0x08, 0xb3, 0x0b, 0x74, 0x04, 0xb3, 0x0b,
        0x73, 0x04, 0xb3, 0x0b, 0x72, 0x08, 0xb3, 0x0b, 0x71, 0x04, 0xb3, 0x0b,
        0x70, 0x04, 0xb3, 0x0b, 0x6f, 0x04, 0xb3, 0x0b, 0x6e, 0x04, 0xb3, 0x0b,
        0x6d, 0x04, 0xb3, 0x0b, 0x6c, 0x04, 0xb3, 0x0b, 0x6b, 0x04, 0xb3, 0x0b,
        0x69, 0x04, 0xb3, 0x0b, 0x68, 0x04, 0xb3, 0x0b, 0x67, 0x04, 0xb3, 0x0b,
        0x65, 0x04, 0xb3, 0x0b, 0x64, 0x04, 0xb3, 0x0b, 0x62, 0x04, 0xb3, 0x0b,
        0x60, 0x04, 0xb3, 0x0b, 0x5e, 0x04, 0xb3, 0x0b, 0x5c, 0x04, 0xb3, 0x0b,
        0x5a, 0x04, 0xb3, 0x0b, 0x58, 0x04, 0xb3, 0x0b, 0x56, 0x04, 0xb3, 0x0b,
        0x53, 0x04, 0xb3, 0x0b, 0x51, 0x04, 0xb3, 0x0b, 0x4e, 0x04, 0xb3, 0x0b,
        0x4a, 0x04, 0xb3, 0x0b, 0x48, 0x04, 0xb3, 0x0b, 0x44, 0x04, 0xb3, 0x0b,
        0x40, 0x04, 0xb3, 0x0b, 0x3d, 0x04, 0xb3, 0x0b, 0x39, 0x04, 0xb3, 0x0b,
        0x34, 0x04, 0xb3, 0x0b, 0x31, 0x04, 0xb3, 0x0b, 0x2b, 0x04, 0xb3, 0x0b,
        0x26, 0x04, 0xb3, 0x0b, 0x22, 0x04, 0xb3, 0x0b, 0x1c, 0x04, 0x83, 0x45,
        0x00, 0x00, 0xb3, 0x0b, 0x14, 0x83, 0x00, 0xb3, 0x0b, 0x7f, 0x00, 0xb3,
        0x01, 0x00, 0x82, 0x4c, 0x93, 0x3c, 0x6a, 0x30, 0x83, 0x3c, 0x00, 0x04,
        0x93, 0x43, 0x64, 0x18, 0x83, 0x43, 0x00, 0x18, 0x93, 0x43, 0x69, 0x81,
        0x18, 0xe3, 0x00, 0x3b, 0x00, 0x93, 0x47, 0x6e, 0x04, 0x83, 0x43, 0x00,
        0x00, 0xe3, 0x00, 0x3d, 0x04, 0xe3, 0x00, 0x3e, 0x08, 0xe3, 0x00, 0x3f,
        0x0c, 0xe3, 0x00, 0x40, 0x2c, 0x83, 0x47, 0x00, 0x14, 0x93, 0x47, 0x65,
        0x44, 0x83, 0x47, 0x00, 0x18, 0x93, 0x47, 0x65, 0x28, 0x83, 0x47, 0x00,
        0x04, 0xb3, 0x0b, 0x7f, 0x00, 0x93, 0x45, 0x69, 0x60, 0xb3, 0x0b, 0x7e,
        0x28, 0xb3, 0x0b, 0x7d, 0x1c, 0xb3, 0x0b, 0x7c, 0x14, 0xb3, 0x0b, 0x7b,
        0x10, 0xb3, 0x0b, 0x7a, 0x0c, 0xb3, 0x0b, 0x79, 0x08, 0xb3, 0x0b, 0x78,
        0x0c, 0xb3, 0x0b, 0x77, 0x08, 0xb3, 0x0b, 0x76, 0x04, 0xb3, 0x0b, 0x75,
        0x08, 0xb3, 0x0b, 0x74, 0x08, 0xb3, 0x0b, 0x73, 0x04, 0xb3, 0x0b, 0x72,
        0x04, 0xb3, 0x0b, 0x71, 0x04, 0xb3, 0x0b, 0x70, 0x04, 0xb3, 0x0b, 0x6f,
        0x04, 0xb3, 0x0b, 0x6e, 0x08, 0xb3, 0x0b, 0x6c, 0x04, 0xb3, 0x0b, 0x6b,
        0x04, 0xb3, 0x0b, 0x6a, 0x04, 0xb3, 0x0b, 0x68, 0x04, 0xb3, 0x0b, 0x67,
        0x04, 0xb3, 0x0b, 0x66, 0x04, 0xb3, 0x0b, 0x64, 0x04, 0xb3, 0x0b, 0x63,
        0x04, 0xb3, 0x0b, 0x61, 0x04, 0xb3, 0x0b, 0x5f, 0x04, 0xb3, 0x0b, 0x5d,
        0x04, 0xb3, 0x0b, 0x5b, 0x04, 0xb3, 0x0b, 0x58, 0x04, 0xb3, 0x0b, 0x57,
        0x04, 0xb3, 0x0b, 0x54, 0x04, 0xb3, 0x0b, 0x51, 0x04, 0xb3, 0x0b, 0x4f,
        0x04, 0xb3, 0x0b, 0x4c, 0x04, 0xb3, 0x0b, 0x48, 0x04, 0xb3, 0x0b, 0x46,
        0x04, 0xb3, 0x0b, 0x42, 0x04, 0xb3, 0x0b, 0x3e, 0x04, 0xb3, 0x0b, 0x3b,
        0x04, 0xb3, 0x0b, 0x37, 0x04, 0x83, 0x45, 0x00, 0x00, 0xb3, 0x0b, 0x31,
        0x82, 0x54, 0xb3, 0x0b, 0x7f, 0x81, 0x08, 0x93, 0x45, 0x6c, 0x34, 0x93,
        0x48, 0x6c, 0x04, 0x83, 0x45, 0x00, 0x3c, 0x83, 0x48, 0x00, 0x04, 0x93,
        0x45, 0x6a, 0x48, 0x83, 0x45, 0x00, 0x08, 0x93, 0x48, 0x6f, 0x00, 0xb3,
        0x01, 0x14, 0x81, 0x48, 0x83, 0x48, 0x00, 0x18, 0xe3, 0x00, 0x36, 0x00,
        0x93, 0x4c, 0x72, 0x04, 0xe3, 0x00, 0x39, 0x04, 0xe3, 0x00, 0x3a, 0x04,
        0xe3, 0x00, 0x3b, 0x04, 0xe3, 0x00, 0x3c, 0x04, 0xe3, 0x00, 0x3d, 0x04,
        0xe3, 0x00, 0x3e, 0x08, 0xe3, 0x00, 0x3f, 0x0c, 0xe3, 0x00, 0x40, 0x24,
        0x83, 0x4c, 0x00, 0x18, 0x93, 0x4c, 0x6e, 0x64, 0x93, 0x4a, 0x6a, 0x04,
        0x83, 0x4c, 0x00, 0x28, 0x93, 0x48, 0x5a, 0x0c, 0x83, 0x4a, 0x00, 0x30,
        0x83, 0x48, 0x00, 0x00, 0xb3, 0x0b, 0x7f, 0x00, 0x93, 0x45, 0x6c, 0x00,
        0xb3, 0x01, 0x14, 0x64, 0xb3, 0x0b, 0x7e, 0x28, 0xb3, 0x0b, 0x7d, 0x18,
        0xb3, 0x0b, 0x7c, 0x18, 0xb3, 0x0b, 0x7b, 0x0c, 0xb3, 0x0b, 0x7a, 0x0c,
        0xb3, 0x0b, 0x79, 0x0c, 0xb3, 0x0b, 0x78, 0x08, 0xb3, 0x0b, 0x77, 0x08,
        0xb3, 0x0b, 0x76, 0x08, 0xb3, 0x0b, 0x75, 0x08, 0xb3, 0x0b, 0x74, 0x04,
        0xb3, 0x0b, 0x73, 0x08, 0xb3, 0x0b, 0x72, 0x04, 0xb3, 0x0b, 0x71, 0x04,
        0xb3, 0x0b, 0x70, 0x08, 0xb3, 0x0b, 0x6e, 0x04, 0xb3, 0x0b, 0x6d, 0x04,
        0xb3, 0x0b, 0x6c, 0x04, 0xb3, 0x0b, 0x6b, 0x04, 0xb3, 0x0b, 0x6a, 0x04,
        0xb3, 0x0b, 0x69, 0x04, 0xb3, 0x0b, 0x67, 0x04, 0xb3, 0x0b, 0x66, 0x04,
        0xb3, 0x0b, 0x64, 0x04, 0xb3, 0x0b, 0x63, 0x04, 0xb3, 0x0b, 0x61, 0x04,
        0xb3, 0x0b, 0x5f, 0x04, 0xb3, 0x0b, 0x5d, 0x04, 0xb3, 0x0b, 0x5c, 0x04,
        0xb3, 0x0b, 0x59, 0x04, 0xb3, 0x0b, 0x57, 0x04, 0xb3, 0x0b, 0x55, 0x04,
        0xb3, 0x0b, 0x52, 0x04, 0xb3, 0x0b, 0x50, 0x04, 0xb3, 0x0b, 0x4d, 0x04,
        0xb3, 0x0b, 0x49, 0x04, 0xb3, 0x0b, 0x47, 0x04, 0xb3, 0x0b, 0x43, 0x04,
        0xb3, 0x0b, 0x3f, 0x04, 0xb3, 0x0b, 0x3c, 0x04, 0x83, 0x45, 0x00, 0x00,
        0xb3, 0x0b, 0x38, 0x04, 0xb3, 0x0b, 0x32, 0x82, 0x18, 0xb3, 0x0b, 0x7f,
        0x00, 0xb3, 0x01, 0x00, 0x00, 0x93, 0x47, 0x69, 0x00, 0xe3, 0x00, 0x3a,
        0x04, 0xe3, 0x00, 0x3c, 0x04, 0xe3, 0x00, 0x3d, 0x04, 0xe3, 0x00, 0x3e,
        0x08, 0xe3, 0x00, 0x3f, 0x0c, 0xe3, 0x00, 0x40, 0x18, 0x83, 0x47, 0x00,
        0x24, 0x93, 0x47, 0x6c, 0x81, 0x74, 0x83, 0x47, 0x00, 0x2c, 0x93, 0x47,
        0x6b, 0x81, 0x3c, 0x83, 0x47, 0x00, 0x00, 0x93, 0x48, 0x6d, 0x40, 0x83,
        0x48, 0x00, 0x28, 0x93, 0x4a, 0x6e, 0x00, 0xe3, 0x00, 0x2f, 0x04, 0xe3,
        0x00, 0x33, 0x04, 0xe3, 0x00, 0x36, 0x04, 0xe3, 0x00, 0x38, 0x04, 0xe3,
        0x00, 0x3a, 0x04, 0xe3, 0x00, 0x3b, 0x04, 0xe3, 0x00, 0x3d, 0x08, 0xe3,
        0x00, 0x3e, 0x04, 0xe3, 0x00, 0x3f, 0x0c, 0xe3, 0x00, 0x40, 0x83, 0x24,
        0x83, 0x4a, 0x00, 0x04, 0x93, 0x4c, 0x5a, 0x00, 0xe3, 0x00, 0x3b, 0x04,
        0xe3, 0x00, 0x3c, 0x04, 0xe3, 0x00, 0x3d, 0x04, 0xe3, 0x00, 0x3e, 0x08,
        0xe3, 0x00, 0x3f, 0x0c, 0xe3, 0x00, 0x40, 0x10, 0x83, 0x4c, 0x00, 0x3c,
        0x93, 0x4f, 0x5f, 0x00, 0xb3, 0x01, 0x1e, 0x81, 0x3c, 0x93, 0x4c, 0x50,
        0x00, 0xb3, 0x01, 0x1e, 0x0c, 0x83, 0x4f, 0x00, 0x24, 0xe3, 0x18, 0x3e,
        0x04, 0xe3, 0x0c, 0x3c, 0x04, 0xe3, 0x60, 0x39, 0x04, 0xe3, 0x1c, 0x35,
        0x64, 0x83, 0x4c, 0x00, 0x81, 0x04, 0xe3, 0x00, 0x40, 0x00, 0xb3, 0x01,
        0x00, 0x00, 0x93, 0x43, 0x64, 0x28, 0x83, 0x43, 0x00, 0x18, 0x93, 0x43,
        0x6c, 0x1c, 0x83, 0x43, 0x00, 0x1c, 0x93, 0x43, 0x67, 0x20, 0x83, 0x43,
        0x00, 0x20, 0x93, 0x43, 0x64, 0x81, 0x44, 0x83, 0x43, 0x00, 0x00, 0x93,
        0x47, 0x6a, 0x44, 0x83, 0x47, 0x00, 0x1c, 0x93, 0x47, 0x6d, 0x30, 0x93,
        0x45, 0x62, 0x08, 0x83, 0x47, 0x00, 0x4c, 0x83, 0x45, 0x00, 0x14, 0x93,
        0x45, 0x6f, 0x00, 0xb3, 0x0b, 0x7f, 0x60, 0xb3, 0x0b, 0x7e, 0x30, 0xb3,
        0x0b, 0x7d, 0x18, 0xb3, 0x0b, 0x7c, 0x18, 0xb3, 0x0b, 0x7b, 0x0c, 0xb3,
        0x0b, 0x7a, 0x0c, 0xb3, 0x0b, 0x79, 0x0c, 0xb3, 0x0b, 0x78, 0x0c, 0xb3,
        0x0b, 0x77, 0x04, 0xb3, 0x0b, 0x76, 0x08, 0xb3, 0x0b, 0x75, 0x08, 0xb3,
        0x0b, 0x74, 0x04, 0xb3, 0x0b, 0x73, 0x08, 0xb3, 0x0b, 0x72, 0x04, 0xb3,
        0x0b, 0x71, 0x04, 0xb3, 0x0b, 0x70, 0x04, 0xb3, 0x0b, 0x6f, 0x04, 0xb3,
        0x0b, 0x6e, 0x04, 0xb3, 0x0b, 0x6d, 0x04, 0xb3, 0x0b, 0x6c, 0x04, 0xb3,
        0x0b, 0x6b, 0x04, 0xb3, 0x0b, 0x6a, 0x04, 0xb3, 0x0b, 0x69, 0x04, 0xb3,
        0x0b, 0x67, 0x04, 0xb3, 0x0b, 0x66, 0x04, 0xb3, 0x0b, 0x64, 0x04, 0xb3,
        0x0b, 0x62, 0x04, 0xb3, 0x0b, 0x61, 0x04, 0xb3, 0x0b, 0x5f, 0x04, 0xb3,
        0x0b, 0x5c, 0x04, 0xb3, 0x0b, 0x5b, 0x04, 0xb3, 0x0b, 0x59, 0x04, 0xb3,
        0x0b, 0x56, 0x04, 0xb3, 0x0b, 0x54, 0x04, 0xb3, 0x0b, 0x51, 0x04, 0xb3,
        0x0b, 0x4e, 0x04, 0xb3, 0x0b, 0x4c, 0x04, 0xb3, 0x0b, 0x49, 0x04, 0xb3,
        0x0b, 0x45, 0x04, 0xb3, 0x0b, 0x42, 0x04, 0xb3, 0x0b, 0x3e, 0x04, 0x83,
        0x45, 0x00, 0x00, 0xb3, 0x0b, 0x39, 0x82, 0x48, 0xb3, 0x0b, 0x7f, 0x81,
        0x0c, 0x93, 0x3c, 0x6c, 0x34, 0x83, 0x3c, 0x00, 0x00, 0x93, 0x43, 0x6f,
        0x20, 0x83, 0x43, 0x00, 0x1c, 0x93, 0x43, 0x6d, 0x18, 0x83, 0x43, 0x00,
        0x18, 0xb3, 0x01, 0x1e, 0x00, 0x93, 0x43, 0x66, 0x81, 0x70, 0x83, 0x43,
        0x00, 0x1c, 0xe3, 0x00, 0x3b, 0x00, 0xb3, 0x01, 0x00, 0x00, 0x93, 0x47,
        0x69, 0x04, 0xe3, 0x00, 0x3d, 0x08, 0xe3, 0x00, 0x3e, 0x04, 0xe3, 0x00,
        0x3f, 0x0c, 0xe3, 0x00, 0x40, 0x30, 0x83, 0x47, 0x00, 0x18, 0x93, 0x47,
        0x6c, 0x34, 0x93, 0x45, 0x62, 0x08, 0x83, 0x47, 0x00, 0x28, 0xb3, 0x0b,
        0x7f, 0x60, 0xb3, 0x0b, 0x7e, 0x28, 0xb3, 0x0b, 0x7d, 0x1c, 0xb3, 0x0b,
        0x7c, 0x10, 0xb3, 0x0b, 0x7b, 0x0c, 0xb3, 0x0b, 0x7a, 0x0c, 0xb3, 0x0b,
        0x79, 0x10, 0xb3, 0x0b, 0x78, 0x08, 0xb3, 0x0b, 0x77, 0x08, 0xb3, 0x0b,
        0x76, 0x04, 0xb3, 0x0b, 0x75, 0x08, 0xb3, 0x0b, 0x74, 0x04, 0xb3, 0x0b,
        0x73, 0x08, 0xb3, 0x0b, 0x72, 0x04, 0xb3, 0x0b, 0x71, 0x08, 0xb3, 0x0b,
        0x70, 0x04, 0xb3, 0x0b, 0x6f, 0x04, 0xb3, 0x0b, 0x6e, 0x04, 0xb3, 0x0b,
        0x6d, 0x04, 0xb3, 0x0b, 0x6b, 0x08, 0xb3, 0x0b, 0x69, 0x04, 0xb3, 0x0b,
        0x67, 0x08, 0xb3, 0x0b, 0x65, 0x04, 0xb3, 0x0b, 0x63, 0x04, 0xb3, 0x0b,
        0x62, 0x04, 0xb3, 0x0b, 0x60, 0x04, 0xb3, 0x0b, 0x5e, 0x04, 0xb3, 0x0b,
        0x5c, 0x04, 0xb3, 0x0b, 0x5a, 0x04, 0xb3, 0x0b, 0x57, 0x04, 0xb3, 0x0b,
        0x55, 0x04, 0xb3, 0x0b, 0x53, 0x04, 0xb3, 0x0b, 0x4f, 0x04, 0xb3, 0x0b,
        0x4e, 0x04, 0xb3, 0x0b, 0x4a, 0x04, 0xb3, 0x0b, 0x46, 0x04, 0xb3, 0x0b,
        0x44, 0x04, 0xb3, 0x0b, 0x40, 0x04, 0xb3, 0x0b, 0x3b, 0x04, 0xb3, 0x0b,
        0x39, 0x04, 0xb3, 0x0b, 0x34, 0x04, 0x83, 0x45, 0x00, 0x00, 0xb3, 0x0b,
        0x2e, 0x83, 0x00, 0xb3, 0x0b, 0x7f, 0x81, 0x3c, 0x93, 0x43, 0x67, 0x18,
        0x83, 0x43, 0x00, 0x20, 0x93, 0x43, 0x69, 0x14, 0x83, 0x43, 0x00, 0x18,
        0x93, 0x43, 0x6a, 0x1c, 0x83, 0x43, 0x00, 0x18, 0xe3, 0x00, 0x3b, 0x00,
        0x93, 0x43, 0x69, 0x04, 0xe3, 0x00, 0x3c, 0x08, 0xe3, 0x00, 0x3d, 0x0c,
        0xe3, 0x00, 0x3e, 0x10, 0xe3, 0x00, 0x3f, 0x1c, 0xe3, 0x00, 0x40, 0x81,
        0x24, 0x83, 0x43, 0x00, 0x00, 0xe3, 0x00, 0x3a, 0x00, 0x93, 0x47, 0x6b,
        0x04, 0xe3, 0x00, 0x3c, 0x04, 0xe3, 0x00, 0x3d, 0x08, 0xe3, 0x00, 0x3e,
        0x04, 0xe3, 0x00, 0x3f, 0x0c, 0xe3, 0x00, 0x40, 0x28, 0x83, 0x47, 0x00,
        0x1c, 0x93, 0x47, 0x6a, 0x2c, 0x93, 0x45, 0x6a, 0x04, 0x83, 0x47, 0x00,
        0x54, 0x83, 0x45, 0x00, 0x14, 0x93, 0x45, 0x68, 0x00, 0xb3, 0x0b, 0x7f,
        0x50, 0xb3, 0x0b, 0x7e, 0x30, 0xb3, 0x0b, 0x7d, 0x1c, 0xb3, 0x0b, 0x7c,
        0x14, 0xb3, 0x0b, 0x7b, 0x0c, 0xb3, 0x0b, 0x7a, 0x0c, 0xb3, 0x0b, 0x79,
        0x0c, 0xb3, 0x0b, 0x78, 0x08, 0xb3, 0x0b, 0x77, 0x0c, 0xb3, 0x0b, 0x76,
        0x04, 0xb3, 0x0b, 0x75, 0x08, 0xb3, 0x0b, 0x74, 0x04, 0xb3, 0x0b, 0x73,
        0x08, 0xb3, 0x0b, 0x72, 0x04, 0xb3, 0x0b, 0x71, 0x04, 0xb3, 0x0b, 0x70,
        0x04, 0xb3, 0x0b, 0x6f, 0x04, 0xb3, 0x0b, 0x6e, 0x04, 0xb3, 0x0b, 0x6d,
        0x04, 0xb3, 0x0b, 0x6c, 0x04, 0xb3, 0x0b, 0x6b, 0x04, 0xb3, 0x0b, 0x6a,
        0x04, 0xb3, 0x0b, 0x68, 0x04, 0xb3, 0x0b, 0x67, 0x04, 0xb3, 0x0b, 0x66,
        0x04, 0xb3, 0x0b, 0x64, 0x04, 0xb3, 0x0b, 0x62, 0x04, 0xb3, 0x0b, 0x61,
        0x04, 0xb3, 0x0b, 0x5f, 0x04, 0xb3, 0x0b, 0x5d, 0x04, 0xb3, 0x0b, 0x5c,
        0x04, 0xb3, 0x0b, 0x59, 0x04, 0xb3, 0x0b, 0x57, 0x04, 0xb3, 0x0b, 0x55,
        0x04, 0xb3, 0x0b, 0x51, 0x04, 0xb3, 0x0b, 0x50, 0x04, 0xb3, 0x0b, 0x4c,
        0x04, 0xb3, 0x0b, 0x49, 0x04, 0xb3, 0x0b, 0x47, 0x04, 0xb3, 0x0b, 0x43,
        0x04, 0xb3, 0x0b, 0x3e, 0x04, 0xb3, 0x0b, 0x3c, 0x04, 0xb3, 0x0b, 0x37,
        0x04, 0xb3, 0x0b, 0x32, 0x04, 0xb3, 0x0b, 0x2f, 0x04, 0x83, 0x45, 0x00,
        0x00, 0xb3, 0x0b, 0x2a, 0x04, 0xb3, 0x0b, 0x23, 0x82, 0x44, 0xb3, 0x0b,
        0x7f, 0x81, 0x34, 0xe3, 0x00, 0x3b, 0x00, 0x93, 0x43, 0x68, 0x04, 0xe3,
        0x00, 0x3d, 0x04, 0xe3, 0x00, 0x3e, 0x04, 0xe3, 0x00, 0x3f, 0x08, 0xe3,
        0x00, 0x40, 0x14, 0x83, 0x43, 0x00, 0x1c, 0x93, 0x43, 0x69, 0x20, 0x83,
        0x43, 0x00, 0x20, 0x93, 0x43, 0x69, 0x2c, 0x83, 0x43, 0x00, 0x18, 0x93,
        0x43, 0x66, 0x64, 0x83, 0x43, 0x00, 0x00, 0x93, 0x45, 0x6a, 0x28, 0x93,
        0x47, 0x6c, 0x10, 0x83, 0x45, 0x00, 0x68, 0x83, 0x47, 0x00, 0x18, 0x93,
        0x47, 0x6d, 0x30, 0x93, 0x45, 0x68, 0x04, 0x83, 0x47, 0x00, 0x34, 0xb3,
        0x01, 0x1e, 0x00, 0xb3, 0x0b, 0x7f, 0x60, 0xb3, 0x0b, 0x7e, 0x28, 0xb3,
        0x0b, 0x7d, 0x1c, 0xb3, 0x0b, 0x7c, 0x10, 0xb3, 0x0b, 0x7b, 0x0c, 0xb3,
        0x0b, 0x7a, 0x14, 0xb3, 0x0b, 0x79, 0x08, 0xb3, 0x0b, 0x78, 0x08, 0xb3,
        0x0b, 0x77, 0x08, 0xb3, 0x0b, 0x76, 0x04, 0xb3, 0x0b, 0x75, 0x0c, 0xb3,
        0x0b, 0x74, 0x04, 0xb3, 0x0b, 0x73, 0x04, 0xb3, 0x0b, 0x72, 0x04, 0xb3,
        0x0b, 0x71, 0x08, 0xb3, 0x0b, 0x70, 0x04, 0xb3, 0x0b, 0x6f, 0x04, 0xb3,
        0x0b, 0x6e, 0x04, 0xb3, 0x0b, 0x6d, 0x04, 0xb3, 0x0b, 0x6b, 0x08, 0xb3,
        0x0b, 0x69, 0x04, 0xb3, 0x0b, 0x68, 0x04, 0xb3, 0x0b, 0x67, 0x04, 0xb3,
        0x0b, 0x65, 0x04, 0xb3, 0x0b, 0x63, 0x04, 0xb3, 0x0b, 0x62, 0x04, 0xb3,
        0x0b, 0x60, 0x04, 0xb3, 0x0b, 0x5e, 0x04, 0xb3, 0x0b, 0x5c, 0x04, 0xb3,
        0x0b, 0x5a, 0x04, 0xb3, 0x0b, 0x57, 0x04, 0xb3, 0x0b, 0x56, 0x04, 0xb3,
        0x0b, 0x53, 0x04, 0xb3, 0x0b, 0x50, 0x04, 0xb3, 0x0b, 0x4e, 0x04, 0xb3,
        0x0b, 0x4b, 0x04, 0xb3, 0x0b, 0x47, 0x04, 0xb3, 0x0b, 0x44, 0x04, 0xb3,
        0x0b, 0x41, 0x04, 0xb3, 0x0b, 0x3c, 0x04, 0xb3, 0x0b, 0x39, 0x04, 0xb3,
        0x0b, 0x35, 0x04, 0x83, 0x45, 0x00, 0x00, 0xb3, 0x0b, 0x2f, 0x83, 0x00,
        0xb3, 0x01, 0x00, 0x00, 0xb3, 0x0b, 0x7f, 0x81, 0x0c, 0x93, 0x45, 0x66,
        0x00, 0xe3, 0x00, 0x3b, 0x04, 0xe3, 0x00, 0x3d, 0x04, 0xe3, 0x00, 0x3f,
        0x08, 0xe3, 0x00, 0x40, 0x24, 0x93, 0x48, 0x6a, 0x04, 0x83, 0x45, 0x00,
        0x58, 0x83, 0x48, 0x00, 0x08, 0x93, 0x45, 0x66, 0x5c, 0x83, 0x45, 0x00,
        0x00, 0x93, 0x48, 0x71, 0x81, 0x20, 0x83, 0x48, 0x00, 0x1c, 0x93, 0x4c,
        0x6e, 0x00, 0xe3, 0x00, 0x36, 0x04, 0xe3, 0x00, 0x39, 0x04, 0xe3, 0x00,
        0x3a, 0x04, 0xe3, 0x00, 0x3b, 0x04, 0xe3, 0x00, 0x3d, 0x08, 0xe3, 0x00,
        0x3e, 0x04, 0xe3, 0x00, 0x3f, 0x0c, 0xe3, 0x00, 0x40, 0x1c, 0x83, 0x4c,
        0x00, 0x20, 0x93, 0x4c, 0x6e, 0x54, 0x83, 0x4c, 0x00, 0x10, 0x93, 0x4a,
        0x67, 0x2c, 0x93, 0x48, 0x50, 0x08, 0x83, 0x4a, 0x00, 0x2c, 0x93, 0x45,
        0x69, 0x00, 0xb3, 0x01, 0x1e, 0x00, 0xb3, 0x0b, 0x7f, 0x0c, 0x83, 0x48,
        0x00, 0x44, 0xb3, 0x0b, 0x7e, 0x30, 0xb3, 0x0b, 0x7d, 0x1c, 0xb3, 0x0b,
        0x7c, 0x14, 0xb3, 0x0b, 0x7b, 0x10, 0xb3, 0x0b, 0x7a, 0x0c, 0xb3, 0x0b,
        0x79, 0x08, 0xb3, 0x0b, 0x78, 0x0c, 0xb3, 0x0b, 0x77, 0x08, 0xb3, 0x0b,
        0x76, 0x08, 0xb3, 0x0b, 0x74, 0x08, 0xb3, 0x0b, 0x73, 0x04, 0xb3, 0x0b,
        0x72, 0x08, 0xb3, 0x0b, 0x71, 0x04, 0xb3, 0x0b, 0x70, 0x04, 0xb3, 0x0b,
        0x6f, 0x04, 0xb3, 0x0b, 0x6e, 0x04, 0xb3, 0x0b, 0x6d, 0x04, 0xb3, 0x0b,
        0x6c, 0x04, 0xb3, 0x0b, 0x6b, 0x04, 0xb3, 0x0b, 0x69, 0x08, 0xb3, 0x0b,
        0x67, 0x04, 0xb3, 0x0b, 0x65, 0x04, 0xb3, 0x0b, 0x64, 0x04, 0xb3, 0x0b,
        0x63, 0x04, 0xb3, 0x0b, 0x61, 0x04, 0xb3, 0x0b, 0x5f, 0x04, 0xb3, 0x0b,
        0x5d, 0x04, 0xb3, 0x0b, 0x5b, 0x04, 0xb3, 0x0b, 0x59, 0x04, 0xb3, 0x0b,
        0x57, 0x04, 0xb3, 0x0b, 0x53, 0x04, 0xb3, 0x0b, 0x52, 0x04, 0xb3, 0x0b,
        0x4f, 0x04, 0xb3, 0x0b, 0x4b, 0x04, 0xb3, 0x0b, 0x49, 0x04, 0xb3, 0x0b,
        0x45, 0x04, 0xb3, 0x0b, 0x41, 0x04, 0xb3, 0x0b, 0x3f, 0x04, 0xb3, 0x0b,
        0x3a, 0x04, 0xb3, 0x0b, 0x36, 0x04, 0xb3, 0x0b, 0x32, 0x04, 0xb3, 0x0b,
        0x2d, 0x04, 0x83, 0x45, 0x00, 0x00, 0xb3, 0x0b, 0x27, 0x82, 0x1c, 0xb3,
        0x0b, 0x7f, 0x00, 0xb3, 0x01, 0x00, 0x00, 0x93, 0x47, 0x6b, 0x38, 0x83,
        0x47, 0x00, 0x28, 0x93, 0x47, 0x6a, 0x00, 0xb3, 0x01, 0x14, 0x81, 0x68,
        0x83, 0x47, 0x00, 0x30, 0xb3, 0x01, 0x00, 0x00, 0x93, 0x47, 0x6c, 0x81,
        0x44, 0x83, 0x47, 0x00, 0x00, 0x93, 0x48, 0x70, 0x38, 0x83, 0x48, 0x00,
        0x2c, 0x93, 0x48, 0x6c, 0x30, 0x83, 0x48, 0x00, 0x00, 0x93, 0x4a, 0x69,
        0x82, 0x6c, 0x83, 0x4a, 0x00, 0x44, 0x93, 0x4c, 0x6d, 0x00, 0xe3, 0x00,
        0x3b, 0x04, 0xe3, 0x00, 0x3d, 0x08, 0xe3, 0x00, 0x3e, 0x04, 0xe3, 0x00,
        0x3f, 0x0c, 0xe3, 0x00, 0x40, 0x08, 0x83, 0x4c, 0x00, 0x40, 0x93, 0x4f,
        0x72, 0x81, 0x3c, 0x93, 0x4c, 0x6e, 0x00, 0xe3, 0x00, 0x40, 0x0c, 0x83,
        0x4f, 0x00, 0x14, 0xe3, 0x00, 0x3f, 0x08, 0xe3, 0x00, 0x3e, 0x04, 0xe3,
        0x00, 0x3c, 0x04, 0xe3, 0x00, 0x39, 0x04, 0xe3, 0x00, 0x35, 0x28, 0x83,
        0x4c, 0x00, 0x04, 0x93, 0x48, 0x5e, 0x00, 0xb3, 0x01, 0x1e, 0x00, 0xe3,
        0x00, 0x40, 0x81, 0x00, 0x83, 0x48, 0x00, 0x70, 0x93, 0x45, 0x6c, 0x00,
        0xb3, 0x01, 0x00, 0x30, 0x93, 0x48, 0x6d, 0x08, 0x83, 0x45, 0x00, 0x58,
        0x93, 0x47, 0x6c, 0x04, 0x83, 0x48, 0x00, 0x5c, 0x93, 0x48, 0x69, 0x08,
        0x83, 0x47, 0x00, 0x20, 0x93, 0x47, 0x66, 0x10, 0x83, 0x48, 0x00, 0x24,
        0x93, 0x45, 0x69, 0x10, 0x83, 0x47, 0x00, 0x34, 0x83, 0x45, 0x00, 0x1c,
        0x93, 0x45, 0x6c, 0x30, 0x93, 0x47, 0x6d, 0x08, 0x83, 0x45, 0x00, 0x28,
        0x93, 0x48, 0x72, 0x0c, 0x83, 0x47, 0x00, 0x44, 0x83, 0x48, 0x00, 0x18,
        0xb3, 0x0b, 0x7f, 0x00, 0x93, 0x48, 0x69, 0x74, 0xb3, 0x0b, 0x7e, 0x28,
        0xb3, 0x0b, 0x7d, 0x18, 0xb3, 0x0b, 0x7c, 0x14, 0xb3, 0x0b, 0x7b, 0x0c,
        0xb3, 0x0b, 0x7a, 0x0c, 0xb3, 0x0b, 0x79, 0x0c, 0xb3, 0x0b, 0x78, 0x0c,
        0xb3, 0x0b, 0x77, 0x04, 0xb3, 0x0b, 0x76, 0x08, 0xb3, 0x0b, 0x75, 0x08,
        0xb3, 0x0b, 0x74, 0x04, 0xb3, 0x0b, 0x73, 0x08, 0xb3, 0x0b, 0x72, 0x04,
        0xb3, 0x0b, 0x71, 0x04, 0xb3, 0x0b, 0x70, 0x08, 0xb3, 0x0b, 0x6e, 0x04,
        0xb3, 0x0b, 0x6d, 0x04, 0xb3, 0x0b, 0x6c, 0x04, 0xb3, 0x0b, 0x6b, 0x04,
        0xb3, 0x0b, 0x6a, 0x04, 0xb3, 0x0b, 0x69, 0x04, 0xb3, 0x0b, 0x67, 0x04,
        0xb3, 0x0b, 0x66, 0x04, 0xb3, 0x0b, 0x64, 0x04, 0xb3, 0x0b, 0x63, 0x04,
        0xb3, 0x0b, 0x60, 0x04, 0xb3, 0x0b, 0x5f, 0x04, 0xb3, 0x0b, 0x5d, 0x04,
        0xb3, 0x0b, 0x5b, 0x04, 0xb3, 0x0b, 0x59, 0x04, 0xb3, 0x0b, 0x57, 0x04,
        0xb3, 0x0b, 0x54, 0x04, 0xb3, 0x0b, 0x52, 0x04, 0xb3, 0x0b, 0x4f, 0x04,
        0xb3, 0x0b, 0x4b, 0x04, 0xb3, 0x0b, 0x49, 0x04, 0xb3, 0x0b, 0x46, 0x04,
        0x83, 0x48, 0x00, 0x00, 0xb3, 0x0b, 0x41, 0x82, 0x1c, 0xb3, 0x0b, 0x7f,
        0x81, 0x70, 0x93, 0x45, 0x6e, 0x30, 0x93, 0x48, 0x6c, 0x30, 0x83, 0x45,
        0x00, 0x0c, 0x83, 0x48, 0x00, 0x24, 0x93, 0x47, 0x73, 0x38, 0x83, 0x47,
        0x00, 0x28, 0x93, 0x47, 0x65, 0x30, 0x93, 0x45, 0x6c, 0x08, 0x83, 0x47,
        0x00, 0x40, 0x83, 0x45, 0x00, 0x18, 0x93, 0x45, 0x63, 0x30, 0x93, 0x3e,
        0x6a, 0x08, 0x83, 0x45, 0x00, 0x28, 0x93, 0x40, 0x67, 0x04, 0x83, 0x3e,
        0x00, 0x2c, 0xb3, 0x0b, 0x7f, 0x60, 0xb3, 0x0b, 0x7e, 0x28, 0xb3, 0x0b,
        0x7d, 0x1c, 0xb3, 0x0b, 0x7c, 0x10, 0xb3, 0x0b, 0x7b, 0x0c, 0xb3, 0x0b,
        0x7a, 0x0c, 0xb3, 0x0b, 0x79, 0x0c, 0xb3, 0x0b, 0x78, 0x08, 0xb3, 0x0b,
        0x77, 0x08, 0xb3, 0x0b, 0x76, 0x08, 0xb3, 0x0b, 0x75, 0x08, 0xb3, 0x0b,
        0x74, 0x04, 0xb3, 0x0b, 0x73, 0x08, 0xb3, 0x0b, 0x72, 0x04, 0xb3, 0x0b,
        0x71, 0x04, 0xb3, 0x0b, 0x70, 0x04, 0xb3, 0x0b, 0x6f, 0x04, 0xb3, 0x0b,
        0x6e, 0x04, 0xb3, 0x0b, 0x6d, 0x04, 0xb3, 0x0b, 0x6c, 0x04, 0xb3, 0x0b,
        0x6b, 0x04, 0xb3, 0x0b, 0x6a, 0x04, 0xb3, 0x0b, 0x68, 0x04, 0xb3, 0x0b,
        0x67, 0x04, 0xb3, 0x0b, 0x66, 0x04, 0xb3, 0x0b, 0x64, 0x04, 0xb3, 0x0b,
        0x62, 0x04, 0xb3, 0x0b, 0x61, 0x04, 0xb3, 0x0b, 0x5f, 0x04, 0xb3, 0x0b,
        0x5d, 0x04, 0xb3, 0x0b, 0x5b, 0x04, 0xb3, 0x0b, 0x59, 0x04, 0xb3, 0x0b,
        0x56, 0x04, 0xb3, 0x0b, 0x54, 0x04, 0xb3, 0x0b, 0x51, 0x04, 0xb3, 0x0b,
        0x4e, 0x04, 0xb3, 0x0b, 0x4c, 0x04, 0xb3, 0x0b, 0x49, 0x04, 0xb3, 0x0b,
        0x45, 0x04, 0xb3, 0x0b, 0x42, 0x04, 0xb3, 0x0b, 0x3e, 0x04, 0xb3, 0x0b,
        0x3a, 0x04, 0xb3, 0x0b, 0x37, 0x04, 0xb3, 0x0b, 0x32, 0x04, 0x83, 0x40,
        0x00, 0x00, 0xb3, 0x0b, 0x2c, 0x83, 0x00, 0xb3, 0x0b, 0x7f, 0x81, 0x0c,
        0x93, 0x45, 0x66, 0x14, 0x83, 0x45, 0x00, 0x18, 0x93, 0x45, 0x6c, 0x64,
        0x93, 0x48, 0x6e, 0x08, 0x83, 0x45, 0x00, 0x5c, 0x93, 0x47, 0x6c, 0x0c,
        0x83, 0x48, 0x00, 0x5c, 0x93, 0x48, 0x66, 0x04, 0x83, 0x47, 0x00, 0x24,
        0x93, 0x47, 0x69, 0x0c, 0x83, 0x48, 0x00, 0x20, 0x93, 0x45, 0x6e, 0x0c,
        0x83, 0x47, 0x00, 0x54, 0x93, 0x47, 0x70, 0x04, 0x83, 0x45, 0x00, 0x5c,
        0x93, 0x48, 0x6c, 0x0c, 0x83, 0x47, 0x00, 0x38, 0x83, 0x48, 0x00, 0x18,
        0x93, 0x48, 0x71, 0x34, 0x93, 0x45, 0x69, 0x04, 0x83, 0x48, 0x00, 0x30,
        0x93, 0x43, 0x65, 0x04, 0x83, 0x45, 0x00, 0x81, 0x3c, 0xb3, 0x01, 0x28,
        0x81, 0x40, 0x83, 0x43, 0x00, 0x81, 0x40, 0xb3, 0x01, 0x00, 0x82, 0x20,
        0x93, 0x48, 0x6e, 0x24, 0x83, 0x48, 0x00, 0x0c, 0x93, 0x48, 0x6c, 0x2c,
        0x83, 0x48, 0x00, 0x04, 0x93, 0x4a, 0x69, 0x60, 0x93, 0x4c, 0x62, 0x14,
        0x83, 0x4a, 0x00, 0x18, 0x83, 0x4c, 0x00, 0x04, 0x93, 0x4a, 0x72, 0x30,
        0x83, 0x4a, 0x00, 0x00, 0x93, 0x48, 0x69, 0x60, 0x93, 0x4a, 0x69, 0x04,
        0x83, 0x48, 0x00, 0x5c, 0xe3, 0x00, 0x35, 0x00, 0x93, 0x4c, 0x72, 0x04,
        0xe3, 0x00, 0x39, 0x04, 0x83, 0x4a, 0x00, 0x00, 0xe3, 0x00, 0x3c, 0x04,
        0xe3, 0x00, 0x3e, 0x04, 0xe3, 0x00, 0x3f, 0x08, 0xe3, 0x00, 0x40, 0x1c,
        0x93, 0x48, 0x6a, 0x0c, 0x83, 0x4c, 0x00, 0x14, 0x83, 0x48, 0x00, 0x08,
        0x93, 0x48, 0x6a, 0x00, 0xb3, 0x0b, 0x7f, 0x60, 0xb3, 0x0b, 0x7e, 0x30,
        0xb3, 0x0b, 0x7d, 0x20, 0xb3, 0x0b, 0x7c, 0x10, 0xb3, 0x0b, 0x7b, 0x14,
        0xb3, 0x0b, 0x7a, 0x0c, 0xb3, 0x0b, 0x79, 0x08, 0xb3, 0x0b, 0x78, 0x08,
        0xb3, 0x0b, 0x77, 0x0c, 0xb3, 0x0b, 0x76, 0x08, 0xb3, 0x0b, 0x75, 0x04,
        0xb3, 0x0b, 0x74, 0x08, 0xb3, 0x0b, 0x73, 0x04, 0xb3, 0x0b, 0x72, 0x04,
        0xb3, 0x0b, 0x71, 0x08, 0xb3, 0x0b, 0x6f, 0x08, 0xb3, 0x0b, 0x6e, 0x04,
        0xb3, 0x0b, 0x6c, 0x08, 0xb3, 0x0b, 0x6a, 0x04, 0xb3, 0x0b, 0x69, 0x04,
        0xb3, 0x0b, 0x68, 0x04, 0x83, 0x48, 0x00, 0x00, 0xb3, 0x0b, 0x66, 0x04,
        0xb3, 0x0b, 0x65, 0x04, 0xb3, 0x0b, 0x63, 0x04, 0xb3, 0x0b, 0x62, 0x04,
        0xb3, 0x0b, 0x5f, 0x04, 0xb3, 0x0b, 0x5e, 0x04, 0xb3, 0x0b, 0x5c, 0x04,
        0xb3, 0x0b, 0x59, 0x04, 0xb3, 0x0b, 0x58, 0x04, 0xb3, 0x0b, 0x55, 0x04,
        0xb3, 0x0b, 0x52, 0x04, 0xb3, 0x0b, 0x50, 0x04, 0xb3, 0x0b, 0x4d, 0x04,
        0xb3, 0x0b, 0x4a, 0x04, 0xb3, 0x0b, 0x47, 0x04, 0xb3, 0x0b, 0x44, 0x04,
        0xb3, 0x0b, 0x3f, 0x82, 0x24, 0xb3, 0x0b, 0x7f, 0x81, 0x3c, 0xe3, 0x00,
        0x3a, 0x00, 0x93, 0x43, 0x67, 0x04, 0xe3, 0x00, 0x3c, 0x04, 0xe3, 0x00,
        0x3d, 0x04, 0xe3, 0x00, 0x3e, 0x04, 0xe3, 0x00, 0x3f, 0x08, 0xe3, 0x00,
        0x40, 0x14, 0x83, 0x43, 0x00, 0x20, 0x93, 0x43, 0x6f, 0x1c, 0x83, 0x43,
        0x00, 0x1c, 0x93, 0x43, 0x6f, 0x20, 0x83, 0x43, 0x00, 0x18, 0x93, 0x43,
        0x69, 0x81, 0x34, 0x83, 0x43, 0x00, 0x08, 0x93, 0x47, 0x6e, 0x00, 0xe3,
        0x00, 0x39, 0x04, 0xe3, 0x00, 0x3b, 0x04, 0xe3, 0x00, 0x3c, 0x04, 0xe3,
        0x00, 0x3d, 0x04, 0xe3, 0x00, 0x3e, 0x08, 0xe3, 0x00, 0x3f, 0x0c, 0xe3,
        0x00, 0x40, 0x24, 0x83, 0x47, 0x00, 0x1c, 0x93, 0x47, 0x71, 0x38, 0x83,
        0x47, 0x00, 0x00, 0x93, 0x45, 0x69, 0x50, 0x83, 0x45, 0x00, 0x14, 0x93,
        0x45, 0x64, 0x00, 0xb3, 0x0b, 0x7f, 0x60, 0xb3, 0x0b, 0x7e, 0x28, 0xb3,
        0x0b, 0x7d, 0x1c, 0xb3, 0x0b, 0x7c, 0x14, 0xb3, 0x0b, 0x7b, 0x10, 0xb3,
        0x0b, 0x7a, 0x0c, 0xb3, 0x0b, 0x79, 0x0c, 0xb3, 0x0b, 0x78, 0x08, 0xb3,
        0x0b, 0x77, 0x08, 0xb3, 0x0b, 0x76, 0x08, 0xb3, 0x0b, 0x75, 0x04, 0xb3,
        0x0b, 0x74, 0x08, 0xb3, 0x0b, 0x73, 0x04, 0xb3, 0x0b, 0x72, 0x04, 0xb3,
        0x0b, 0x71, 0x04, 0xb3, 0x0b, 0x70, 0x08, 0xb3, 0x0b, 0x6f, 0x04, 0xb3,
        0x0b, 0x6e, 0x04, 0xb3, 0x0b, 0x6c, 0x08, 0xb3, 0x0b, 0x6a, 0x04, 0xb3,
        0x0b, 0x69, 0x04, 0xb3, 0x0b, 0x68, 0x04, 0xb3, 0x0b, 0x66, 0x04, 0xb3,
        0x0b, 0x64, 0x04, 0xb3, 0x0b, 0x63, 0x04, 0xb3, 0x0b, 0x61, 0x04, 0xb3,
        0x0b, 0x5f, 0x04, 0xb3, 0x0b, 0x5e, 0x04, 0xb3, 0x0b, 0x5c, 0x04, 0xb3,
        0x0b, 0x59, 0x04, 0xb3, 0x0b, 0x57, 0x04, 0xb3, 0x0b, 0x55, 0x04, 0xb3,
        0x0b, 0x52, 0x04, 0xb3, 0x0b, 0x50, 0x04, 0xb3, 0x0b, 0x4d, 0x04, 0xb3,
        0x0b, 0x49, 0x04, 0xb3, 0x0b, 0x47, 0x04, 0xb3, 0x0b, 0x43, 0x04, 0xb3,
        0x0b, 0x3f, 0x04, 0xb3, 0x0b, 0x3c, 0x04, 0xb3, 0x0b, 0x38, 0x04, 0x83,
        0x45, 0x00, 0x00, 0xb3, 0x0b, 0x32, 0x82, 0x4c, 0xb3, 0x0b, 0x7f, 0x81,
        0x18, 0x93, 0x3c, 0x6a, 0x30, 0x83, 0x3c, 0x00, 0x00, 0x93, 0x43, 0x72,
        0x24, 0x83, 0x43, 0x00, 0x20, 0x93, 0x43, 0x69, 0x24, 0x83, 0x43, 0x00,
        0x1c, 0x93, 0x43, 0x6a, 0x81, 0x5c, 0x83, 0x43, 0x00, 0x10, 0x93, 0x47,
        0x6c, 0x00, 0xe3, 0x00, 0x3a, 0x04, 0xe3, 0x00, 0x3c, 0x04, 0xe3, 0x00,
        0x3d, 0x04, 0xe3, 0x00, 0x3e, 0x08, 0xe3, 0x00, 0x3f, 0x0c, 0xe3, 0x00,
        0x40, 0x2c, 0x83, 0x47, 0x00, 0x14, 0x93, 0x47, 0x6d, 0x34, 0x93, 0x45,
        0x66, 0x08, 0x83, 0x47, 0x00, 0x2c, 0xb3, 0x0b, 0x7f, 0x60, 0xb3, 0x0b,
        0x7e, 0x28, 0xb3, 0x0b, 0x7d, 0x20, 0xb3, 0x0b, 0x7c, 0x10, 0xb3, 0x0b,
        0x7b, 0x14, 0xb3, 0x0b, 0x7a, 0x08, 0xb3, 0x0b, 0x79, 0x0c, 0xb3, 0x0b,
        0x78, 0x08, 0xb3, 0x0b, 0x77, 0x08, 0xb3, 0x0b, 0x76, 0x08, 0xb3, 0x0b,
        0x75, 0x08, 0xb3, 0x0b, 0x74, 0x04, 0xb3, 0x0b, 0x73, 0x04, 0xb3, 0x0b,
        0x72, 0x08, 0xb3, 0x0b, 0x71, 0x04, 0xb3, 0x0b, 0x70, 0x04, 0xb3, 0x0b,
        0x6f, 0x04, 0xb3, 0x0b, 0x6e, 0x04, 0xb3, 0x0b, 0x6d, 0x04, 0xb3, 0x0b,
        0x6c, 0x04, 0xb3, 0x0b, 0x6b, 0x04, 0xb3, 0x0b, 0x6a, 0x04, 0xb3, 0x0b,
        0x69, 0x04, 0xb3, 0x0b, 0x67, 0x04, 0xb3, 0x0b, 0x65, 0x04, 0xb3, 0x0b,
        0x64, 0x04, 0xb3, 0x0b, 0x63, 0x04, 0xb3, 0x0b, 0x61, 0x04, 0xb3, 0x0b,
        0x5f, 0x04, 0xb3, 0x0b, 0x5d, 0x04, 0xb3, 0x0b, 0x5a, 0x04, 0xb3, 0x0b,
        0x59, 0x04, 0xb3, 0x0b, 0x56, 0x04, 0xb3, 0x0b, 0x54, 0x04, 0xb3, 0x0b,
        0x52, 0x04, 0xb3, 0x0b, 0x4f, 0x04, 0xb3, 0x0b, 0x4b, 0x04, 0xb3, 0x0b,
        0x49, 0x04, 0xb3, 0x0b, 0x45, 0x04, 0xb3, 0x0b, 0x41, 0x04, 0xb3, 0x0b,
        0x3f, 0x04, 0xb3, 0x0b, 0x3a, 0x04, 0x83, 0x45, 0x00, 0x00, 0xb3, 0x0b,
        0x35, 0x83, 0x00, 0xb3, 0x0b, 0x7f, 0x81, 0x3c, 0x93, 0x43, 0x6a, 0x28,
        0x83, 0x43, 0x00, 0x18, 0x93, 0x43, 0x6e, 0x20, 0x83, 0x43, 0x00, 0x20,
        0x93, 0x43, 0x6e, 0x28, 0x83, 0x43, 0x00, 0x10, 0x93, 0x43, 0x6f, 0x81,
        0x40, 0x83, 0x43, 0x00, 0x08, 0x93, 0x47, 0x6c, 0x00, 0xe3, 0x00, 0x38,
        0x04, 0xe3, 0x00, 0x3a, 0x04, 0xe3, 0x00, 0x3c, 0x04, 0xe3, 0x00, 0x3d,
        0x04, 0xe3, 0x00, 0x3e, 0x08, 0xe3, 0x00, 0x3f, 0x0c, 0xe3, 0x00, 0x40,
        0x24, 0x83, 0x47, 0x00, 0x14, 0x93, 0x47, 0x6d, 0x34, 0x83, 0x47, 0x00,
        0x00, 0x93, 0x45, 0x6c, 0x70, 0x83, 0x45, 0x00, 0x0c, 0x93, 0x45, 0x65,
        0x00, 0xb3, 0x0b, 0x7f, 0x60, 0xb3, 0x0b, 0x7e, 0x28, 0xb3, 0x0b, 0x7d,
        0x20, 0xb3, 0x0b, 0x7c, 0x10, 0xb3, 0x0b, 0x7b, 0x14, 0xb3, 0x0b, 0x7a,
        0x08, 0xb3, 0x0b, 0x79, 0x0c, 0xb3, 0x0b, 0x78, 0x08, 0xb3, 0x0b, 0x77,
        0x08, 0xb3, 0x0b, 0x76, 0x08, 0xb3, 0x0b, 0x75, 0x04, 0xb3, 0x0b, 0x74,
        0x08, 0xb3, 0x0b, 0x73, 0x04, 0xb3, 0x0b, 0x72, 0x08, 0xb3, 0x0b, 0x71,
        0x04, 0xb3, 0x0b, 0x70, 0x04, 0xb3, 0x0b, 0x6f, 0x04, 0xb3, 0x0b, 0x6e,
        0x04, 0xb3, 0x0b, 0x6d, 0x04, 0xb3, 0x0b, 0x6c, 0x04, 0xb3, 0x0b, 0x6b,
        0x04, 0xb3, 0x0b, 0x69, 0x04, 0xb3, 0x0b, 0x68, 0x04, 0xb3, 0x0b, 0x67,
        0x04, 0xb3, 0x0b, 0x65, 0x04, 0xb3, 0x0b, 0x64, 0x04, 0xb3, 0x0b, 0x62,
        0x04, 0xb3, 0x0b, 0x60, 0x04, 0xb3, 0x0b, 0x5f, 0x04, 0xb3, 0x0b, 0x5d,
        0x04, 0xb3, 0x0b, 0x5a, 0x04, 0xb3, 0x0b, 0x59, 0x04, 0xb3, 0x0b, 0x56,
        0x04, 0xb3, 0x0b, 0x53, 0x04, 0xb3, 0x0b, 0x51, 0x04, 0xb3, 0x0b, 0x4e,
        0x04, 0xb3, 0x0b, 0x4a, 0x04, 0xb3, 0x0b, 0x48, 0x04, 0xb3, 0x0b, 0x45,
        0x04, 0xb3, 0x0b, 0x41, 0x04, 0xb3, 0x0b, 0x3e, 0x04, 0xb3, 0x0b, 0x39,
        0x04, 0x83, 0x45, 0x00, 0x00, 0xb3, 0x0b, 0x34, 0x82, 0x38, 0xb3, 0x0b,
        0x7f, 0x81, 0x10, 0x93, 0x43, 0x6a, 0x14, 0x83, 0x43, 0x00, 0x18, 0x93,
        0x43, 0x69, 0x18, 0x83, 0x43, 0x00, 0x20, 0x93, 0x43, 0x6a, 0x81, 0x60,
        0x83, 0x43, 0x00, 0x08, 0x93, 0x47, 0x6c, 0x00, 0xe3, 0x00, 0x39, 0x04,
        0xe3, 0x00, 0x3a, 0x04, 0xe3, 0x00, 0x3b, 0x04, 0xe3, 0x00, 0x3c, 0x08,
        0xe3, 0x00, 0x3d, 0x0c, 0xe3, 0x00, 0x3e, 0x0c, 0xe3, 0x00, 0x3f, 0x18,
        0xe3, 0x00, 0x40, 0x64, 0x83, 0x47, 0x00, 0x1c, 0x93, 0x47, 0x6a, 0x30,
        0x93, 0x45, 0x69, 0x08, 0x83, 0x47, 0x00, 0x28, 0xb3, 0x0b, 0x7f, 0x60,
        0xb3, 0x0b, 0x7e, 0x28, 0xb3, 0x0b, 0x7d, 0x1c, 0xb3, 0x0b, 0x7c, 0x10,
        0xb3, 0x0b, 0x7b, 0x0c, 0xb3, 0x0b, 0x7a, 0x0c, 0xb3, 0x0b, 0x79, 0x0c,
        0xb3, 0x0b, 0x78, 0x08, 0xb3, 0x0b, 0x77, 0x08, 0xb3, 0x0b, 0x76, 0x08,
        0xb3, 0x0b, 0x75, 0x08, 0xb3, 0x0b, 0x74, 0x04, 0xb3, 0x0b, 0x73, 0x08,
        0xb3, 0x0b, 0x72, 0x04, 0xb3, 0x0b, 0x71, 0x04, 0xb3, 0x0b, 0x70, 0x04,
        0xb3, 0x0b, 0x6f, 0x04, 0xb3, 0x0b, 0x6e, 0x04, 0xb3, 0x0b, 0x6d, 0x04,
        0xb3, 0x0b, 0x6c, 0x04, 0xb3, 0x0b, 0x6a, 0x08, 0xb3, 0x0b, 0x68, 0x04,
        0xb3, 0x0b, 0x66, 0x04, 0xb3, 0x0b, 0x65, 0x04, 0xb3, 0x0b, 0x64, 0x04,
        0xb3, 0x0b, 0x62, 0x04, 0xb3, 0x0b, 0x60, 0x04, 0xb3, 0x0b, 0x5e, 0x04,
        0xb3, 0x0b, 0x5c, 0x04, 0xb3, 0x0b, 0x5a, 0x04, 0xb3, 0x0b, 0x58, 0x04,
        0xb3, 0x0b, 0x55, 0x04, 0xb3, 0x0b, 0x53, 0x04, 0xb3, 0x0b, 0x50, 0x04,
        0xb3, 0x0b, 0x4d, 0x04, 0xb3, 0x0b, 0x4b, 0x04, 0xb3, 0x0b, 0x47, 0x04,
        0xb3, 0x0b, 0x43, 0x04, 0xb3, 0x0b, 0x41, 0x04, 0xb3, 0x0b, 0x3d, 0x04,
        0xb3, 0x0b, 0x38, 0x04, 0xb3, 0x0b, 0x35, 0x04, 0xb3, 0x0b, 0x30, 0x04,
        0x83, 0x45, 0x00, 0x00, 0xb3, 0x0b, 0x2a, 0x83, 0x00, 0xb3, 0x0b, 0x7f,
        0x81, 0x0c, 0x93, 0x45, 0x6e, 0x34, 0x93, 0x48, 0x6e, 0x08, 0x83, 0x45,
        0x00, 0x5c, 0x83, 0x48, 0x00, 0x00, 0x93, 0x45, 0x6c, 0x60, 0x93, 0x48,
        0x6e, 0x04, 0x83, 0x45, 0x00, 0x81, 0x3c, 0x93, 0x4c, 0x70, 0x00, 0xe3,
        0x00, 0x3a, 0x04, 0x83, 0x48, 0x00, 0x00, 0xe3, 0x00, 0x3c, 0x04, 0xe3,
        0x00, 0x3d, 0x04, 0xe3, 0x00, 0x3e, 0x08, 0xe3, 0x00, 0x3f, 0x0c, 0xe3,
        0x00, 0x40, 0x20, 0x83, 0x4c, 0x00, 0x1c, 0x93, 0x4c, 0x72, 0x64, 0x93,
        0x4a, 0x6b, 0x04, 0x83, 0x4c, 0x00, 0x2c, 0x93, 0x48, 0x6a, 0x08, 0x83,
        0x4a, 0x00, 0x30, 0x83, 0x48, 0x00, 0x00, 0xb3, 0x0b, 0x7f, 0x00, 0xb3,
        0x01, 0x14, 0x00, 0x93, 0x45, 0x6e, 0x60, 0xb3, 0x0b, 0x7e, 0x28, 0xb3,
        0x0b, 0x7d, 0x20, 0xb3, 0x0b, 0x7c, 0x10, 0xb3, 0x0b, 0x7b, 0x14, 0xb3,
        0x0b, 0x7a, 0x08, 0xb3, 0x0b, 0x79, 0x0c, 0xb3, 0x0b, 0x78, 0x08, 0xb3,
        0x0b, 0x77, 0x08, 0xb3, 0x0b, 0x76, 0x08, 0xb3, 0x0b, 0x75, 0x04, 0xb3,
        0x0b, 0x74, 0x08, 0xb3, 0x0b, 0x73, 0x04, 0xb3, 0x0b, 0x72, 0x08, 0xb3,
        0x0b, 0x71, 0x04, 0xb3, 0x0b, 0x70, 0x04, 0xb3, 0x0b, 0x6f, 0x04, 0xb3,
        0x0b, 0x6e, 0x04, 0xb3, 0x0b, 0x6d, 0x04, 0xb3, 0x0b, 0x6c, 0x04, 0xb3,
        0x0b, 0x6b, 0x04, 0xb3, 0x0b, 0x69, 0x04, 0xb3, 0x0b, 0x68, 0x04, 0xb3,
        0x0b, 0x67, 0x04, 0xb3, 0x0b, 0x65, 0x04, 0xb3, 0x0b, 0x64, 0x04, 0xb3,
        0x0b, 0x62, 0x04, 0xb3, 0x0b, 0x60, 0x04, 0xb3, 0x0b, 0x5f, 0x04, 0xb3,
        0x0b, 0x5d, 0x04, 0xb3, 0x0b, 0x5a, 0x04, 0xb3, 0x0b, 0x59, 0x04, 0xb3,
        0x0b, 0x56, 0x04, 0xb3, 0x0b, 0x53, 0x04, 0xb3, 0x0b, 0x51, 0x04, 0xb3,
        0x0b, 0x4e, 0x04, 0xb3, 0x0b, 0x4a, 0x04, 0xb3, 0x0b, 0x48, 0x04, 0xb3,
        0x0b, 0x45, 0x04, 0xb3, 0x0b, 0x41, 0x04, 0xb3, 0x0b, 0x3e, 0x04, 0xb3,
        0x0b, 0x39, 0x04, 0x83, 0x45, 0x00, 0x00, 0xb3, 0x0b, 0x34, 0x82, 0x14,
        0xe3, 0x00, 0x35, 0x00, 0xb3, 0x01, 0x00, 0x00, 0xb3, 0x0b, 0x7f, 0x00,
        0x93, 0x47, 0x72, 0x04, 0xe3, 0x00, 0x38, 0x04, 0xe3, 0x00, 0x3a, 0x04,
        0xe3, 0x00, 0x3b, 0x04, 0xe3, 0x00, 0x3c, 0x04, 0xe3, 0x00, 0x3d, 0x04,
        0xe3, 0x00, 0x3e, 0x08, 0xe3, 0x00, 0x3f, 0x08, 0xe3, 0x00, 0x40, 0x18,
        0x83, 0x47, 0x00, 0x20, 0x93, 0x47, 0x6c, 0x81, 0x7c, 0x83, 0x47, 0x00,
        0x24, 0x93, 0x47, 0x70, 0x81, 0x3c, 0x83, 0x47, 0x00, 0x00, 0xe3, 0x00,
        0x3b, 0x00, 0x93, 0x48, 0x6d, 0x04, 0xe3, 0x00, 0x3d, 0x08, 0xe3, 0x00,
        0x3e, 0x08, 0xe3, 0x00, 0x3f, 0x0c, 0xe3, 0x00, 0x40, 0x48, 0x93, 0x4a,
        0x67, 0x04, 0x83, 0x48, 0x00, 0x83, 0x44, 0x83, 0x4a, 0x00, 0x10, 0xe3,
        0x00, 0x38, 0x00, 0x93, 0x4c, 0x69, 0x04, 0xe3, 0x00, 0x3a, 0x04, 0xe3,
        0x00, 0x3b, 0x04, 0xe3, 0x00, 0x3c, 0x04, 0xe3, 0x00, 0x3d, 0x04, 0xe3,
        0x00, 0x3e, 0x08, 0xe3, 0x00, 0x3f, 0x0c, 0xe3, 0x00, 0x40, 0x08, 0x83,
        0x4c, 0x00, 0x38, 0x93, 0x4f, 0x6d, 0x81, 0x3c, 0x93, 0x4c, 0x6e, 0x0c,
        0x83, 0x4f, 0x00, 0x24, 0x93, 0x4a, 0x50, 0x10, 0x83, 0x4c, 0x00, 0x24,
        0xb3, 0x01, 0x28, 0x00, 0x93, 0x48, 0x63, 0x10, 0x83, 0x4a, 0x00, 0x81,
        0x00, 0x83, 0x48, 0x00, 0x5c, 0xb3, 0x01, 0x00, 0x00, 0x93, 0x45, 0x6c,
        0x58, 0x93, 0x48, 0x6d, 0x04, 0x83, 0x45, 0x00, 0x38, 0x93, 0x47, 0x6c,
        0x04, 0x83, 0x48, 0x00, 0x58, 0x93, 0x48, 0x6a, 0x08, 0x83, 0x47, 0x00,
        0x24, 0x93, 0x47, 0x6a, 0x08, 0x83, 0x48, 0x00, 0x28, 0x93, 0x45, 0x66,
        0x0c, 0x83, 0x47, 0x00, 0x3c, 0x83, 0x45, 0x00, 0x18, 0x93, 0x45, 0x6c,
        0x30, 0x93, 0x47, 0x69, 0x04, 0x83, 0x45, 0x00, 0x2c, 0x93, 0x48, 0x6f,
        0x10, 0x83, 0x47, 0x00, 0x44, 0x83, 0x48, 0x00, 0x18, 0x93, 0x48, 0x6e,
        0x00, 0xb3, 0x0b, 0x7f, 0x74, 0xb3, 0x0b, 0x7e, 0x28, 0xb3, 0x0b, 0x7d,
        0x1c, 0xb3, 0x0b, 0x7c, 0x14, 0xb3, 0x0b, 0x7b, 0x0c, 0xb3, 0x0b, 0x7a,
        0x10, 0xb3, 0x0b, 0x79, 0x08, 0xb3, 0x0b, 0x78, 0x08, 0xb3, 0x0b, 0x77,
        0x0c, 0xb3, 0x0b, 0x76, 0x04, 0xb3, 0x0b, 0x75, 0x08, 0xb3, 0x0b, 0x74,
        0x04, 0xb3, 0x0b, 0x73, 0x08, 0xb3, 0x0b, 0x72, 0x04, 0xb3, 0x0b, 0x71,
        0x04, 0xb3, 0x0b, 0x70, 0x04, 0xb3, 0x0b, 0x6f, 0x04, 0xb3, 0x0b, 0x6e,
        0x04, 0xb3, 0x0b, 0x6d, 0x04, 0xb3, 0x0b, 0x6c, 0x04, 0xb3, 0x0b, 0x6b,
        0x04, 0xb3, 0x0b, 0x6a, 0x04, 0xb3, 0x0b, 0x68, 0x04, 0xb3, 0x0b, 0x67,
        0x04, 0xb3, 0x0b, 0x66, 0x04, 0xb3, 0x0b, 0x64, 0x04, 0xb3, 0x0b, 0x62,
        0x04, 0xb3, 0x0b, 0x61, 0x04, 0xb3, 0x0b, 0x5f, 0x04, 0xb3, 0x0b, 0x5c,
        0x04, 0xb3, 0x0b, 0x5b, 0x04, 0xb3, 0x0b, 0x59, 0x04, 0xb3, 0x0b, 0x56,
        0x04, 0xb3, 0x0b, 0x54, 0x04, 0xb3, 0x0b, 0x51, 0x04, 0xb3, 0x0b, 0x4e,
        0x04, 0xb3, 0x0b, 0x4c, 0x04, 0xb3, 0x0b, 0x48, 0x04, 0x83, 0x48, 0x00,
        0x00, 0xb3, 0x0b, 0x44, 0x82, 0x18, 0xb3, 0x0b, 0x7f, 0x81, 0x70, 0x93,
        0x45, 0x6a, 0x30, 0x93, 0x48, 0x6c, 0x08, 0x83, 0x45, 0x00, 0x58, 0x93,
        0x47, 0x6c, 0x08, 0x83, 0x48, 0x00, 0x34, 0x83, 0x47, 0x00, 0x24, 0x93,
        0x47, 0x72, 0x30, 0x93, 0x45, 0x69, 0x04, 0x83, 0x47, 0x00, 0x40, 0x83,
        0x45, 0x00, 0x14, 0x93, 0x45, 0x6f, 0x34, 0x83, 0x45, 0x00, 0x00, 0x93,
        0x3e, 0x67, 0x34, 0x93, 0x40, 0x66, 0x08, 0x83, 0x3e, 0x00, 0x28, 0xb3,
        0x0b, 0x7f, 0x50, 0xb3, 0x0b, 0x7e, 0x30, 0xb3, 0x0b, 0x7d, 0x1c, 0xb3,
        0x0b, 0x7c, 0x14, 0xb3, 0x0b, 0x7b, 0x10, 0xb3, 0x0b, 0x7a, 0x0c, 0xb3,
        0x0b, 0x79, 0x08, 0xb3, 0x0b, 0x78, 0x08, 0xb3, 0x0b, 0x77, 0x08, 0xb3,
        0x0b, 0x76, 0x08, 0xb3, 0x0b, 0x75, 0x04, 0xb3, 0x0b, 0x74, 0x08, 0xb3,
        0x0b, 0x73, 0x04, 0xb3, 0x0b, 0x72, 0x08, 0xb3, 0x0b, 0x71, 0x04, 0xb3,
        0x0b, 0x70, 0x04, 0xb3, 0x0b, 0x6f, 0x04, 0xb3, 0x0b, 0x6e, 0x04, 0xb3,
        0x0b, 0x6d, 0x04, 0xb3, 0x0b, 0x6c, 0x04, 0xb3, 0x0b, 0x6b, 0x04, 0xb3,
        0x0b, 0x69, 0x04, 0xb3, 0x0b, 0x68, 0x04, 0xb3, 0x0b, 0x67, 0x04, 0xb3,
        0x0b, 0x65, 0x04, 0xb3, 0x0b, 0x64, 0x04, 0xb3, 0x0b, 0x62, 0x04, 0xb3,
        0x0b, 0x60, 0x04, 0xb3, 0x0b, 0x5e, 0x04, 0xb3, 0x0b, 0x5c, 0x04, 0xb3,
        0x0b, 0x5a, 0x04, 0xb3, 0x0b, 0x58, 0x04, 0xb3, 0x0b, 0x56, 0x04, 0xb3,
        0x0b, 0x52, 0x04, 0xb3, 0x0b, 0x51, 0x04, 0xb3, 0x0b, 0x4e, 0x04, 0xb3,
        0x0b, 0x4a, 0x04, 0xb3, 0x0b, 0x48, 0x04, 0xb3, 0x0b, 0x44, 0x04, 0xb3,
        0x0b, 0x40, 0x04, 0xb3, 0x0b, 0x3d, 0x04, 0xb3, 0x0b, 0x39, 0x04, 0xb3,
        0x0b, 0x34, 0x04, 0xb3, 0x0b, 0x31, 0x04, 0xb3, 0x0b, 0x2b, 0x04, 0x83,
        0x40, 0x00, 0x00, 0xb3, 0x0b, 0x25, 0x83, 0x00, 0xb3, 0x0b, 0x7f, 0x81,
        0x0c, 0x93, 0x45, 0x67, 0x1c, 0x83, 0x45, 0x00, 0x10, 0x93, 0x45, 0x6e,
        0x60, 0x93, 0x48, 0x6d, 0x08, 0x83, 0x45, 0x00, 0x5c, 0x93, 0x47, 0x6e,
        0x08, 0x83, 0x48, 0x00, 0x5c, 0x93, 0x48, 0x66, 0x04, 0x83, 0x47, 0x00,
        0x1c, 0x93, 0x47, 0x6e, 0x10, 0x83, 0x48, 0x00, 0x2c, 0x93, 0x45, 0x6c,
        0x04, 0x83, 0x47, 0x00, 0x58, 0x93, 0x47, 0x6c, 0x08, 0x83, 0x45, 0x00,
        0x58, 0x93, 0x48, 0x6c, 0x0c, 0x83, 0x47, 0x00, 0x3c, 0x83, 0x48, 0x00,
        0x1c, 0x93, 0x48, 0x71, 0x30, 0x93, 0x45, 0x69, 0x04, 0x83, 0x48, 0x00,
        0x2c, 0xb3, 0x0b, 0x7f, 0x00, 0xb3, 0x01, 0x1e, 0x00, 0x93, 0x43, 0x60,
        0x10, 0x83, 0x45, 0x00, 0x50, 0xb3, 0x0b, 0x7e, 0x28, 0xb3, 0x0b, 0x7d,
        0x1c, 0xb3, 0x0b, 0x7c, 0x10, 0xb3, 0x0b, 0x7b, 0x0c, 0xb3, 0x0b, 0x7a,
        0x0c, 0xb3, 0x0b, 0x79, 0x0c, 0xb3, 0x0b, 0x78, 0x08, 0xb3, 0x0b, 0x77,
        0x08, 0xb3, 0x0b, 0x76, 0x08, 0xb3, 0x0b, 0x75, 0x08, 0xb3, 0x0b, 0x74,
        0x04, 0xb3, 0x0b, 0x73, 0x08, 0xb3, 0x0b, 0x72, 0x04, 0xb3, 0x0b, 0x71,
        0x04, 0xb3, 0x0b, 0x70, 0x04, 0xb3, 0x0b, 0x6f, 0x04, 0xb3, 0x0b, 0x6e,
        0x04, 0xb3, 0x0b, 0x6d, 0x04, 0xb3, 0x0b, 0x6c, 0x04, 0xb3, 0x0b, 0x6b,
        0x04, 0xb3, 0x0b, 0x6a, 0x04, 0xb3, 0x0b, 0x68, 0x04, 0xb3, 0x0b, 0x67,
        0x04, 0xb3, 0x0b, 0x66, 0x04, 0xb3, 0x0b, 0x64, 0x04, 0xb3, 0x0b, 0x62,
        0x04, 0xb3, 0x0b, 0x61, 0x04, 0xb3, 0x0b, 0x5f, 0x04, 0xb3, 0x0b, 0x5d,
        0x04, 0xb3, 0x0b, 0x5b, 0x04, 0xb3, 0x0b, 0x59, 0x04, 0xb3, 0x0b, 0x56,
        0x04, 0xb3, 0x0b, 0x54, 0x04, 0xb3, 0x0b, 0x51, 0x04, 0xb3, 0x0b, 0x4e,
        0x04, 0xb3, 0x0b, 0x4c, 0x04, 0xb3, 0x0b, 0x49, 0x04, 0xb3, 0x0b, 0x45,
        0x04, 0xb3, 0x0b, 0x42, 0x04, 0xb3, 0x0b, 0x3e, 0x04, 0xb3, 0x0b, 0x3a,
        0x04, 0xb3, 0x0b, 0x37, 0x04, 0xb3, 0x0b, 0x32, 0x04, 0x83, 0x43, 0x00,
        0x00, 0xb3, 0x0b, 0x2c, 0x81, 0x44, 0xb3, 0x01, 0x00, 0x00, 0xb3, 0x0b,
        0x7f, 0x82, 0x18, 0x93, 0x48, 0x6c, 0x20, 0x83, 0x48, 0x00, 0x14, 0x93,
        0x48, 0x69, 0x38, 0x93, 0x4a, 0x69, 0x08, 0x83, 0x48, 0x00, 0x54, 0x93,
        0x4c, 0x68, 0x0c, 0x83, 0x4a, 0x00, 0x20, 0x93, 0x4a, 0x6a, 0x0c, 0x83,
        0x4c, 0x00, 0x24, 0x93, 0x48, 0x71, 0x04, 0x83, 0x4a, 0x00, 0x5c, 0x93,
        0x4a, 0x6c, 0x04, 0x83, 0x48, 0x00, 0x5c, 0x93, 0x4c, 0x6a, 0x08, 0x83,
        0x4a, 0x00, 0x30, 0x93, 0x48, 0x70, 0x08, 0x83, 0x4c, 0x00, 0x1c, 0x83,
        0x48, 0x00, 0x14, 0xb3, 0x0b, 0x7f, 0x00, 0x93, 0x48, 0x6b, 0x81, 0x04,
        0xb3, 0x0b, 0x7e, 0x40, 0xb3, 0x0b, 0x7d, 0x34, 0xb3, 0x0b, 0x7c, 0x1c,
        0xb3, 0x0b, 0x7b, 0x20, 0xb3, 0x0b, 0x7a, 0x10, 0xb3, 0x0b, 0x79, 0x14,
        0xb3, 0x0b, 0x78, 0x10, 0xb3, 0x0b, 0x77, 0x0c, 0xb3, 0x0b, 0x76, 0x0c,
        0xb3, 0x0b, 0x75, 0x0c, 0xb3, 0x0b, 0x74, 0x0c, 0xb3, 0x0b, 0x73, 0x04,
        0xb3, 0x0b, 0x72, 0x0c, 0xb3, 0x0b, 0x71, 0x04, 0xb3, 0x0b, 0x70, 0x0c,
        0xb3, 0x0b, 0x6f, 0x04, 0xb3, 0x0b, 0x6e, 0x08, 0xb3, 0x0b, 0x6d, 0x08,
        0xb3, 0x0b, 0x6c, 0x04, 0xb3, 0x0b, 0x6b, 0x08, 0xb3, 0x0b, 0x6a, 0x08,
        0xb3, 0x0b, 0x68, 0x08, 0xb3, 0x0b, 0x67, 0x04, 0xb3, 0x0b, 0x65, 0x08,
        0xb3, 0x0b, 0x64, 0x04, 0xb3, 0x0b, 0x63, 0x04, 0xb3, 0x0b, 0x62, 0x04,
        0xb3, 0x0b, 0x61, 0x04, 0xb3, 0x0b, 0x60, 0x04, 0xb3, 0x0b, 0x5f, 0x04,
        0xb3, 0x0b, 0x5e, 0x04, 0xb3, 0x0b, 0x5d, 0x04, 0xb3, 0x0b, 0x5c, 0x04,
        0xb3, 0x0b, 0x5a, 0x04, 0xb3, 0x0b, 0x59, 0x04, 0xb3, 0x0b, 0x58, 0x04,
        0xb3, 0x0b, 0x57, 0x04, 0xb3, 0x0b, 0x55, 0x04, 0xb3, 0x0b, 0x54, 0x04,
        0xb3, 0x0b, 0x52, 0x04, 0xb3, 0x0b, 0x50, 0x04, 0xb3, 0x0b, 0x4f, 0x04,
        0xb3, 0x0b, 0x4d, 0x04, 0xb3, 0x0b, 0x4b, 0x04, 0xb3, 0x0b, 0x49, 0x04,
        0xb3, 0x0b, 0x48, 0x04, 0xb3, 0x0b, 0x46, 0x04, 0xb3, 0x0b, 0x43, 0x04,
        0xb3, 0x0b, 0x42, 0x04, 0xb3, 0x0b, 0x3f, 0x04, 0xb3, 0x0b, 0x3e, 0x04,
        0xb3, 0x0b, 0x3b, 0x04, 0xb3, 0x0b, 0x39, 0x04, 0xb3, 0x0b, 0x36, 0x04,
        0xb3, 0x0b, 0x35, 0x04, 0xb3, 0x0b, 0x31, 0x04, 0xb3, 0x0b, 0x2e, 0x04,
        0xb3, 0x0b, 0x2c, 0x04, 0xb3, 0x0b, 0x28, 0x04, 0xb3, 0x0b, 0x27, 0x04,
        0xb3, 0x0b, 0x22, 0x04, 0xb3, 0x0b, 0x20, 0x04, 0xb3, 0x0b, 0x1c, 0x04,
        0xb3, 0x0b, 0x17, 0x04, 0x83, 0x48, 0x00, 0x00, 0xff, 0x2f, 0x00, 0x4d,
        0x54, 0x72, 0x6b, 0x00, 0x00, 0x02, 0x65, 0x00, 0xff, 0x03, 0x03, 0x74,
        0x6b, 0x35, 0x00, 0xff, 0x20, 0x01, 0x04, 0x00, 0xb4, 0x07, 0x64, 0x00,
        0xc4, 0x00, 0x81, 0x6c, 0xb4, 0x00, 0x00, 0x00, 0xb4, 0x20, 0x00, 0x00,
        0xc4, 0x00, 0x02, 0xb4, 0x0a, 0x40, 0x00, 0xb4, 0x0b, 0x7f, 0x00, 0xb4,
        0x07, 0x64, 0x02, 0xb4, 0x5d, 0x14, 0x00, 0xb4, 0x5b, 0x7f, 0x81, 0x42,
        0xb4, 0x63, 0x01, 0x02, 0xb4, 0x62, 0x20, 0x02, 0xb4, 0x06, 0x28, 0x02,
        0xb4, 0x65, 0x7f, 0x02, 0xb4, 0x64, 0x7f, 0x82, 0x46, 0x94, 0x37, 0x50,
        0x00, 0x94, 0x24, 0x50, 0x00, 0x94, 0x34, 0x50, 0x44, 0xb4, 0x40, 0x7f,
        0x20, 0x84, 0x34, 0x00, 0x00, 0x84, 0x37, 0x00, 0x10, 0x94, 0x30, 0x5c,
        0x60, 0x84, 0x30, 0x00, 0x00, 0x94, 0x34, 0x64, 0x00, 0x94, 0x37, 0x68,
        0x60, 0x84, 0x37, 0x00, 0x00, 0x84, 0x34, 0x00, 0x00, 0x94, 0x30, 0x5d,
        0x60, 0x94, 0x37, 0x64, 0x00, 0x94, 0x34, 0x62, 0x04, 0x84, 0x30, 0x00,
        0x54, 0x84, 0x34, 0x00, 0x04, 0x84, 0x37, 0x00, 0x04, 0x94, 0x30, 0x62,
        0x60, 0x94, 0x37, 0x5f, 0x00, 0x94, 0x3b, 0x5b, 0x00, 0x94, 0x34, 0x5c,
        0x08, 0x84, 0x30, 0x00, 0x44, 0x84, 0x24, 0x00, 0x04, 0x84, 0x34, 0x00,
        0x04, 0x84, 0x3b, 0x00, 0x04, 0x84, 0x37, 0x00, 0x08, 0x94, 0x30, 0x65,
        0x60, 0xb4, 0x40, 0x00, 0x00, 0x94, 0x39, 0x62, 0x00, 0x94, 0x29, 0x60,
        0x00, 0x94, 0x3c, 0x61, 0x00, 0x94, 0x35, 0x5f, 0x04, 0x84, 0x30, 0x00,
        0x2c, 0xb4, 0x40, 0x7f, 0x30, 0x84, 0x35, 0x00, 0x00, 0x94, 0x30, 0x5f,
        0x04, 0x84, 0x39, 0x00, 0x00, 0x84, 0x3c, 0x00, 0x58, 0x84, 0x30, 0x00,
        0x04, 0x94, 0x39, 0x60, 0x00, 0x94, 0x35, 0x5d, 0x00, 0x94, 0x3c, 0x5d,
        0x5c, 0x84, 0x35, 0x00, 0x04, 0x84, 0x39, 0x00, 0x00, 0x84, 0x3c, 0x00,
        0x00, 0x94, 0x30, 0x5d, 0x60, 0x94, 0x35, 0x59, 0x00, 0x94, 0x39, 0x5e,
        0x00, 0x94, 0x3c, 0x5b, 0x08, 0x84, 0x30, 0x00, 0x44, 0x84, 0x35, 0x00,
        0x0c, 0x84, 0x3c, 0x00, 0x04, 0x84, 0x39, 0x00, 0x04, 0x94, 0x30, 0x5d,
        0x60, 0x94, 0x35, 0x5c, 0x00, 0x94, 0x39, 0x5d, 0x18, 0x84, 0x29, 0x00,
        0x00, 0x84, 0x30, 0x00, 0x18, 0x94, 0x3a, 0x59, 0x08, 0x84, 0x39, 0x00,
        0x18, 0x84, 0x35, 0x00, 0x10, 0x94, 0x3b, 0x60, 0x10, 0x84, 0x3a, 0x00,
        0x50, 0x94, 0x34, 0x50, 0x00, 0x94, 0x3e, 0x64, 0x00, 0x94, 0x24, 0x62,
        0x00, 0xb4, 0x40, 0x00, 0x00, 0x94, 0x37, 0x57, 0x04, 0x84, 0x3b, 0x00,
        0x2c, 0xb4, 0x40, 0x7f, 0x28, 0x84, 0x37, 0x00, 0x04, 0x84, 0x34, 0x00,
        0x04, 0x84, 0x3e, 0x00, 0x00, 0x94, 0x30, 0x5c, 0x60, 0x94, 0x37, 0x60,
        0x00, 0x94, 0x34, 0x60, 0x08, 0x84, 0x30, 0x00, 0x54, 0x84, 0x37, 0x00,
        0x00, 0x84, 0x34, 0x00, 0x04, 0x94, 0x30, 0x5c, 0x60, 0x84, 0x30, 0x00,
        0x00, 0x94, 0x34, 0x5f, 0x00, 0x94, 0x37, 0x5f, 0x60, 0x84, 0x37, 0x00,
        0x00, 0x84, 0x34, 0x00, 0x00, 0x94, 0x30, 0x60, 0x60, 0x84, 0x30, 0x00,
        0x00, 0x94, 0x37, 0x58, 0x00, 0x94, 0x34, 0x5a, 0x00, 0x94, 0x3b, 0x5b,
        0x58, 0x84, 0x24, 0x00, 0x08, 0x84, 0x37, 0x00, 0x00, 0x84, 0x34, 0x00,
        0x00, 0x94, 0x30, 0x5b, 0x04, 0x84, 0x3b, 0x00, 0x5c, 0x94, 0x3c, 0x5d,
        0x00, 0xb4, 0x40, 0x00, 0x00, 0x94, 0x29, 0x60, 0x00, 0x94, 0x39, 0x5a,
        0x00, 0x94, 0x35, 0x5d, 0x04, 0x84, 0x30, 0x00, 0x2c, 0xb4, 0x40, 0x7f,
        0x28, 0x84, 0x3c, 0x00, 0x04, 0x84, 0x39, 0x00, 0x00, 0x84, 0x35, 0x00,
        0x04, 0x94, 0x30, 0x5d, 0x60, 0x84, 0x30, 0x00, 0x00, 0x94, 0x39, 0x5d,
        0x00, 0x94, 0x3c, 0x61, 0x00, 0x94, 0x35, 0x5d, 0x58, 0x84, 0x3c, 0x00,
        0x04, 0x84, 0x39, 0x00, 0x04, 0x84, 0x35, 0x00, 0x00, 0x94, 0x30, 0x5b,
        0x60, 0x94, 0x39, 0x5c, 0x00, 0x94, 0x3c, 0x5e, 0x00, 0x94, 0x35, 0x5b,
        0x04, 0x84, 0x30, 0x00, 0x58, 0x84, 0x35, 0x00, 0x04, 0x84, 0x3c, 0x00,
        0x00, 0x94, 0x30, 0x5d, 0x08, 0x84, 0x39, 0x00, 0x58, 0x94, 0x39, 0x5e,
        0x00, 0x94, 0x35, 0x5d, 0x30, 0x94, 0x3a, 0x5c, 0x08, 0x84, 0x35, 0x00,
        0x04, 0x84, 0x39, 0x00, 0x08, 0x84, 0x29, 0x00, 0x10, 0x84, 0x30, 0x00,
        0x0c, 0x94, 0x3b, 0x64, 0x0c, 0x84, 0x3a, 0x00, 0x24, 0xb4, 0x40, 0x00,
        0x38, 0x84, 0x3b, 0x00, 0x00, 0xff, 0x2f, 0x00, 0x4d, 0x54, 0x72, 0x6b,
        0x00, 0x00, 0x10, 0xf5, 0x00, 0xff, 0x03, 0x04, 0x74, 0x6b, 0x31, 0x30,
        0x00, 0xff, 0x20, 0x01, 0x09, 0x00, 0xb9, 0x07, 0x64, 0x00, 0xc9, 0x00,
        0x82, 0x1e, 0xb9, 0x00, 0x00, 0x00, 0xb9, 0x20, 0x00, 0x00, 0xc9, 0x00,
        0x02, 0xb9, 0x0a, 0x40, 0x00, 0xb9, 0x07, 0x64, 0x00, 0xb9, 0x0b, 0x78,
        0x02, 0xb9, 0x5d, 0x00, 0x00, 0xb9, 0x5b, 0x14, 0xc9, 0x3e, 0x99, 0x30,
        0x69, 0x04, 0x89, 0x30, 0x00, 0x30, 0x99, 0x30, 0x55, 0x04, 0x89, 0x30,
        0x00, 0x5c, 0x99, 0x30, 0x55, 0x04, 0x89, 0x30, 0x00, 0x28, 0x99, 0x30,
        0x69, 0x04, 0x89, 0x30, 0x00, 0x5c, 0x99, 0x2a, 0x55, 0x00, 0x99, 0x24,
        0x69, 0x04, 0x89, 0x24, 0x00, 0x00, 0x89, 0x2a, 0x00, 0x5c, 0x99, 0x2a,
        0x41, 0x04, 0x89, 0x2a, 0x00, 0x5c, 0x99, 0x28, 0x66, 0x00, 0x99, 0x2a,
        0x55, 0x04, 0x89, 0x2a, 0x00, 0x00, 0x89, 0x28, 0x00, 0x5c, 0x99, 0x2a,
        0x41, 0x04, 0x89, 0x2a, 0x00, 0x5c, 0x99, 0x24, 0x69, 0x00, 0x99, 0x2a,
        0x55, 0x04, 0x89, 0x2a, 0x00, 0x00, 0x89, 0x24, 0x00, 0x5c, 0x99, 0x2a,
        0x41, 0x00, 0x99, 0x24, 0x55, 0x04, 0x89, 0x24, 0x00, 0x00, 0x89, 0x2a,
        0x00, 0x5c, 0x99, 0x28, 0x66, 0x00, 0x99, 0x2a, 0x55, 0x04, 0x89, 0x2a,
        0x00, 0x00, 0x89, 0x28, 0x00, 0x5c, 0x99, 0x2a, 0x41, 0x04, 0x89, 0x2a,
        0x00, 0x5c, 0x99, 0x2a, 0x55, 0x00, 0x99, 0x24, 0x69, 0x04, 0x89, 0x24,
        0x00, 0x00, 0x89, 0x2a, 0x00, 0x5c, 0x99, 0x2a, 0x41, 0x04, 0x89, 0x2a,
        0x00, 0x5c, 0x99, 0x2a, 0x55, 0x00, 0x99, 0x28, 0x66, 0x04, 0x89, 0x28,
        0x00, 0x00, 0x89, 0x2a, 0x00, 0x5c, 0x99, 0x2a, 0x41, 0x04, 0x89, 0x2a,
        0x00, 0x5c, 0x99, 0x24, 0x69, 0x00, 0x99, 0x2a, 0x55, 0x04, 0x89, 0x2a,
        0x00, 0x00, 0x89, 0x24, 0x00, 0x5c, 0x99, 0x24, 0x55, 0x00, 0x99, 0x2a,
        0x41, 0x04, 0x89, 0x2a, 0x00, 0x00, 0x89, 0x24, 0x00, 0x5c, 0x99, 0x28,
        0x66, 0x00, 0x99, 0x2a, 0x55, 0x04, 0x89, 0x2a, 0x00, 0x00, 0x89, 0x28,
        0x00, 0x5c, 0x99, 0x2a, 0x41, 0x04, 0x89, 0x2a, 0x00, 0x5c, 0x99, 0x2a,
        0x55, 0x00, 0x99, 0x24, 0x69, 0x04, 0x89, 0x24, 0x00, 0x00, 0x89, 0x2a,
        0x00, 0x5c, 0x99, 0x2a, 0x41, 0x04, 0x89, 0x2a, 0x00, 0x5c, 0x99, 0x28,
        0x66, 0x00, 0x99, 0x2a, 0x55, 0x04, 0x89, 0x2a, 0x00, 0x00, 0x89, 0x28,
        0x00, 0x5c, 0x99, 0x2a, 0x41, 0x04, 0x89, 0x2a, 0x00, 0x5c, 0x99, 0x2a,
        0x55, 0x00, 0x99, 0x24, 0x69, 0x04, 0x89, 0x24, 0x00, 0x00, 0x89, 0x2a,
        0x00, 0x5c, 0x99, 0x2a, 0x41, 0x00, 0x99, 0x24, 0x55, 0x04, 0x89, 0x24,
        0x00, 0x00, 0x89, 0x2a, 0x00, 0x5c, 0x99, 0x28, 0x66, 0x00, 0x99, 0x2a,
        0x55, 0x04, 0x89, 0x2a, 0x00, 0x00, 0x89, 0x28, 0x00, 0x5c, 0x99, 0x2a,
        0x41, 0x04, 0x89, 0x2a, 0x00, 0x5c, 0x99, 0x2a, 0x55, 0x00, 0x99, 0x24,
        0x69, 0x04, 0x89, 0x24, 0x00, 0x00, 0x89, 0x2a, 0x00, 0x85, 0x7c, 0x99,
        0x24, 0x69, 0x00, 0x99, 0x2a, 0x55, 0x04, 0x89, 0x2a, 0x00, 0x00, 0x89,
        0x24, 0x00, 0x5c, 0x99, 0x2a, 0x41, 0x04, 0x89, 0x2a, 0x00, 0x5c, 0x99,
        0x2a, 0x55, 0x00, 0x99, 0x28, 0x66, 0x04, 0x89, 0x28, 0x00, 0x00, 0x89,
        0x2a, 0x00, 0x5c, 0x99, 0x2a, 0x41, 0x04, 0x89, 0x2a, 0x00, 0x5c, 0x99,
        0x24, 0x69, 0x00, 0x99, 0x2a, 0x55, 0x04, 0x89, 0x2a, 0x00, 0x00, 0x89,
        0x24, 0x00, 0x5c, 0x99, 0x2a, 0x41, 0x00, 0x99, 0x24, 0x55, 0x04, 0x89,
        0x24, 0x00, 0x00, 0x89, 0x2a, 0x00, 0x5c, 0x99, 0x28, 0x66, 0x00, 0x99,
        0x2a, 0x55, 0x04, 0x89, 0x2a, 0x00, 0x00, 0x89, 0x28, 0x00, 0x5c, 0x99,
        0x2a, 0x41, 0x04, 0x89, 0x2a, 0x00, 0x5c, 0x99, 0x24, 0x69, 0x00, 0x99,
        0x2a, 0x55, 0x04, 0x89, 0x2a, 0x00, 0x00, 0x89, 0x24, 0x00, 0x5c, 0x99,
        0x2a, 0x41, 0x04, 0x89, 0x2a, 0x00, 0x5c, 0x99, 0x2a, 0x55, 0x00, 0x99,
        0x28, 0x66, 0x04, 0x89, 0x28, 0x00, 0x00, 0x89, 0x2a, 0x00, 0x5c, 0x99,
        0x2a, 0x41, 0x04, 0x89, 0x2a, 0x00, 0x5c, 0x99, 0x24, 0x69, 0x00, 0x99,
        0x2a, 0x55, 0x04, 0x89, 0x2a, 0x00, 0x00, 0x89, 0x24, 0x00, 0x5c, 0x99,
        0x2a, 0x41, 0x00, 0x99, 0x24, 0x55, 0x04, 0x89, 0x24, 0x00, 0x00, 0x89,
        0x2a, 0x00, 0x5c, 0x99, 0x2a, 0x55, 0x00, 0x99, 0x28, 0x66, 0x04, 0x89,
        0x28, 0x00, 0x00, 0x89, 0x2a, 0x00, 0x5c, 0x99, 0x2a, 0x41, 0x04, 0x89,
        0x2a, 0x00, 0x5c, 0x99, 0x24, 0x69, 0x00, 0x99, 0x2a, 0x55, 0x04, 0x89,
        0x2a, 0x00, 0x00, 0x89, 0x24, 0x00, 0x5c, 0x99, 0x2a, 0x41, 0x04, 0x89,
        0x2a, 0x00, 0x5c, 0x99, 0x28, 0x66, 0x00, 0x99, 0x2a, 0x55, 0x04, 0x89,
        0x2a, 0x00, 0x00, 0x89, 0x28, 0x00, 0x5c, 0x99, 0x2a, 0x41, 0x04, 0x89,
        0x2a, 0x00, 0x5c, 0x99, 0x2a, 0x55, 0x00, 0x99, 0x24, 0x69, 0x04, 0x89,
        0x24, 0x00, 0x00, 0x89, 0x2a, 0x00, 0x5c, 0x99, 0x2a, 0x41, 0x00, 0x99,
        0x24, 0x55, 0x04, 0x89, 0x24, 0x00, 0x00, 0x89, 0x2a, 0x00, 0x5c, 0x99,
        0x28, 0x66, 0x00, 0x99, 0x2a, 0x55, 0x04, 0x89, 0x2a, 0x00, 0x00, 0x89,
        0x28, 0x00, 0x5c, 0x99, 0x2a, 0x41, 0x04, 0x89, 0x2a, 0x00, 0x5c, 0x99,
        0x24, 0x69, 0x00, 0x99, 0x2a, 0x55, 0x04, 0x89, 0x2a, 0x00, 0x00, 0x89,
        0x24, 0x00, 0x5c, 0x99, 0x2a, 0x41, 0x04, 0x89, 0x2a, 0x00, 0x5c, 0x99,
        0x28, 0x66, 0x00, 0x99, 0x2a, 0x55, 0x04, 0x89, 0x2a, 0x00, 0x00, 0x89,
        0x28, 0x00, 0x5c, 0x99, 0x2a, 0x41, 0x04, 0x89, 0x2a, 0x00, 0x5c, 0x99,
        0x24, 0x69, 0x00, 0x99, 0x2a, 0x55, 0x04, 0x89, 0x2a, 0x00, 0x00, 0x89,
        0x24, 0x00, 0x5c, 0x99, 0x2a, 0x41, 0x00, 0x99, 0x24, 0x55, 0x04, 0x89,
        0x24, 0x00, 0x00, 0x89, 0x2a, 0x00, 0x5c, 0x99, 0x2a, 0x55, 0x00, 0x99,
        0x28, 0x66, 0x04, 0x89, 0x28, 0x00, 0x00, 0x89, 0x2a, 0x00, 0x5c, 0x99,
        0x2a, 0x41, 0x04, 0x89, 0x2a, 0x00, 0x5c, 0x99, 0x24, 0x69, 0x00, 0x99,
        0x2a, 0x55, 0x04, 0x89, 0x2a, 0x00, 0x00, 0x89, 0x24, 0x00, 0x5c, 0x99,
        0x2a, 0x41, 0x04, 0x89, 0x2a, 0x00, 0x5c, 0x99, 0x2a, 0x55, 0x00, 0x99,
        0x28, 0x66, 0x04, 0x89, 0x28, 0x00, 0x00, 0x89, 0x2a, 0x00, 0x5c, 0x99,
        0x2a, 0x41, 0x04, 0x89, 0x2a, 0x00, 0x5c, 0x99, 0x24, 0x69, 0x00, 0x99,
        0x2a, 0x55, 0x04, 0x89, 0x2a, 0x00, 0x00, 0x89, 0x24, 0x00, 0x5c, 0x99,
        0x2a, 0x41, 0x00, 0x99, 0x24, 0x55, 0x04, 0x89, 0x24, 0x00, 0x00, 0x89,
        0x2a, 0x00, 0x5c, 0x99, 0x2a, 0x55, 0x00, 0x99, 0x28, 0x66, 0x04, 0x89,
        0x28, 0x00, 0x00, 0x89, 0x2a, 0x00, 0x5c, 0x99, 0x2a, 0x41, 0x04, 0x89,
        0x2a, 0x00, 0x5c, 0x99, 0x24, 0x69, 0x00, 0x99, 0x2a, 0x55, 0x04, 0x89,
        0x2a, 0x00, 0x00, 0x89, 0x24, 0x00, 0x5c, 0x99, 0x2a, 0x41, 0x04, 0x89,
        0x2a, 0x00, 0x5c, 0x99, 0x28, 0x66, 0x00, 0x99, 0x2a, 0x55, 0x04, 0x89,
        0x2a, 0x00, 0x00, 0x89, 0x28, 0x00, 0x5c, 0x99, 0x2a, 0x41, 0x04, 0x89,
        0x2a, 0x00, 0x5c, 0x99, 0x24, 0x69, 0x00, 0x99, 0x2a, 0x55, 0x04, 0x89,
        0x2a, 0x00, 0x00, 0x89, 0x24, 0x00, 0x5c, 0x99, 0x24, 0x55, 0x00, 0x99,
        0x2a, 0x41, 0x04, 0x89, 0x2a, 0x00, 0x00, 0x89, 0x24, 0x00, 0x5c, 0x99,
        0x2a, 0x55, 0x00, 0x99, 0x28, 0x66, 0x04, 0x89, 0x28, 0x00, 0x00, 0x89,
        0x2a, 0x00, 0x5c, 0x99, 0x2a, 0x41, 0x04, 0x89, 0x2a, 0x00, 0x5c, 0x99,
        0x24, 0x69, 0x00, 0x99, 0x2a, 0x55, 0x04, 0x89, 0x2a, 0x00, 0x00, 0x89,
        0x24, 0x00, 0x5c, 0x99, 0x2a, 0x41, 0x04, 0x89, 0x2a, 0x00, 0x5c, 0x99,
        0x2a, 0x55, 0x00, 0x99, 0x28, 0x66, 0x04, 0x89, 0x28, 0x00, 0x00, 0x89,
        0x2a, 0x00, 0x5c, 0x99, 0x2a, 0x41, 0x04, 0x89, 0x2a, 0x00, 0x5c, 0x99,
        0x2a, 0x55, 0x00, 0x99, 0x24, 0x69, 0x04, 0x89, 0x24, 0x00, 0x00, 0x89,
        0x2a, 0x00, 0x5c, 0x99, 0x2a, 0x41, 0x00, 0x99, 0x24, 0x55, 0x04, 0x89,
        0x24, 0x00, 0x00, 0x89, 0x2a, 0x00, 0x5c, 0x99, 0x2a, 0x55, 0x00, 0x99,
        0x28, 0x66, 0x04, 0x89, 0x28, 0x00, 0x00, 0x89, 0x2a, 0x00, 0x5c, 0x99,
        0x2a, 0x41, 0x04, 0x89, 0x2a, 0x00, 0x5c, 0x99, 0x24, 0x69, 0x00, 0x99,
        0x2a, 0x55, 0x04, 0x89, 0x2a, 0x00, 0x00, 0x89, 0x24, 0x00, 0x5c, 0x99,
        0x2a, 0x41, 0x04, 0x89, 0x2a, 0x00, 0x5c, 0x99, 0x2a, 0x55, 0x00, 0x99,
        0x28, 0x66, 0x04, 0x89, 0x28, 0x00, 0x00, 0x89, 0x2a, 0x00, 0x5c, 0x99,
        0x2a, 0x41, 0x04, 0x89, 0x2a, 0x00, 0x5c, 0x99, 0x24, 0x69, 0x00, 0x99,
        0x2a, 0x55, 0x04, 0x89, 0x2a, 0x00, 0x00, 0x89, 0x24, 0x00, 0x5c, 0x99,
        0x2a, 0x41, 0x00, 0x99, 0x24, 0x55, 0x04, 0x89, 0x24, 0x00, 0x00, 0x89,
        0x2a, 0x00, 0x5c, 0x99, 0x2a, 0x55, 0x00, 0x99, 0x28, 0x66, 0x04, 0x89,
        0x28, 0x00, 0x00, 0x89, 0x2a, 0x00, 0x30, 0x99, 0x30, 0x55, 0x04, 0x89,
        0x30, 0x00, 0x28, 0x99, 0x29, 0x55, 0x04, 0x89, 0x29, 0x00, 0x5c, 0x99,
        0x2a, 0x55, 0x00, 0x99, 0x24, 0x69, 0x04, 0x89, 0x24, 0x00, 0x00, 0x89,
        0x2a, 0x00, 0x5c, 0x99, 0x2a, 0x41, 0x04, 0x89, 0x2a, 0x00, 0x5c, 0x99,
        0x2a, 0x55, 0x00, 0x99, 0x28, 0x66, 0x04, 0x89, 0x28, 0x00, 0x00, 0x89,
        0x2a, 0x00, 0x5c, 0x99, 0x2a, 0x41, 0x04, 0x89, 0x2a, 0x00, 0x5c, 0x99,
        0x2a, 0x55, 0x00, 0x99, 0x24, 0x69, 0x04, 0x89, 0x24, 0x00, 0x00, 0x89,
        0x2a, 0x00, 0x5c, 0x99, 0x24, 0x55, 0x00, 0x99, 0x2a, 0x41, 0x04, 0x89,
        0x2a, 0x00, 0x00, 0x89, 0x24, 0x00, 0x5c, 0x99, 0x28, 0x66, 0x00, 0x99,
        0x2a, 0x55, 0x04, 0x89, 0x2a, 0x00, 0x00, 0x89, 0x28, 0x00, 0x5c, 0x99,
        0x2a, 0x41, 0x04, 0x89, 0x2a, 0x00, 0x5c, 0x99, 0x24, 0x69, 0x00, 0x99,
        0x2a, 0x55, 0x04, 0x89, 0x2a, 0x00, 0x00, 0x89, 0x24, 0x00, 0x5c, 0x99,
        0x2a, 0x41, 0x04, 0x89, 0x2a, 0x00, 0x5c, 0x99, 0x28, 0x66, 0x00, 0x99,
        0x2a, 0x55, 0x04, 0x89, 0x2a, 0x00, 0x00, 0x89, 0x28, 0x00, 0x5c, 0x99,
        0x2a, 0x41, 0x04, 0x89, 0x2a, 0x00, 0x5c, 0x99, 0x2a, 0x55, 0x00, 0x99,
        0x24, 0x69, 0x04, 0x89, 0x24, 0x00, 0x00, 0x89, 0x2a, 0x00, 0x5c, 0x99,
        0x2a, 0x41, 0x00, 0x99, 0x24, 0x55, 0x04, 0x89, 0x24, 0x00, 0x00, 0x89,
        0x2a, 0x00, 0x5c, 0x99, 0x28, 0x66, 0x00, 0x99, 0x2a, 0x55, 0x04, 0x89,
        0x2a, 0x00, 0x00, 0x89, 0x28, 0x00, 0x5c, 0x99, 0x2a, 0x41, 0x04, 0x89,
        0x2a, 0x00, 0x5c, 0x99, 0x2a, 0x55, 0x00, 0x99, 0x24, 0x69, 0x04, 0x89,
        0x24, 0x00, 0x00, 0x89, 0x2a, 0x00, 0x5c, 0x99, 0x2a, 0x41, 0x04, 0x89,
        0x2a, 0x00, 0x5c, 0x99, 0x2a, 0x55, 0x00, 0x99, 0x28, 0x66, 0x04, 0x89,
        0x28, 0x00, 0x00, 0x89, 0x2a, 0x00, 0x5c, 0x99, 0x2a, 0x41, 0x04, 0x89,
        0x2a, 0x00, 0x5c, 0x99, 0x2a, 0x55, 0x00, 0x99, 0x24, 0x69, 0x04, 0x89,
        0x24, 0x00, 0x00, 0x89, 0x2a, 0x00, 0x5c, 0x99, 0x24, 0x55, 0x00, 0x99,
        0x2a, 0x41, 0x04, 0x89, 0x2a, 0x00, 0x00, 0x89, 0x24, 0x00, 0x5c, 0x99,
        0x2a, 0x55, 0x00, 0x99, 0x28, 0x66, 0x04, 0x89, 0x28, 0x00, 0x00, 0x89,
        0x2a, 0x00, 0x5c, 0x99, 0x2a, 0x41, 0x04, 0x89, 0x2a, 0x00, 0x5c, 0x99,
        0x24, 0x69, 0x00, 0x99, 0x2a, 0x55, 0x04, 0x89, 0x2a, 0x00, 0x00, 0x89,
        0x24, 0x00, 0x85, 0x7c, 0x99, 0x24, 0x69, 0x00, 0x99, 0x2a, 0x55, 0x04,
        0x89, 0x2a, 0x00, 0x00, 0x89, 0x24, 0x00, 0x5c, 0x99, 0x2a, 0x41, 0x04,
        0x89, 0x2a, 0x00, 0x5c, 0x99, 0x2a, 0x55, 0x00, 0x99, 0x28, 0x66, 0x04,
        0x89, 0x28, 0x00, 0x00, 0x89, 0x2a, 0x00, 0x5c, 0x99, 0x2a, 0x41, 0x04,
        0x89, 0x2a, 0x00, 0x5c, 0x99, 0x2a, 0x55, 0x00, 0x99, 0x24, 0x69, 0x04,
        0x89, 0x24, 0x00, 0x00, 0x89, 0x2a, 0x00, 0x5c, 0x99, 0x2a, 0x41, 0x00,
        0x99, 0x24, 0x55, 0x04, 0x89, 0x24, 0x00, 0x00, 0x89, 0x2a, 0x00, 0x5c,
        0x99, 0x28, 0x66, 0x00, 0x99, 0x2a, 0x55, 0x04, 0x89, 0x2a, 0x00, 0x00,
        0x89, 0x28, 0x00, 0x5c, 0x99, 0x2a, 0x41, 0x04, 0x89, 0x2a, 0x00, 0x5c,
        0x99, 0x2a, 0x55, 0x00, 0x99, 0x24, 0x69, 0x04, 0x89, 0x24, 0x00, 0x00,
        0x89, 0x2a, 0x00, 0x5c, 0x99, 0x2a, 0x41, 0x04, 0x89, 0x2a, 0x00, 0x5c,
        0x99, 0x2a, 0x55, 0x00, 0x99, 0x28, 0x66, 0x04, 0x89, 0x28, 0x00, 0x00,
        0x89, 0x2a, 0x00, 0x5c, 0x99, 0x2a, 0x41, 0x04, 0x89, 0x2a, 0x00, 0x5c,
        0x99, 0x2a, 0x55, 0x00, 0x99, 0x24, 0x69, 0x04, 0x89, 0x24, 0x00, 0x00,
        0x89, 0x2a, 0x00, 0x5c, 0x99, 0x2a, 0x41, 0x00, 0x99, 0x24, 0x55, 0x04,
        0x89, 0x24, 0x00, 0x00, 0x89, 0x2a, 0x00, 0x5c, 0x99, 0x2a, 0x55, 0x00,
        0x99, 0x28, 0x66, 0x04, 0x89, 0x28, 0x00, 0x00, 0x89, 0x2a, 0x00, 0x5c,
        0x99, 0x2a, 0x41, 0x04, 0x89, 0x2a, 0x00, 0x30, 0x99, 0x24, 0x55, 0x04,
        0x89, 0x24, 0x00, 0x28, 0x99, 0x24, 0x69, 0x00, 0x99, 0x2a, 0x55, 0x04,
        0x89, 0x2a, 0x00, 0x00, 0x89, 0x24, 0x00, 0x5c, 0x99, 0x2a, 0x41, 0x04,
        0x89, 0x2a, 0x00, 0x5c, 0x99, 0x28, 0x66, 0x00, 0x99, 0x2a, 0x55, 0x04,
        0x89, 0x2a, 0x00, 0x00, 0x89, 0x28, 0x00, 0x5c, 0x99, 0x2a, 0x41, 0x04,
        0x89, 0x2a, 0x00, 0x5c, 0x99, 0x24, 0x69, 0x00, 0x99, 0x2a, 0x55, 0x04,
        0x89, 0x2a, 0x00, 0x00, 0x89, 0x24, 0x00, 0x5c, 0x99, 0x24, 0x55, 0x00,
        0x99, 0x2a, 0x41, 0x04, 0x89, 0x2a, 0x00, 0x00, 0x89, 0x24, 0x00, 0x5c,
        0x99, 0x28, 0x66, 0x00, 0x99, 0x2a, 0x55, 0x04, 0x89, 0x2a, 0x00, 0x00,
        0x89, 0x28, 0x00, 0x5c, 0x99, 0x2a, 0x41, 0x04, 0x89, 0x2a, 0x00, 0x30,
        0x99, 0x24, 0x55, 0x04, 0x89, 0x24, 0x00, 0x28, 0x99, 0x2a, 0x55, 0x00,
        0x99, 0x24, 0x69, 0x04, 0x89, 0x24, 0x00, 0x00, 0x89, 0x2a, 0x00, 0x5c,
        0x99, 0x2a, 0x41, 0x04, 0x89, 0x2a, 0x00, 0x5c, 0x99, 0x28, 0x66, 0x00,
        0x99, 0x2a, 0x55, 0x04, 0x89, 0x2a, 0x00, 0x00, 0x89, 0x28, 0x00, 0x5c,
        0x99, 0x2a, 0x41, 0x04, 0x89, 0x2a, 0x00, 0x5c, 0x99, 0x2a, 0x55, 0x00,
        0x99, 0x24, 0x69, 0x04, 0x89, 0x24, 0x00, 0x00, 0x89, 0x2a, 0x00, 0x5c,
        0x99, 0x2a, 0x41, 0x00, 0x99, 0x24, 0x55, 0x04, 0x89, 0x24, 0x00, 0x00,
        0x89, 0x2a, 0x00, 0x5c, 0x99, 0x28, 0x66, 0x00, 0x99, 0x2a, 0x55, 0x04,
        0x89, 0x2a, 0x00, 0x00, 0x89, 0x28, 0x00, 0x5c, 0x99, 0x2a, 0x41, 0x04,
        0x89, 0x2a, 0x00, 0x30, 0x99, 0x24, 0x55, 0x04, 0x89, 0x24, 0x00, 0x28,
        0x99, 0x2a, 0x55, 0x00, 0x99, 0x24, 0x69, 0x04, 0x89, 0x24, 0x00, 0x00,
        0x89, 0x2a, 0x00, 0x5c, 0x99, 0x2a, 0x41, 0x04, 0x89, 0x2a, 0x00, 0x5c,
        0x99, 0x28, 0x66, 0x00, 0x99, 0x2a, 0x55, 0x04, 0x89, 0x2a, 0x00, 0x00,
        0x89, 0x28, 0x00, 0x5c, 0x99, 0x2a, 0x41, 0x04, 0x89, 0x2a, 0x00, 0x5c,
        0x99, 0x2a, 0x55, 0x00, 0x99, 0x24, 0x69, 0x04, 0x89, 0x24, 0x00, 0x00,
        0x89, 0x2a, 0x00, 0x5c, 0x99, 0x24, 0x55, 0x00, 0x99, 0x2a, 0x41, 0x04,
        0x89, 0x2a, 0x00, 0x00, 0x89, 0x24, 0x00, 0x5c, 0x99, 0x28, 0x66, 0x00,
        0x99, 0x2a, 0x55, 0x04, 0x89, 0x2a, 0x00, 0x00, 0x89, 0x28, 0x00, 0x5c,
        0x99, 0x2a, 0x41, 0x04, 0x89, 0x2a, 0x00, 0x30, 0x99, 0x24, 0x55, 0x04,
        0x89, 0x24, 0x00, 0x28, 0x99, 0x2a, 0x55, 0x00, 0x99, 0x24, 0x69, 0x04,
        0x89, 0x24, 0x00, 0x00, 0x89, 0x2a, 0x00, 0x5c, 0x99, 0x2a, 0x41, 0x04,
        0x89, 0x2a, 0x00, 0x5c, 0x99, 0x28, 0x66, 0x00, 0x99, 0x2a, 0x55, 0x04,
        0x89, 0x2a, 0x00, 0x00, 0x89, 0x28, 0x00, 0x5c, 0x99, 0x2a, 0x41, 0x04,
        0x89, 0x2a, 0x00, 0x5c, 0x99, 0x24, 0x69, 0x00, 0x99, 0x2a, 0x55, 0x04,
        0x89, 0x2a, 0x00, 0x00, 0x89, 0x24, 0x00, 0x5c, 0x99, 0x2a, 0x41, 0x00,
        0x99, 0x24, 0x55, 0x04, 0x89, 0x24, 0x00, 0x00, 0x89, 0x2a, 0x00, 0x5c,
        0x99, 0x2a, 0x55, 0x00, 0x99, 0x28, 0x66, 0x04, 0x89, 0x28, 0x00, 0x00,
        0x89, 0x2a, 0x00, 0x5c, 0x99, 0x2a, 0x41, 0x04, 0x89, 0x2a, 0x00, 0x30,
        0x99, 0x24, 0x55, 0x04, 0x89, 0x24, 0x00, 0x28, 0x99, 0x2a, 0x55, 0x00,
        0x99, 0x24, 0x69, 0x04, 0x89, 0x24, 0x00, 0x00, 0x89, 0x2a, 0x00, 0x5c,
        0x99, 0x2a, 0x41, 0x04, 0x89, 0x2a, 0x00, 0x5c, 0x99, 0x2a, 0x55, 0x00,
        0x99, 0x28, 0x66, 0x04, 0x89, 0x28, 0x00, 0x00, 0x89, 0x2a, 0x00, 0x5c,
        0x99, 0x2a, 0x41, 0x04, 0x89, 0x2a, 0x00, 0x5c, 0x99, 0x24, 0x69, 0x00,
        0x99, 0x2a, 0x55, 0x04, 0x89, 0x2a, 0x00, 0x00, 0x89, 0x24, 0x00, 0x5c,
        0x99, 0x2a, 0x41, 0x00, 0x99, 0x24, 0x55, 0x04, 0x89, 0x24, 0x00, 0x00,
        0x89, 0x2a, 0x00, 0x5c, 0x99, 0x2a, 0x55, 0x00, 0x99, 0x28, 0x66, 0x04,
        0x89, 0x28, 0x00, 0x00, 0x89, 0x2a, 0x00, 0x30, 0x99, 0x30, 0x69, 0x04,
        0x89, 0x30, 0x00, 0x28, 0x99, 0x2a, 0x41, 0x00, 0x99, 0x30, 0x55, 0x04,
        0x89, 0x30, 0x00, 0x00, 0x89, 0x2a, 0x00, 0x5c, 0x99, 0x24, 0x69, 0x00,
        0x99, 0x31, 0x41, 0x04, 0x89, 0x31, 0x00, 0x00, 0x89, 0x24, 0x00, 0x85,
        0x7c, 0x99, 0x24, 0x69, 0x00, 0x99, 0x2a, 0x55, 0x04, 0x89, 0x2a, 0x00,
        0x00, 0x89, 0x24, 0x00, 0x5c, 0x99, 0x2a, 0x41, 0x04, 0x89, 0x2a, 0x00,
        0x5c, 0x99, 0x2a, 0x55, 0x00, 0x99, 0x28, 0x66, 0x04, 0x89, 0x28, 0x00,
        0x00, 0x89, 0x2a, 0x00, 0x5c, 0x99, 0x2a, 0x41, 0x04, 0x89, 0x2a, 0x00,
        0x5c, 0x99, 0x24, 0x69, 0x00, 0x99, 0x2a, 0x55, 0x04, 0x89, 0x2a, 0x00,
        0x00, 0x89, 0x24, 0x00, 0x5c, 0x99, 0x2a, 0x41, 0x00, 0x99, 0x24, 0x55,
        0x04, 0x89, 0x24, 0x00, 0x00, 0x89, 0x2a, 0x00, 0x5c, 0x99, 0x2a, 0x55,
        0x00, 0x99, 0x28, 0x66, 0x04, 0x89, 0x28, 0x00, 0x00, 0x89, 0x2a, 0x00,
        0x5c, 0x99, 0x2a, 0x41, 0x04, 0x89, 0x2a, 0x00, 0x5c, 0x99, 0x2a, 0x55,
        0x00, 0x99, 0x24, 0x69, 0x04, 0x89, 0x24, 0x00, 0x00, 0x89, 0x2a, 0x00,
        0x5c, 0x99, 0x2a, 0x41, 0x04, 0x89, 0x2a, 0x00, 0x5c, 0x99, 0x2a, 0x55,
        0x00, 0x99, 0x28, 0x66, 0x04, 0x89, 0x28, 0x00, 0x00, 0x89, 0x2a, 0x00,
        0x5c, 0x99, 0x2a, 0x41, 0x04, 0x89, 0x2a, 0x00, 0x5c, 0x99, 0x24, 0x69,
        0x00, 0x99, 0x2a, 0x55, 0x04, 0x89, 0x2a, 0x00, 0x00, 0x89, 0x24, 0x00,
        0x5c, 0x99, 0x24, 0x55, 0x00, 0x99, 0x2a, 0x41, 0x04, 0x89, 0x2a, 0x00,
        0x00, 0x89, 0x24, 0x00, 0x5c, 0x99, 0x2a, 0x55, 0x00, 0x99, 0x28, 0x66,
        0x04, 0x89, 0x28, 0x00, 0x00, 0x89, 0x2a, 0x00, 0x5c, 0x99, 0x2a, 0x41,
        0x04, 0x89, 0x2a, 0x00, 0x5c, 0x99, 0x2a, 0x55, 0x00, 0x99, 0x24, 0x69,
        0x04, 0x89, 0x24, 0x00, 0x00, 0x89, 0x2a, 0x00, 0x5c, 0x99, 0x2a, 0x41,
        0x04, 0x89, 0x2a, 0x00, 0x5c, 0x99, 0x28, 0x66, 0x00, 0x99, 0x2a, 0x55,
        0x04, 0x89, 0x2a, 0x00, 0x00, 0x89, 0x28, 0x00, 0x5c, 0x99, 0x2a, 0x41,
        0x04, 0x89, 0x2a, 0x00, 0x5c, 0x99, 0x2a, 0x55, 0x00, 0x99, 0x24, 0x69,
        0x04, 0x89, 0x24, 0x00, 0x00, 0x89, 0x2a, 0x00, 0x5c, 0x99, 0x2a, 0x41,
        0x00, 0x99, 0x24, 0x55, 0x04, 0x89, 0x24, 0x00, 0x00, 0x89, 0x2a, 0x00,
        0x5c, 0x99, 0x28, 0x66, 0x00, 0x99, 0x2a, 0x55, 0x04, 0x89, 0x2a, 0x00,
        0x00, 0x89, 0x28, 0x00, 0x5c, 0x99, 0x2a, 0x41, 0x04, 0x89, 0x2a, 0x00,
        0x5c, 0x99, 0x24, 0x69, 0x00, 0x99, 0x2a, 0x55, 0x04, 0x89, 0x2a, 0x00,
        0x00, 0x89, 0x24, 0x00, 0x5c, 0x99, 0x2a, 0x41, 0x04, 0x89, 0x2a, 0x00,
        0x5c, 0x99, 0x2a, 0x55, 0x00, 0x99, 0x28, 0x66, 0x04, 0x89, 0x28, 0x00,
        0x00, 0x89, 0x2a, 0x00, 0x5c, 0x99, 0x2a, 0x41, 0x04, 0x89, 0x2a, 0x00,
        0x5c, 0x99, 0x24, 0x69, 0x00, 0x99, 0x2a, 0x55, 0x04, 0x89, 0x2a, 0x00,
        0x00, 0x89, 0x24, 0x00, 0x5c, 0x99, 0x24, 0x55, 0x00, 0x99, 0x2a, 0x41,
        0x04, 0x89, 0x2a, 0x00, 0x00, 0x89, 0x24, 0x00, 0x5c, 0x99, 0x28, 0x66,
        0x00, 0x99, 0x2a, 0x55, 0x04, 0x89, 0x2a, 0x00, 0x00, 0x89, 0x28, 0x00,
        0x5c, 0x99, 0x2a, 0x41, 0x04, 0x89, 0x2a, 0x00, 0x5c, 0x99, 0x24, 0x69,
        0x00, 0x99, 0x2a, 0x55, 0x04, 0x89, 0x2a, 0x00, 0x00, 0x89, 0x24, 0x00,
        0x5c, 0x99, 0x2a, 0x41, 0x04, 0x89, 0x2a, 0x00, 0x5c, 0x99, 0x28, 0x66,
        0x00, 0x99, 0x2a, 0x55, 0x04, 0x89, 0x2a, 0x00, 0x00, 0x89, 0x28, 0x00,
        0x5c, 0x99, 0x2a, 0x41, 0x04, 0x89, 0x2a, 0x00, 0x5c, 0x99, 0x2a, 0x55,
        0x00, 0x99, 0x24, 0x69, 0x04, 0x89, 0x24, 0x00, 0x00, 0x89, 0x2a, 0x00,
        0x5c, 0x99, 0x2a, 0x41, 0x00, 0x99, 0x24, 0x55, 0x04, 0x89, 0x24, 0x00,
        0x00, 0x89, 0x2a, 0x00, 0x5c, 0x99, 0x28, 0x66, 0x00, 0x99, 0x2a, 0x55,
        0x04, 0x89, 0x2a, 0x00, 0x00, 0x89, 0x28, 0x00, 0x5c, 0x99, 0x2a, 0x41,
        0x04, 0x89, 0x2a, 0x00, 0x5c, 0x99, 0x24, 0x69, 0x00, 0x99, 0x2a, 0x55,
        0x04, 0x89, 0x2a, 0x00, 0x00, 0x89, 0x24, 0x00, 0x5c, 0x99, 0x2a, 0x41,
        0x04, 0x89, 0x2a, 0x00, 0x5c, 0x99, 0x2a, 0x55, 0x00, 0x99, 0x28, 0x66,
        0x04, 0x89, 0x28, 0x00, 0x00, 0x89, 0x2a, 0x00, 0x5c, 0x99, 0x2a, 0x41,
        0x04, 0x89, 0x2a, 0x00, 0x5c, 0x99, 0x2a, 0x55, 0x00, 0x99, 0x24, 0x69,
        0x04, 0x89, 0x24, 0x00, 0x00, 0x89, 0x2a, 0x00, 0x5c, 0x99, 0x24, 0x55,
        0x00, 0x99, 0x2a, 0x41, 0x04, 0x89, 0x2a, 0x00, 0x00, 0x89, 0x24, 0x00,
        0x5c, 0x99, 0x28, 0x66, 0x00, 0x99, 0x2a, 0x55, 0x04, 0x89, 0x2a, 0x00,
        0x00, 0x89, 0x28, 0x00, 0x5c, 0x99, 0x2a, 0x41, 0x04, 0x89, 0x2a, 0x00,
        0x5c, 0x99, 0x2a, 0x55, 0x00, 0x99, 0x24, 0x69, 0x04, 0x89, 0x24, 0x00,
        0x00, 0x89, 0x2a, 0x00, 0x5c, 0x99, 0x2a, 0x41, 0x04, 0x89, 0x2a, 0x00,
        0x5c, 0x99, 0x28, 0x66, 0x00, 0x99, 0x2a, 0x55, 0x04, 0x89, 0x2a, 0x00,
        0x00, 0x89, 0x28, 0x00, 0x5c, 0x99, 0x2a, 0x41, 0x04, 0x89, 0x2a, 0x00,
        0x5c, 0x99, 0x2a, 0x55, 0x00, 0x99, 0x24, 0x69, 0x04, 0x89, 0x24, 0x00,
        0x00, 0x89, 0x2a, 0x00, 0x5c, 0x99, 0x2a, 0x41, 0x00, 0x99, 0x24, 0x55,
        0x04, 0x89, 0x24, 0x00, 0x00, 0x89, 0x2a, 0x00, 0x5c, 0x99, 0x28, 0x66,
        0x00, 0x99, 0x2a, 0x55, 0x04, 0x89, 0x2a, 0x00, 0x00, 0x89, 0x28, 0x00,
        0x5c, 0x99, 0x2a, 0x41, 0x04, 0x89, 0x2a, 0x00, 0x5c, 0x99, 0x24, 0x69,
        0x00, 0x99, 0x2a, 0x55, 0x04, 0x89, 0x2a, 0x00, 0x00, 0x89, 0x24, 0x00,
        0x5c, 0x99, 0x2a, 0x41, 0x04, 0x89, 0x2a, 0x00, 0x5c, 0x99, 0x28, 0x66,
        0x00, 0x99, 0x2a, 0x55, 0x04, 0x89, 0x2a, 0x00, 0x00, 0x89, 0x28, 0x00,
        0x5c, 0x99, 0x2a, 0x41, 0x04, 0x89, 0x2a, 0x00, 0x5c, 0x99, 0x24, 0x69,
        0x00, 0x99, 0x2a, 0x55, 0x04, 0x89, 0x2a, 0x00, 0x00, 0x89, 0x24, 0x00,
        0x5c, 0x99, 0x2a, 0x41, 0x00, 0x99, 0x24, 0x55, 0x04, 0x89, 0x24, 0x00,
        0x00, 0x89, 0x2a, 0x00, 0x5c, 0x99, 0x28, 0x66, 0x00, 0x99, 0x2a, 0x55,
        0x04, 0x89, 0x2a, 0x00, 0x00, 0x89, 0x28, 0x00, 0x30, 0x99, 0x30, 0x55,
        0x04, 0x89, 0x30, 0x00, 0x28, 0x99, 0x29, 0x55, 0x04, 0x89, 0x29, 0x00,
        0x5c, 0x99, 0x2a, 0x55, 0x00, 0x99, 0x24, 0x69, 0x04, 0x89, 0x24, 0x00,
        0x00, 0x89, 0x2a, 0x00, 0x5c, 0x99, 0x2a, 0x41, 0x04, 0x89, 0x2a, 0x00,
        0x5c, 0x99, 0x2a, 0x55, 0x00, 0x99, 0x28, 0x66, 0x04, 0x89, 0x28, 0x00,
        0x00, 0x89, 0x2a, 0x00, 0x5c, 0x99, 0x2a, 0x41, 0x04, 0x89, 0x2a, 0x00,
        0x5c, 0x99, 0x24, 0x69, 0x00, 0x99, 0x2a, 0x55, 0x04, 0x89, 0x2a, 0x00,
        0x00, 0x89, 0x24, 0x00, 0x5c, 0x99, 0x2a, 0x41, 0x00, 0x99, 0x24, 0x55,
        0x04, 0x89, 0x24, 0x00, 0x00, 0x89, 0x2a, 0x00, 0x5c, 0x99, 0x2a, 0x55,
        0x00, 0x99, 0x28, 0x66, 0x04, 0x89, 0x28, 0x00, 0x00, 0x89, 0x2a, 0x00,
        0x5c, 0x99, 0x2a, 0x41, 0x04, 0x89, 0x2a, 0x00, 0x5c, 0x99, 0x24, 0x69,
        0x00, 0x99, 0x2a, 0x55, 0x04, 0x89, 0x2a, 0x00, 0x00, 0x89, 0x24, 0x00,
        0x5c, 0x99, 0x2a, 0x41, 0x04, 0x89, 0x2a, 0x00, 0x5c, 0x99, 0x28, 0x66,
        0x00, 0x99, 0x2a, 0x55, 0x04, 0x89, 0x2a, 0x00, 0x00, 0x89, 0x28, 0x00,
        0x5c, 0x99, 0x2a, 0x41, 0x04, 0x89, 0x2a, 0x00, 0x5c, 0x99, 0x2a, 0x55,
        0x00, 0x99, 0x24, 0x69, 0x04, 0x89, 0x24, 0x00, 0x00, 0x89, 0x2a, 0x00,
        0x5c, 0x99, 0x2a, 0x41, 0x00, 0x99, 0x24, 0x55, 0x04, 0x89, 0x24, 0x00,
        0x00, 0x89, 0x2a, 0x00, 0x5c, 0x99, 0x2a, 0x55, 0x00, 0x99, 0x28, 0x66,
        0x04, 0x89, 0x28, 0x00, 0x00, 0x89, 0x2a, 0x00, 0x5c, 0x99, 0x2a, 0x41,
        0x04, 0x89, 0x2a, 0x00, 0x5c, 0x99, 0x24, 0x69, 0x00, 0x99, 0x2a, 0x55,
        0x04, 0x89, 0x2a, 0x00, 0x00, 0x89, 0x24, 0x00, 0x5c, 0x99, 0x2a, 0x41,
        0x04, 0x89, 0x2a, 0x00, 0x5c, 0x99, 0x28, 0x66, 0x00, 0x99, 0x2a, 0x55,
        0x04, 0x89, 0x2a, 0x00, 0x00, 0x89, 0x28, 0x00, 0x5c, 0x99, 0x2a, 0x41,
        0x04, 0x89, 0x2a, 0x00, 0x5c, 0x99, 0x24, 0x69, 0x00, 0x99, 0x2a, 0x55,
        0x04, 0x89, 0x2a, 0x00, 0x00, 0x89, 0x24, 0x00, 0x5c, 0x99, 0x2a, 0x41,
        0x00, 0x99, 0x24, 0x55, 0x04, 0x89, 0x24, 0x00, 0x00, 0x89, 0x2a, 0x00,
        0x5c, 0x99, 0x28, 0x66, 0x00, 0x99, 0x2a, 0x55, 0x04, 0x89, 0x2a, 0x00,
        0x00, 0x89, 0x28, 0x00, 0x5c, 0x99, 0x2a, 0x41, 0x04, 0x89, 0x2a, 0x00,
        0x5c, 0x99, 0x24, 0x69, 0x00, 0x99, 0x2a, 0x55, 0x04, 0x89, 0x2a, 0x00,
        0x00, 0x89, 0x24, 0x00, 0x85, 0x7c, 0x99, 0x2a, 0x55, 0x00, 0x99, 0x24,
        0x69, 0x04, 0x89, 0x24, 0x00, 0x00, 0x89, 0x2a, 0x00, 0x5c, 0x99, 0x2a,
        0x41, 0x04, 0x89, 0x2a, 0x00, 0x5c, 0x99, 0x2a, 0x55, 0x00, 0x99, 0x28,
        0x66, 0x04, 0x89, 0x28, 0x00, 0x00, 0x89, 0x2a, 0x00, 0x5c, 0x99, 0x2a,
        0x41, 0x04, 0x89, 0x2a, 0x00, 0x5c, 0x99, 0x2a, 0x55, 0x00, 0x99, 0x24,
        0x69, 0x04, 0x89, 0x24, 0x00, 0x00, 0x89, 0x2a, 0x00, 0x5c, 0x99, 0x2a,
        0x41, 0x00, 0x99, 0x24, 0x55, 0x04, 0x89, 0x24, 0x00, 0x00, 0x89, 0x2a,
        0x00, 0x5c, 0x99, 0x2a, 0x55, 0x00, 0x99, 0x28, 0x66, 0x04, 0x89, 0x28,
        0x00, 0x00, 0x89, 0x2a, 0x00, 0x5c, 0x99, 0x2a, 0x41, 0x04, 0x89, 0x2a,
        0x00, 0x5c, 0x99, 0x24, 0x69, 0x00, 0x99, 0x2a, 0x55, 0x04, 0x89, 0x2a,
        0x00, 0x00, 0x89, 0x24, 0x00, 0x5c, 0x99, 0x2a, 0x41, 0x04, 0x89, 0x2a,
        0x00, 0x5c, 0x99, 0x2a, 0x55, 0x00, 0x99, 0x28, 0x66, 0x04, 0x89, 0x28,
        0x00, 0x00, 0x89, 0x2a, 0x00, 0x5c, 0x99, 0x2a, 0x41, 0x04, 0x89, 0x2a,
        0x00, 0x5c, 0x99, 0x24, 0x69, 0x00, 0x99, 0x2a, 0x55, 0x04, 0x89, 0x2a,
        0x00, 0x00, 0x89, 0x24, 0x00, 0x5c, 0x99, 0x24, 0x55, 0x00, 0x99, 0x2a,
        0x41, 0x04, 0x89, 0x2a, 0x00, 0x00, 0x89, 0x24, 0x00, 0x5c, 0x99, 0x28,
        0x66, 0x00, 0x99, 0x2a, 0x55, 0x04, 0x89, 0x2a, 0x00, 0x00, 0x89, 0x28,
        0x00, 0x5c, 0x99, 0x2a, 0x41, 0x04, 0x89, 0x2a, 0x00, 0x5c, 0x99, 0x24,
        0x69, 0x00, 0x99, 0x2a, 0x55, 0x04, 0x89, 0x2a, 0x00, 0x00, 0x89, 0x24,
        0x00, 0x5c, 0x99, 0x2a, 0x41, 0x04, 0x89, 0x2a, 0x00, 0x5c, 0x99, 0x28,
        0x66, 0x00, 0x99, 0x2a, 0x55, 0x04, 0x89, 0x2a, 0x00, 0x00, 0x89, 0x28,
        0x00, 0x5c, 0x99, 0x2a, 0x41, 0x04, 0x89, 0x2a, 0x00, 0x5c, 0x99, 0x24,
        0x69, 0x00, 0x99, 0x2a, 0x55, 0x04, 0x89, 0x2a, 0x00, 0x00, 0x89, 0x24,
        0x00, 0x5c, 0x99, 0x2a, 0x41, 0x00, 0x99, 0x24, 0x55, 0x04, 0x89, 0x24,
        0x00, 0x00, 0x89, 0x2a, 0x00, 0x5c, 0x99, 0x2a, 0x55, 0x00, 0x99, 0x28,
        0x66, 0x04, 0x89, 0x28, 0x00, 0x00, 0x89, 0x2a, 0x00, 0x5c, 0x99, 0x2a,
        0x41, 0x04, 0x89, 0x2a, 0x00, 0x5c, 0x99, 0x2a, 0x55, 0x00, 0x99, 0x24,
        0x69, 0x04, 0x89, 0x24, 0x00, 0x00, 0x89, 0x2a, 0x00, 0x5c, 0x99, 0x2a,
        0x41, 0x04, 0x89, 0x2a, 0x00, 0x5c, 0x99, 0x2a, 0x55, 0x00, 0x99, 0x28,
        0x66, 0x04, 0x89, 0x28, 0x00, 0x00, 0x89, 0x2a, 0x00, 0x5c, 0x99, 0x2a,
        0x41, 0x04, 0x89, 0x2a, 0x00, 0x5c, 0x99, 0x2a, 0x55, 0x00, 0x99, 0x24,
        0x69, 0x04, 0x89, 0x24, 0x00, 0x00, 0x89, 0x2a, 0x00, 0x5c, 0x99, 0x24,
        0x55, 0x00, 0x99, 0x2a, 0x41, 0x04, 0x89, 0x2a, 0x00, 0x00, 0x89, 0x24,
        0x00, 0x5c, 0x99, 0x2a, 0x55, 0x00, 0x99, 0x28, 0x66, 0x04, 0x89, 0x28,
        0x00, 0x00, 0x89, 0x2a, 0x00, 0x5c, 0x99, 0x2a, 0x41, 0x04, 0x89, 0x2a,
        0x00, 0x5c, 0x99, 0x2a, 0x55, 0x00, 0x99, 0x24, 0x69, 0x04, 0x89, 0x24,
        0x00, 0x00, 0x89, 0x2a, 0x00, 0x5c, 0x99, 0x2a, 0x41, 0x04, 0x89, 0x2a,
        0x00, 0x5c, 0x99, 0x28, 0x66, 0x00, 0x99, 0x2a, 0x55, 0x04, 0x89, 0x2a,
        0x00, 0x00, 0x89, 0x28, 0x00, 0x5c, 0x99, 0x2a, 0x41, 0x04, 0x89, 0x2a,
        0x00, 0x5c, 0x99, 0x2a, 0x55, 0x00, 0x99, 0x24, 0x69, 0x04, 0x89, 0x24,
        0x00, 0x00, 0x89, 0x2a, 0x00, 0x5c, 0x99, 0x2a, 0x41, 0x00, 0x99, 0x24,
        0x55, 0x04, 0x89, 0x24, 0x00, 0x00, 0x89, 0x2a, 0x00, 0x5c, 0x99, 0x28,
        0x66, 0x00, 0x99, 0x2a, 0x55, 0x04, 0x89, 0x2a, 0x00, 0x00, 0x89, 0x28,
        0x00, 0x5c, 0x99, 0x2a, 0x41, 0x04, 0x89, 0x2a, 0x00, 0x5c, 0x99, 0x24,
        0x69, 0x00, 0x99, 0x2a, 0x55, 0x04, 0x89, 0x2a, 0x00, 0x00, 0x89, 0x24,
        0x00, 0x5c, 0x99, 0x2a, 0x41, 0x04, 0x89, 0x2a, 0x00, 0x5c, 0x99, 0x28,
        0x66, 0x00, 0x99, 0x2a, 0x55, 0x04, 0x89, 0x2a, 0x00, 0x00, 0x89, 0x28,
        0x00, 0x5c, 0x99, 0x2a, 0x41, 0x04, 0x89, 0x2a, 0x00, 0x5c, 0x99, 0x2a,
        0x55, 0x00, 0x99, 0x24, 0x69, 0x04, 0x89, 0x24, 0x00, 0x00, 0x89, 0x2a,
        0x00, 0x5c, 0x99, 0x24, 0x55, 0x00, 0x99, 0x2a, 0x41, 0x04, 0x89, 0x2a,
        0x00, 0x00, 0x89, 0x24, 0x00, 0x30, 0x99, 0x28, 0x58, 0x04, 0x89, 0x28,
        0x00, 0x28, 0x99, 0x2a, 0x55, 0x00, 0x99, 0x28, 0x66, 0x04, 0x89, 0x28,
        0x00, 0x00, 0x89, 0x2a, 0x00, 0x5c, 0x99, 0x29, 0x55, 0x00, 0x99, 0x2a,
        0x41, 0x04, 0x89, 0x2a, 0x00, 0x00, 0x89, 0x29, 0x00, 0x5c, 0x99, 0x2a,
        0x55, 0x00, 0x99, 0x24, 0x69, 0x04, 0x89, 0x24, 0x00, 0x00, 0x89, 0x2a,
        0x00, 0x5c, 0x99, 0x2a, 0x41, 0x04, 0x89, 0x2a, 0x00, 0x5c, 0x99, 0x28,
        0x66, 0x00, 0x99, 0x2a, 0x55, 0x04, 0x89, 0x2a, 0x00, 0x00, 0x89, 0x28,
        0x00, 0x5c, 0x99, 0x2a, 0x41, 0x04, 0x89, 0x2a, 0x00, 0x5c, 0x99, 0x28,
        0x58, 0x00, 0x99, 0x2a, 0x55, 0x00, 0x99, 0x24, 0x69, 0x04, 0x89, 0x24,
        0x00, 0x00, 0x89, 0x2a, 0x00, 0x00, 0x89, 0x28, 0x00, 0x5c, 0x99, 0x28,
        0x58, 0x00, 0x99, 0x2a, 0x41, 0x04, 0x89, 0x2a, 0x00, 0x00, 0x89, 0x28,
        0x00, 0x2c, 0x99, 0x28, 0x3c, 0x04, 0x89, 0x28, 0x00, 0x2c, 0x99, 0x30,
        0x58, 0x00, 0x99, 0x2a, 0x55, 0x04, 0x89, 0x2a, 0x00, 0x00, 0x89, 0x30,
        0x00, 0x5c, 0x99, 0x2a, 0x41, 0x00, 0x99, 0x24, 0x55, 0x04, 0x89, 0x24,
        0x00, 0x00, 0x89, 0x2a, 0x00, 0x5c, 0x99, 0x24, 0x69, 0x00, 0x99, 0x31,
        0x41, 0x04, 0x89, 0x31, 0x00, 0x00, 0x89, 0x24, 0x00, 0x00, 0xff, 0x2f,
        0x00, 0x4d, 0x54, 0x72, 0x6b, 0x00, 0x00, 0x00, 0x10, 0x00, 0xff, 0x20,
        0x01, 0x05, 0x00, 0xb5, 0x07, 0x64, 0x00, 0xc5, 0x00, 0x00, 0xff, 0x2f,
        0x00
};
